<svg xmlns="http://www.w3.org/2000/svg"  viewBox="0 0 50 50" width="100px" height="100px" fill="#ff9903"><path d="M 2.875 2 C 2.394531 2.070313 2.035156 2.472656 2.019531 2.957031 C 2.003906 3.441406 2.335938 3.871094 2.8125 3.96875 L 46.8125 11.96875 C 47.183594 12.105469 47.601563 12.011719 47.878906 11.726563 C 48.15625 11.441406 48.234375 11.019531 48.085938 10.652344 C 47.9375 10.285156 47.582031 10.042969 47.1875 10.03125 L 29.28125 6.78125 C 29.714844 6.519531 30 6.042969 30 5.5 C 30 4.671875 29.328125 4 28.5 4 C 27.671875 4 27 4.671875 27 5.5 C 27 5.84375 27.121094 6.152344 27.3125 6.40625 L 23.40625 5.71875 C 23.773438 5.445313 24 4.992188 24 4.5 C 24 3.671875 23.328125 3 22.5 3 C 21.671875 3 21 3.671875 21 4.5 C 21 4.800781 21.097656 5.078125 21.25 5.3125 L 3.1875 2.03125 C 3.085938 2.003906 2.980469 1.992188 2.875 2 Z M 21.40625 8.8125 C 21.707031 10.414063 22.398438 12.085938 24 12.6875 L 24 14.59375 C 24.300781 14.492188 24.695313 14.40625 25.09375 14.40625 L 25.40625 14.40625 C 25.605469 14.40625 25.800781 14.398438 26 14.5 L 26 13 C 26.800781 12.898438 27.414063 12.488281 27.8125 12.1875 C 28.414063 11.6875 28.800781 10.886719 29 10.1875 L 27 9.8125 C 26.898438 10.113281 26.699219 10.488281 26.5 10.6875 C 26.300781 10.886719 25.988281 11.101563 25.1875 11 C 24.289063 10.800781 23.800781 10.085938 23.5 9.1875 Z M 8.59375 15 C 6.09375 15 4 17.1875 4 19.6875 C 4 22.1875 5.992188 24.3125 8.59375 24.3125 C 11.195313 24.3125 13.1875 22.09375 13.1875 19.59375 C 13.1875 17.09375 11.09375 15 8.59375 15 Z M 25.09375 16.40625 C 24.492188 16.40625 23.898438 16.6875 23.5 17.1875 L 19 22.3125 L 15.5 23.1875 C 14.601563 23.386719 13.789063 23.898438 13.1875 24.5 L 10.90625 26.8125 C 9.804688 28.011719 9.386719 30.113281 11.1875 31.8125 L 18.90625 39.5 C 20.007813 40.601563 22.914063 42 26.3125 40 L 35 35 L 41.6875 39.59375 C 42.886719 40.394531 44.605469 40.011719 45.40625 38.8125 C 45.804688 38.210938 46.011719 37.488281 45.8125 36.6875 C 45.613281 35.886719 45.195313 35.304688 44.59375 34.90625 L 36.5 29.1875 C 35.601563 28.488281 34.3125 28.5 33.3125 29 L 24.1875 33.5 L 17.6875 27.3125 L 21.8125 25.90625 C 21.914063 25.90625 21.898438 25.914063 22 25.8125 L 27 20.40625 C 27.398438 20.007813 27.59375 19.289063 27.59375 18.6875 C 27.59375 17.988281 27.3125 17.398438 26.8125 17 C 26.414063 16.601563 25.695313 16.40625 25.09375 16.40625 Z M 26 24.59375 L 24 26.6875 L 24 30.5 L 24.59375 31.09375 L 26 30.40625 Z M 34.59375 37.5 L 27.40625 41.59375 L 31.8125 42.3125 L 39.8125 47.5 C 40.3125 47.800781 40.8125 48 41.3125 48 C 42.113281 48 42.898438 47.605469 43.5 46.90625 C 44 46.304688 44.199219 45.511719 44 44.8125 C 43.898438 44.113281 43.414063 43.398438 42.8125 43 L 34.8125 37.59375 C 34.710938 37.59375 34.695313 37.5 34.59375 37.5 Z"/></svg>