<svg xmlns="http://www.w3.org/2000/svg"  viewBox="0 0 50 50" width="100px" height="100px" fill="#2289C1"><path d="M 21.21875 0 C 19.945313 0 18.96875 2.117188 18.96875 3.53125 C 18.96875 6.609375 20.28125 8.035156 21.34375 9.1875 C 21.765625 9.644531 22.191406 10.078125 22.46875 10.5625 C 23.542969 12.445313 27.257813 33.214844 17.59375 44.71875 C 17.171875 45.222656 16.546875 45.535156 15.875 45.84375 C 14.558594 46.449219 13.0625 47.128906 13.0625 49.5625 C 13.0625 49.839844 13.285156 50.0625 13.5625 50.0625 L 34.46875 50.0625 C 34.601563 50.0625 34.71875 50 34.8125 49.90625 C 34.90625 49.8125 34.96875 49.695313 34.96875 49.5625 C 34.96875 47.515625 33.152344 46.464844 31.6875 45.625 C 31.160156 45.320313 30.640625 45.054688 30.34375 44.78125 C 29.046875 43.582031 29.539063 41.632813 30.28125 38.71875 C 31.054688 35.679688 32.128906 31.523438 31.4375 26.25 C 30.914063 22.234375 30.164063 19.105469 29.5625 16.59375 C 29.015625 14.320313 28.5625 12.539063 28.5625 11.125 C 28.5625 10.808594 29.132813 10.269531 29.6875 9.75 C 30.785156 8.722656 32.289063 7.308594 32.53125 5.09375 C 32.730469 3.257813 32.113281 2.253906 31.71875 1.8125 C 31.308594 1.355469 30.792969 1.09375 30.3125 1.09375 C 29.542969 1.09375 29.222656 2.097656 28.71875 3.625 C 28.394531 4.609375 27.988281 5.847656 27.5625 6.21875 C 26.917969 6.78125 26.351563 6.902344 25.34375 6.59375 C 24.195313 6.246094 23.90625 4.746094 23.625 3.3125 C 23.3125 1.726563 22.972656 0 21.21875 0 Z M 47.8125 7.5 C 46.425781 7.5 46.246094 9.257813 46.15625 10.09375 C 46.140625 10.230469 46.140625 10.332031 46.125 10.40625 L 46.09375 10.59375 C 45.910156 11.507813 45.558594 13.1875 44.5625 13.1875 C 43.300781 13.1875 42.925781 11.96875 42.8125 11.4375 C 42.441406 9.683594 41.445313 8.726563 40.03125 8.875 C 39.550781 8.929688 39.164063 9.179688 38.90625 9.5625 C 38.28125 10.484375 38.675781 11.902344 38.71875 12.0625 C 39.191406 13.789063 40.015625 14.78125 40.6875 15.5625 C 41.65625 16.691406 42.296875 17.441406 41.5625 19.90625 C 40.113281 24.777344 36.816406 27.820313 33.5625 29.125 C 33.621094 31.957031 33.265625 34.410156 32.8125 36.5 C 42.84375 33.71875 46.550781 24.023438 47.125 18.34375 C 47.269531 16.925781 47.589844 15.902344 48.28125 14.8125 C 48.449219 14.546875 48.625 14.3125 48.78125 14.09375 C 49.230469 13.46875 49.652344 12.878906 49.84375 11.90625 C 49.992188 11.144531 50.242188 9.238281 49.375 8.1875 C 49 7.734375 48.457031 7.5 47.8125 7.5 Z M 9.125 7.5625 C 8.605469 7.5625 7.40625 7.78125 7.40625 9.9375 C 7.40625 11.882813 8.375 12.921875 9.21875 13.84375 C 9.726563 14.394531 10.191406 14.925781 10.5 15.625 L 10.75 16.21875 C 12.65625 20.585938 15.019531 25.882813 21.8125 28.34375 C 22.066406 26.125 22.128906 23.953125 22.09375 21.9375 C 19.117188 20.804688 16.761719 18.171875 16.28125 16.625 C 15.859375 15.269531 16.164063 14.960938 16.78125 14.3125 C 17.511719 13.546875 18.53125 12.472656 18.53125 9.46875 C 18.53125 8.644531 17.625 7.882813 16.8125 7.71875 C 15.820313 7.515625 14.800781 8.125 14.71875 8.96875 C 14.449219 11.703125 13.585938 12.0625 12.875 12.0625 C 11.808594 12.0625 11.058594 10.394531 10.90625 9.75 C 10.785156 9.210938 10.417969 7.5625 9.125 7.5625 Z M 1.65625 20.65625 C 1.136719 20.65625 0.03125 20.875 0.03125 23.03125 C 0.03125 24.84375 0.863281 25.828125 1.6875 26.6875 C 2.257813 27.28125 2.800781 27.824219 3 28.625 C 4.25 33.644531 7.0625 38.472656 18.375 40.0625 C 19.449219 38.097656 20.242188 35.964844 20.8125 33.78125 C 15.871094 33.757813 9.914063 32.363281 8.5 29.78125 C 7.851563 28.59375 8.152344 28.304688 8.9375 27.5625 C 9.832031 26.714844 11.0625 25.546875 11.0625 22.5625 C 11.0625 21.738281 10.15625 20.976563 9.34375 20.8125 C 8.355469 20.613281 7.335938 21.21875 7.25 22.0625 C 6.980469 24.796875 6.117188 25.15625 5.40625 25.15625 C 4.398438 25.15625 3.609375 23.546875 3.4375 22.8125 C 3.316406 22.273438 2.949219 20.65625 1.65625 20.65625 Z"/></svg>