<svg xmlns="http://www.w3.org/2000/svg" id="a" viewBox="0 0 776.27 880.72" class="mdl-js"><defs><style>.b{fill:#ff9903;}</style></defs><path class="b" d="M100.56,713.99c-.24-1.6-.37-3.45-.37-5.33,0-2.39,.22-4.72,.63-6.99l-.04,.24c.29-2.05,.68-3.93,.78-5.92,0-2.1,.73-4.02,1.94-5.55v.02c.44-.5,.83-1.09,1.12-1.72l.02-.04c.26-.7,.42-1.51,.43-2.35h0c-.04-.62-.17-1.2-.38-1.74v.04c-.48-1.63-.77-3.51-.77-5.46,0-2.51,.48-4.91,1.34-7.1l-.05,.13c.43-.95,.68-2.05,.68-3.22,0-.93-.16-1.82-.46-2.65l.02,.05c-.4-1.28-.63-2.74-.63-4.26,0-2.16,.46-4.22,1.3-6.07l-.04,.09c.72-2.05,1.58-3.91,2.31-5.88,.8-2.03,1.29-4.38,1.35-6.84v-.03c.06-1.39,.25-2.7,.56-3.97l-.03,.14c.54-2.19,.85-4.7,.85-7.29,0-.75-.03-1.49-.08-2.23v.1c0-.19-.01-.4-.01-.62,0-.77,.08-1.51,.24-2.23v.07c.19-.89,.3-1.92,.3-2.97,0-1.67-.29-3.27-.82-4.75l.03,.1c-.17-.47-.32-1.04-.44-1.62v-.08c-.16-.5-.25-1.07-.25-1.66,0-1.39,.47-2.67,1.27-3.68h0c1.11-1.43,1.78-3.27,1.78-5.26,0-.72-.09-1.42-.25-2.09v.06c-1.15-5.95-2.57-11.06-4.32-16.01l.24,.78c-.52-1.44-1.16-2.68-1.94-3.83l.04,.06c-.96-1.25-1.54-2.84-1.54-4.56h0c0-.09,.01-.2,.01-.3,0-1.01-.43-1.92-1.12-2.55h0c-.08-.09-.16-.17-.24-.24h0c-1.56-1.27-1.54-3.4-2.68-4.9s-2.29-2.66-3.24-4.1c-.72-.99-1.15-2.23-1.15-3.58,0-1.14,.31-2.21,.86-3.13l-.02,.03c.45-.85,.83-1.83,1.09-2.86l.02-.09c.12-.36,.19-.78,.19-1.21,0-1.31-.63-2.47-1.61-3.19h-.01c-.08-.09-.17-.17-.26-.23h0c-1.77-.81-2.98-2.56-2.98-4.6,0-.24,.02-.48,.05-.71v.03c-.1-.19-.21-.35-.34-.5h0c-3.28-2.04-3.99-5.28-4.26-8.78-.18-2.68-.49-5.37-.7-8.05-.1-1.71-.94-3.21-2.2-4.19h-.01c-1.58-1.28-1.7-1.83-.51-3.18,2.19-2.46,2.05-5.65,2.97-8.52,.04-.15,.06-.33,.06-.51,0-.7-.35-1.31-.88-1.68h0c-.69-.53-1.47-1.02-2.29-1.44l-.09-.04c-.37-.24-.83-.38-1.31-.38-.63,0-1.21,.24-1.64,.63h0c-.62,.69-1.51,1.12-2.51,1.12s-1.89-.43-2.51-1.12h0c-1.06-.83-2.37-1.4-3.79-1.6h-.04c-1.74,0-3.15-1.42-3.15-3.16,0-.4,.07-.78,.21-1.13v.02c.93-3.85-.62-7.15-1.75-10.57-.53-1.11-1.22-2.06-2.05-2.86h0c-.51-.64-1.25-1.09-1.74-1.74-.76-.79-1.23-1.87-1.23-3.05,0-.92,.29-1.78,.77-2.49v.02c2.04-2.81,1.36-5.8,.89-8.79-.27-1.72-.72-3.42-1.15-5.12-.28-1.94-1.28-3.61-2.71-4.76h-.01c-1.27-.79-2.11-2.17-2.11-3.75,0-.26,.02-.52,.07-.77v.03c.02-.33,.03-.71,.03-1.1,0-1.8-.27-3.53-.76-5.17l.03,.13c-.41-2.1-.64-4.51-.64-6.98,0-.25,0-.49,0-.74v.04c0-.09,0-.19,0-.3,0-1.37-.41-2.64-1.11-3.7l.02,.03c-.15-.17-.27-.38-.35-.6h0c-.86-3.78-2.74-7.18-3.79-10.87-.41-1.75-1.22-3.27-2.32-4.52h0c-.78-.85-1.48-1.79-2.25-2.67-1.44-1.47-2.35-3.46-2.44-5.66v-.02c-.12-1.12-.43-2.14-.89-3.06l.02,.05c-.49-1.33-1.07-2.6-1.62-3.89-.84-2.05-1.7-2.68-3.75-2.42-.26,.03-.55,.05-.86,.05-1.67,0-3.21-.55-4.45-1.48h.02c-1.78-1.13-3.6-2.2-5.35-3.36-1.11-.86-2.53-1.37-4.06-1.37-.19,0-.38,0-.57,.02h.02c-.26,.05-.56,.08-.87,.08-1.43,0-2.71-.67-3.53-1.71h0c-1.38-1.38-2.23-3.28-2.23-5.37,0-.27,.01-.55,.04-.82v.03c.23-2.47,.96-4.73,2.09-6.74l-.04,.09c.34-.59,.61-1.27,.77-2v-.05c.1-.26,.16-.56,.16-.87,0-.8-.36-1.52-.92-2h0c-.35-.33-.72-.62-1.07-.92-1.45-1.15-2.48-2.79-2.84-4.66v-.05c-.13-1.6-1.29-2.9-2.81-3.23h-.02c-4.53-.95-5.12-4.67-5.96-8.2-.24-1.36-.44-3.04-.55-4.74v-.14c-.28-2.19-1.38-4.08-2.96-5.4h-.01c-1.36-1.26-2.56-2.64-3.59-4.15l-.05-.08c-1.17-1.64-1.17-2.93,.37-4.1,1.76-1.16,2.9-3.12,2.9-5.36,0-.59-.08-1.17-.23-1.71v.05c-.07-.37-.11-.79-.11-1.22,0-1.55,.57-2.97,1.52-4.05h0c.78-1.01,1.26-2.31,1.26-3.71,0-.2,0-.4-.03-.6v.02c0-2.46,.12-4.92,0-7.35,0-.08,0-.17,0-.25,0-3.37,1.54-6.37,3.96-8.35l.02-.02c.33-.31,.69-.59,1.08-.84l.03-.02c.8-.5,1.37-1.3,1.55-2.23v-.02c.29-1.9,1.74-2.66,3.24-3.4,1.31-.42,2.45-.98,3.49-1.67l-.05,.03c2.6-2.5,5.86-4.3,7.95-7.39,.74-.95,1.5-1.79,2.32-2.57h0c.39-.42,.88-.79,1.25-1.24,1.8-2.05,3.6-4.26,5.37-6.43,.45-.49,.78-1.1,.94-1.78v-.03c.19-1.58,1.12-2.92,2.44-3.65h.02c2.47-1.68,4.59-3.64,6.37-5.88l.04-.06c.52-.61,1.01-1.27,1.44-1.98l.04-.07c3.36-5.59,8.68-7.93,14.85-8.83,1.25-.18,2.58,0,3.85-.16,.46-.09,.98-.15,1.51-.15,1.56,0,3.01,.45,4.23,1.23l-.03-.02c.66,.41,1.47,.66,2.33,.66,.76,0,1.47-.19,2.1-.53h-.02c1.48-.68,2.97-1.36,4.44-2.04,1.3-.56,2.2-1.83,2.2-3.3,0-.36-.05-.71-.15-1.04v.02c-.12-.57-.23-1.27-.29-1.98v-.07c-.06-.34-.1-.73-.1-1.12,0-2.33,1.16-4.38,2.94-5.62l.02-.02c1.44-.96,2.51-2.38,3-4.04v-.05c.39-1.65,1.44-3,2.85-3.77l.03-.02c.96-.51,1.61-1.5,1.61-2.64,0-.23-.02-.45-.07-.66v.02c-.03-.51-.1-.99-.21-1.45v.06c-.06-.26-.11-.55-.11-.86,0-.92,.39-1.75,1.02-2.34h0c.92-.88,1.6-2.01,1.91-3.27v-.05c.5-2.25,2.09-4.03,4.18-4.78h.04c.76-.34,1.54-.67,2.23-1.06,.62-.26,1.04-.87,1.04-1.57,0-.3-.08-.57-.21-.82h0c-.14-.42-.43-.83-.57-1.26-.27-.81-.42-1.75-.42-2.72,0-2.59,1.11-4.93,2.88-6.55h0c.8-.61,1.73-1.07,2.75-1.34h.06c1.17-.21,2.05-1.21,2.05-2.42v-.03h0c.01-.51,.06-.99,.13-1.47v.06c.02-1.12,.79-2.05,1.82-2.33h.02c4.1-.84,5.84-4.1,7.88-7.03,.86-1.27,1.74-2.76,2.53-4.3l.12-.25c1.16-2.47,3.26-4.34,5.83-5.18l.07-.02c.73-.2,1.36-.51,1.92-.91h-.02c1.83-1.52,4.14-2.53,6.67-2.77h.05c.92-2.24,2.29-4.1,1.66-6.72,0-.04,0-.1,0-.15,0-.8,.3-1.54,.79-2.11h0c.72-1,1.15-2.26,1.15-3.62,0-.49-.05-.96-.16-1.41v.04c-.04-.57-.06-1.24-.06-1.91s.02-1.34,.07-2v.09c.22-4.15,.88-8.04,1.91-11.77l-.09,.39c.15-.41,.24-.89,.24-1.38,0-1.6-.92-2.99-2.27-3.66h-.02c-1.51-.94-2.71-2.24-3.5-3.79l-.02-.05c-.19-.49-.34-1.06-.42-1.66v-.04l2.43,1.04c0-.18,.31-.47,.25-.53-.82-1-1.68-2.05-2.5-2.93-.86-.9-1.65-1.88-2.35-2.93l-.05-.08c-.83-1.88-2.03-3.45-3.52-4.69l-.02-.02c-.38-.28-.66-.66-.81-1.11v-.02c-.79-2.02-2.11-3.69-3.78-4.89l-.03-.02c-1.12-1.07-2.11-2.28-2.94-3.59l-.05-.08c-1.02-1.89-2.48-3.42-4.25-4.5l-.05-.03c-1.04-.75-1.89-1.7-2.5-2.8l-.02-.04c-3.93-5.14-6.6-11.06-10.24-16.38-.45-.63-.77-1.38-.9-2.2v-.03c-.45-3.19-1.7-6.02-3.54-8.37l.03,.04c-1.11-1.54-1.82-3.44-1.94-5.5v-.03c-.15-2.74-.89-5.27-2.1-7.51l.05,.1c-.51-.98-.81-2.13-.84-3.35h0c-.12-1.77-.45-3.41-.96-4.96l.04,.14c-1.07-3.55-1.93-7.76-2.41-12.08l-.03-.33c-.57-3.93-.98-7.9-1.64-11.82-.19-1-.3-2.14-.3-3.32s.11-2.32,.32-3.43l-.02,.11c.34-1.26,.53-2.71,.53-4.21,0-1.1-.1-2.17-.3-3.21l.02,.11c-.03-.27-.05-.57-.05-.89,0-.91,.15-1.79,.43-2.61l-.02,.06c.72-2.24,1.2-4.83,1.35-7.52v-.08c.08-1.11,.41-2.13,.92-3.03l-.02,.04c.79-1.56,1.56-2.86,2.39-4.1l-.09,.15c1.35-1.88,2.47-4.05,3.25-6.38l.05-.17c.49-1.51,1.28-2.8,2.3-3.88h0c2.39-2.68,5.27-4.87,8.5-6.44l.16-.07c.75-.35,1.64-.66,2.56-.88l.1-.02c2.27-.51,4.57-.94,6.84-1.47,.4-.11,.86-.17,1.33-.17,.89,0,1.73,.21,2.47,.59h-.03c.72,.36,1.57,.58,2.48,.58,.58,0,1.14-.09,1.66-.26h-.04c3.56-1.22,6.37,.28,8.97,2.45,1.03,.89,2.37,1.45,3.85,1.47h0c5.07,.1,9.68,1.93,13.31,4.92l-.04-.03c1.4,1.08,3.13,1.82,5.01,2.04h.05c2.02,.45,3.79,1.06,5.47,1.83l-.16-.07c.89,.38,1.62,.74,2.32,1.14l-.11-.06c.53,.32,1.17,.52,1.86,.52,.93,0,1.77-.35,2.41-.93h0c.45-.33,.96-.67,1.49-.97l.07-.04c.51,.43,1.08,.72,1.33,1.17,.86,1.66,2.5,2.44,3.81,3.58,.51,.44,1.17,.71,1.9,.72h0c.16-.02,.34-.03,.53-.03,1.92,0,3.57,1.14,4.31,2.79v.03c.7,1.38,2.01,2.35,3.57,2.54h.02c1.57,.24,2.9,1.13,3.71,2.38v.02c1.13,1.65,2.73,2.89,4.62,3.53l.06,.02c.83,.28,1.41,1.04,1.41,1.95,0,.2-.03,.4-.08,.59h0c-.1,.51-.22,.97-.37,1.41l.02-.07c-.26,.69-.42,1.49-.42,2.32,0,2.61,1.49,4.87,3.67,5.98l.04,.02c3.92,2.41,8.62,4.92,13.48,7.14l.86,.35c2.47,1.21,4.59,2.57,6.54,4.15l-.06-.05c1.21,1.21,2.87,1.98,4.7,2.05h.07c1.59,0,3.06,.52,4.24,1.41h-.02c1.28,.87,2.78,1.54,4.39,1.91l.09,.02c2.16,.58,4.04,1.54,5.67,2.81l-.03-.03c1.41,1.11,3.07,1.99,4.87,2.55l.11,.03c1.66,.48,3.01,1.61,3.77,3.08l.02,.03c.66,1.27,1.65,2.29,2.85,2.97l.04,.02c1.25,.65,2.18,1.77,2.55,3.12v.04c.21,.67,.42,1.22,.66,1.75l-.04-.09c.7,1.78,2.38,3.02,4.36,3.07h0c3.58,.05,6.86,1.29,9.48,3.34l-.03-.03c.83,.49,1.82,.78,2.89,.78,.03,0,.06,0,.09,0h0c1.7,.07,3.18,.94,4.08,2.24v.02c1.18,1.6,2.41,3.15,3.55,4.79,1.82,2.47,4.73,4.06,8,4.06,2.26,0,4.34-.76,6.01-2.03l-.02,.02c3.41-2.57,7.72-4.11,12.39-4.11,.25,0,.51,0,.76,.01h-.04c1.11,.03,2.15,.31,3.07,.78l-.04-.02c2.18,.94,3.93,1.83,5.64,2.79l-.29-.15c1.3,.98,2.93,1.57,4.71,1.57,.32,0,.63-.02,.94-.05h-.04c.61,.02,1.19,.17,1.7,.42h-.02c1.45,.46,2.93,.85,4.32,1.42,1.4,.59,2.61,1.28,3.72,2.09l-.05-.04c.85,.78,1.98,1.26,3.23,1.26,.48,0,.94-.07,1.37-.2h-.03c.47-.12,1-.2,1.56-.2s1.09,.08,1.6,.22h-.04c.42,.08,.89,.14,1.38,.14s.97-.05,1.43-.15h-.04c.29-.07,.62-.11,.96-.11,1.14,0,2.17,.49,2.89,1.26h0c1.47,1.24,3.31,2.07,5.34,2.31h.05c2.54,.48,4.98,1.29,7.45,2.05,1.48,.41,2.91,.94,4.38,1.25,2.95,.47,5.59,1.51,7.9,3.02l-.08-.05c1.2,.82,2.65,1.38,4.22,1.55h.04c2.58,.35,4.91,1.2,6.96,2.46l-.08-.04c1.92,1.08,4.15,2.05,6.48,2.79l.26,.07c2.83,.96,5.26,2.09,7.55,3.42l-.19-.1c.85,.47,1.84,.84,2.88,1.05h.07c2.13,.52,3.94,1.69,5.23,3.29v.02c1.9,2.36,4.55,4.04,7.59,4.65h.08c3.31,.84,6.21,2.03,8.89,3.58l-.16-.09c2.79,1.72,6.15,3.52,9.61,5.12l.63,.26c1.27,.47,2.76,.83,4.3,1.03h.11c1.23,.03,2.33,.57,3.09,1.42h0c1.14,1.31,2.59,2.32,4.23,2.93l.07,.02c1.38,.55,2.57,1.24,3.64,2.07l-.03-.02c1.99,1.67,4.43,2.88,7.1,3.44l.11,.02c2.01,.55,3.75,1.25,5.38,2.12l-.14-.07c5,2.71,10.8,4.94,16.89,6.41l.49,.1c3.72,.92,6.97,2.62,9.68,4.92l-.03-.03c2.29,1.93,4.84,3.71,7.56,5.24l.25,.13c1.14,.63,2.09,1.48,2.83,2.49l.02,.02c.96,1.47,2.46,2.51,4.22,2.84h.04c1.2,.15,2.18,.95,2.59,2.03v.02c.47,1.37,1.54,2.42,2.88,2.86h.03c3.35,1.46,6.2,3,8.89,4.76l-.23-.14c1.04,.53,2.05,1.02,3.13,1.6,1.41,.8,2.85,1.62,4.22,2.48,3.2,2.23,5.83,5.02,7.82,8.26l.07,.12c.81,1.42,2.16,2.46,3.77,2.84h.04c3.45,.84,6.42,2.57,8.74,4.94h0c2.34,2.05,4.98,3.89,7.39,5.94,2.77,2.36,5.53,4.71,8.05,7.31,1.73,1.87,3.65,3.51,5.74,4.92l.12,.07c1.34,.79,2.47,1.79,3.38,2.96l.02,.03c2.11,2.8,4.33,5.27,6.73,7.55l.03,.03c1.47,1.44,2.62,3.21,3.31,5.19l.03,.09c.57,1.66,1.29,3.26,1.86,4.92,.36,1.28,1.31,2.28,2.53,2.7h.03c1.8,.62,3.2,1.99,3.84,3.73v.04c.96,2.28,3.09,3.9,5.62,4.1h.02c.72,.14,1.35,.42,1.9,.81h-.02c.8,.48,1.52,1.07,2.29,1.59,1.39,.87,2.4,2.24,2.8,3.85v.04c.33,1.56,1.09,2.9,2.16,3.93h0c1.18,.91,1.93,2.32,1.93,3.91,0,.77-.18,1.5-.49,2.14v-.03c-.19,.47-.31,1.02-.31,1.6,0,.28,.03,.56,.08,.83v-.03c.07,.68,.11,1.47,.11,2.27,0,2.87-.55,5.61-1.56,8.11l.05-.15c-.9,3.01-1.72,6.14-2.6,9.09-.12,.3-.2,.64-.2,1.01,0,.88,.42,1.65,1.07,2.14h0c1.21,.76,2,2.08,2,3.58,0,.99-.34,1.9-.92,2.62h0c-.57,.89-.91,1.98-.91,3.15,0,1.1,.3,2.13,.82,3.02l-.02-.03c.64,1.27,1.01,2.77,1.01,4.35,0,1.26-.23,2.46-.66,3.56l.02-.07c-.47,1.43-.74,3.07-.74,4.78,0,.63,.04,1.26,.11,1.87v-.07c.03,.31,.05,.66,.05,1.02s-.02,.72-.06,1.07v-.04c-.19,2.32-.3,5.01-.3,7.73s.11,5.42,.33,8.08l-.02-.35c.3,2.58,1.26,4.89,2.71,6.82l-.03-.04c1.41,2.25,6.66,2.97,8.42,.49,.6-.78,1.27-1.45,2.02-2.03l.03-.02c.42-.44,1.02-.71,1.67-.71,.34,0,.67,.08,.96,.21h-.01c.52,.34,1.15,.55,1.84,.55,1.43,0,2.65-.9,3.11-2.17v-.02c.32-.4,.65-.76,1.02-1.08h0c.7,0,1.39,0,2.05,.18,.23,.06,.49,.1,.76,.1,1.23,0,2.28-.72,2.78-1.76v-.02c.67-1.42,2.09-2.38,3.73-2.38,.46,0,.91,.08,1.33,.22h-.03c1.09,.17,2.02,.37,2.92,.63l-.18-.04c2.05,.64,4.22,1.33,6.31,2.05,.31,.12,.67,.18,1.04,.18,.75,0,1.43-.27,1.96-.72h0c.87-.88,2.08-1.42,3.41-1.42,.64,0,1.25,.12,1.8,.35h-.03c.26-.05,.57-.07,.88-.07,2.54,0,4.73,1.55,5.66,3.75l.02,.04c.46,.73,.97,1.36,1.54,1.93h0c1.26,1.45,2.27,3.15,2.95,5.01l.04,.11c1.16,3.15,2.49,5.85,4.07,8.39l-.11-.2c.95,1.75,1.79,3.79,2.42,5.91l.06,.23c.45,1.21,.7,2.5,1.23,3.64,.62,1.24,.98,2.71,.98,4.26,0,.67-.07,1.32-.19,1.94v-.06c-.12,1.06-.31,2-.55,2.91l.03-.14c-.73,2.24-1.15,4.81-1.15,7.48,0,.16,0,.33,0,.49v-.02c-.05,.42-.07,.9-.07,1.39,0,2.1,.48,4.09,1.34,5.86l-.03-.08c.31,.64,.49,1.39,.49,2.19,0,.69-.14,1.34-.39,1.94v-.03c-.28,.94-.44,2.01-.44,3.13,0,.11,0,.22,0,.33v-.02c.13,2.1,1.08,3.95,2.53,5.26h0c1.46,1.49,3.21,2.68,5.16,3.47l.1,.04c1.66,.51,3.09,1.32,4.29,2.39h-.01c.73,.7,1.74,1.14,2.84,1.14,.25,0,.49-.02,.73-.06h-.03c.53-.06,1.13-.1,1.75-.1s1.22,.04,1.82,.11h-.07c1.77,.1,3.17,1.56,3.17,3.35,0,.45-.09,.88-.25,1.28v-.02c-.16,.68-.44,1.33-.61,2.05-.17,.6-.27,1.29-.27,2.01,0,2.87,1.57,5.37,3.9,6.7l.04,.02c.69,.42,1.51,.84,2.36,1.21l.14,.05c3.87,1.64,7.02,4.35,9.15,7.76l.05,.08c.8,1.45,2.13,2.53,3.72,2.98h.04c1.86,.54,3.38,1.74,4.3,3.33l.02,.03c1.59,2.47,3.96,4.32,6.75,5.22l.09,.02c2.68,.89,4.98,2.29,6.89,4.1h0c1.4,1.35,3.18,2.31,5.18,2.69h.06c2.31,.39,4.33,1.41,5.93,2.88h0c1.09,1.01,2.5,1.69,4.06,1.87h.03c2.21,.33,4.4,.72,6.57,1.15,.77,.1,1.46,.34,2.08,.69h-.03c2.27,1.4,4.59,2.79,6.74,4.43,1.6,1.22,3.59,2.02,5.76,2.19h.04c6.1,.49,11.23,4.23,13.7,9.47l.04,.1c.31,.54,.49,1.2,.49,1.89,0,1.06-.42,2.02-1.11,2.72h0c-.91,.99-1.46,2.32-1.46,3.78,0,.11,0,.22,.01,.33v-.02c.04,.21,.06,.45,.06,.69,0,2.13-1.63,3.88-3.71,4.08h-.02c-.18,0-.35,.29-.66,.59,2.05,1.91,1.29,4.22,.86,6.47-.35,1.72-.82,3.4-1.23,5.12-.71,2.84-2.36,5.21-4.59,6.84l-.03,.02c-1.69,1.25-3.06,2.83-4.06,4.64l-.04,.07c-.88,1.58-2.03,2.9-3.41,3.93l-.03,.02c-.99,.67-1.83,1.46-2.54,2.35l-.02,.02c-2.74,3.91-6.66,6.57-9.99,9.85-2.11,2.28-4.58,4.19-7.33,5.66l-.15,.07c-.85,.46-1.54,1.11-2.03,1.9v.02c-.83,1.29-2.02,2.29-3.43,2.85l-.05,.02c-1.46,.53-2.59,1.66-3.12,3.08v.04c-.73,1.66-1.95,2.98-3.47,3.81l-.04,.02c-1.28,.88-2.77,1.75-4.32,2.54l-.23,.11c-3.91,1.76-7.25,4.07-10.1,6.89h0c-1.41,1.31-3.04,2.41-4.82,3.24l-.12,.05c-1.66,.65-2.94,1.95-3.55,3.58v.04c-.98,2.6-2.68,4.75-4.86,6.24l-.04,.03c-4.04,2.96-7.6,6.04-10.91,9.37h0c-1.24,1.37-2.87,2.37-4.71,2.82h-.06c-1.3,.29-2.36,1.15-2.92,2.3v.03c-.83,1.56-1.75,3.05-2.47,4.65-.61,1.42-1.67,2.56-2.99,3.26l-.04,.02c-3.97,2.05-7.89,4.1-11.9,6.04-1.79,.84-4.07,1.73-6.4,2.5l-.48,.14c-1.41,.36-2.62,1.08-3.58,2.05h0c-.44,.55-.97,1-1.57,1.34h-.03c-2.87,1.32-5.78,2.55-8.68,3.78-1.82,.78-3.75,1.37-5.51,2.25-1.64,.91-3.56,1.54-5.6,1.78h-.07c-1.6,.08-3.06,.63-4.26,1.52l.02-.02c-1.25,1.01-2.86,1.62-4.62,1.62-.1,0-.21,0-.31,0h-.02c-1.83,0-3.48,.79-4.63,2.04h0c-2.42,2.24-4.98,4.29-7.46,6.46-1.2,1.03-2.61,1.85-4.15,2.39l-.09,.03c-5.56,2.22-10.3,5.43-14.2,9.45h-.01c-2.21,2.16-4.79,3.95-7.63,5.27l-.17,.07c-1.27,.52-2.75,.82-4.29,.82-.05,0-.1,0-.16,0h0c-2.32,.02-4.45,.78-6.17,2.07l.03-.02c-2.53,2.11-5.73,3.49-9.23,3.8h-.41c-3.93-.61-7.64,.86-11.47,1.17-2.34,.07-4.38,1.3-5.58,3.13l-.02,.03c-.51,1.02-1.54,1.7-2.74,1.7-.42,0-.81-.08-1.17-.23h.02c-.9-.25-1.93-.4-3-.4-.79,0-1.56,.08-2.3,.23h.07c-.49,.06-1.06,.1-1.64,.1-1.02,0-2.02-.13-2.96-.38l.08,.02c-2.27-.53-4.59-.9-6.88-1.37-3.2-.45-6.07-1.58-8.55-3.24l.07,.05c-1.36-.94-3.04-1.5-4.85-1.5-.3,0-.59,.02-.88,.04h.04c-.21,0-.45,.01-.7,.01-1.6,0-3.14-.24-4.6-.68l.11,.03c-1.18-.32-2.54-.51-3.94-.51-2.68,0-5.2,.68-7.4,1.88l.08-.04c-1.13,.65-2.49,1.04-3.94,1.04-.26,0-.52-.01-.78-.04h.03c-.08,0-.17,0-.27,0-.64,0-1.25,.11-1.82,.33h.04c-1.7,.42-3.4,.87-5.08,1.4-.97,.28-1.81,.67-2.58,1.17l.04-.02c-2.7,1.76-4.99,3.89-6.87,6.34l-.05,.07c-2.43,3.6-5.77,6.41-9.71,8.14l-.15,.06c-1.91,.84-3.53,1.73-5.06,2.74l.13-.08c-3.04,2-5.35,4.89-6.58,8.3l-.04,.12c-.55,1.59-1.18,2.94-1.91,4.22l.07-.12c-.64,1-1.39,1.86-2.26,2.59h-.02c-1.31,1.18-2.72,2.25-4.1,3.33-.6,.53-1.27,1.01-1.99,1.42l-.06,.03c-4.32,2.05-8.62,4.4-13.5,4.81-3.69,.13-6.92,1.96-8.97,4.72l-.02,.03c-1.16,1.6-2.97,2.67-5.04,2.8h-.02c-2.43,.39-4.58,1.41-6.33,2.88l.02-.02c-1.52,1.09-2.86,2.2-4.12,3.38l.02-.02c-.82,.66-1.5,1.45-2.03,2.34l-.02,.04c-2,3.55-4.65,6.5-7.81,8.79l-.08,.05c-1.69,1.44-3.17,3.03-4.47,4.78l-.05,.08c-2.86,3.96-7.45,6.51-12.63,6.55h0c-2.25,.02-4.36,.58-6.22,1.55l.08-.04c-1.25,.64-2.48,1.31-3.73,2.05-1.33,.77-2.93,1.23-4.64,1.23h-.07c-2.85,.05-5.51,.8-7.83,2.09l.08-.04c-2.29,.95-3.91,3.09-4.1,5.63v.02c-.01,1.85-.89,3.5-2.24,4.56h-.01c-.44,.4-.82,.83-1.15,1.3l-.02,.02c-.77,1.17-1.94,2.02-3.3,2.39h-.04c-1.6,.55-2.92,1.54-3.88,2.81l-.02,.02c-3.6,3.81-5.73,8.54-8.46,12.9-.72,1.6-2.09,2.8-3.77,3.29h-.04c-1.24,.4-2.25,1.23-2.85,2.32v.03c-.45,.58-.71,1.32-.71,2.11,0,.19,.02,.37,.04,.55v-.02c.24,1.84,.39,3.71,.51,5.57,.18,2.58,.23,5.16,.51,7.72,.06,.51,.09,1.11,.09,1.71,0,2.48-.57,4.83-1.59,6.92l.04-.09c-1.13,2.46-2.48,4.79-3.79,7.15-1.17,2.07-2.96,3.68-5.11,4.58l-.07,.03c-3.34,1.52-5.84,4.41-6.82,7.92l-.02,.09c-.2,.66-.43,1.33-.59,2.05-.61,2.64-1.92,4.91-3.71,6.7h0c-1.71,1.59-2.77,3.85-2.77,6.35,0,.33,.02,.66,.05,.98v2.42c.05,.37,.08,.8,.08,1.23,0,2.28-.8,4.38-2.14,6.02v-.02c-.44,.63-.8,1.37-1.04,2.16v.05c-.51,1.34-1.71,2.3-3.15,2.46h-.02c-.92,.12-1.74,.29-2.53,.52l.11-.03c-.38,.15-.81,.23-1.27,.23-.66,0-1.27-.18-1.8-.49h.02c-.28-.16-.6-.3-.93-.41h-.03c-.37-.2-.81-.31-1.28-.31-1.4,0-2.57,1-2.82,2.33v.02c-.14,.29-.24,.63-.29,.99v.02c-.54,3.19-1.69,6.03-3.33,8.52l.05-.08c-.37,.69-.74,1.27-1.14,1.83l.03-.05c-.92,1.35-1.92,2.64-2.79,4.1-1.02,2-2.76,3.52-4.88,4.2l-.06,.02c-1.52,.42-2.74,1.45-3.41,2.79v.03c-1.26,2.06-2.77,3.82-4.55,5.28l-.04,.03c-.47,.51-1.02,.93-1.65,1.23h-.03c-3.46,1.24-6.14,3.72-9.38,5.42-1.03,.56-2.23,1.02-3.49,1.31l-.1,.02c-.27,.1-.58,.16-.91,.16-1.32,0-2.41-.94-2.65-2.19v-.02c-.52-1.21-.83-2.62-.83-4.1,0-.62,.05-1.23,.16-1.82v.06c.14-.68,.22-1.46,.22-2.26,0-1.4-.26-2.73-.73-3.96l.03,.08c-.41-1.29-1.06-2.4-1.91-3.33h0c-2.17-2.38-4.83-4.28-7.82-5.53l-.14-.05c-1.62-.48-2.95-1.52-3.79-2.9l-.02-.03c-1.64-2.73-4.1-4.83-7.05-5.95l-.1-.03c-.57-.21-1.04-.54-1.41-.98h0c-2.31-2.58-5.58-4.26-9.24-4.49h-.04c-5.24-.95-9.92-2.54-14.25-4.71l.3,.14c-.95-.48-1.74-1.18-2.32-2.03v-.02c-.79-1.04-1.73-1.9-2.82-2.56l-.04-.02c-1.82-1.04-3.6-2.19-5.45-3.22-1.73-.95-3.22-2.04-4.56-3.29h.01c-.99-.92-2.11-1.71-3.34-2.35l-.08-.04c-2.16-1.03-3.91-2.63-5.09-4.62l-.03-.05c-1.01-1.76-2.87-2.93-5.02-2.93-.07,0-.14,0-.22,0h.01c-2.96-.22-5.68-.65-8.32-1.28l.36,.07c-2.59-.75-4.78-1.57-6.88-2.54l.3,.12c-1.44-.69-3.13-1.09-4.91-1.09-.07,0-.15,0-.22,0h.01c-.05,0-.12,0-.18,0-.55,0-1.07-.11-1.54-.3h.03c-.95-.38-2.06-.6-3.22-.6-.7,0-1.37,.08-2.02,.23h.06c-.28,.06-.6,.11-.92,.11-.91,0-1.74-.33-2.38-.88h0l-.29-.22c-1.64-1.43-4.1-.88-5.67-2.6-1.42-1.51-3.17-2.69-5.13-3.43l-.09-.03c-1.49-.66-3.01-1.33-4.55-1.84-1.95-.55-3.36-2.32-3.36-4.42,0-.04,0-.09,0-.13h0c-.02-.2-.03-.45-.03-.69s.01-.49,.03-.73v.03c.03-.3,.05-.66,.05-1.02,0-2.97-1.19-5.66-3.12-7.62h0c-1.59-1.63-2.88-3.56-3.78-5.69l-.05-.12c-.2-.59-.49-1.1-.87-1.54h0c-2.05-2.22-4.1-4.54-6.14-6.61-1.05-.89-1.85-2.04-2.32-3.34l-.02-.05c-.47-1.45-.9-2.91-1.31-4.38-.85-3.33-1.88-6.19-3.14-8.92l.13,.32c-1.05-2.21-1.92-4.78-2.46-7.46l-.04-.22c-.2-1.35-.32-2.91-.32-4.49,0-.63,.02-1.26,.05-1.88v.09c.11-.92,.17-1.98,.17-3.06,0-.27,0-.54-.01-.81v.04c-.04-.34-.07-.74-.07-1.15,0-1.94,.58-3.75,1.57-5.26l-.02,.04c.62-1.09,1.2-2.35,1.65-3.67l.05-.16c.17-.39,.27-.84,.27-1.31,0-1.02-.46-1.93-1.19-2.53h0c-1.01-.82-1.64-2.05-1.64-3.43,0-.97,.32-1.87,.85-2.6h0c1.04-2.04,2.25-4.08,3.48-6.48h0Z"/></svg>