<?xml version="1.0" encoding="utf-8"?>
<!-- Generator: Adobe Illustrator 24.0.0, SVG Export Plug-In . SVG Version: 6.00 Build 0)  -->
<svg version="1.1" id="Layer_1" xmlns="http://www.w3.org/2000/svg" xmlns:xlink="http://www.w3.org/1999/xlink" x="0px" y="0px"
	 viewBox="0 0 600 600" style="enable-background:new 0 0 600 600;" xml:space="preserve">
<style type="text/css">
	.st0{fill:#2289C1;}
	.st1{fill:#010101;}
	.st2{fill:#020202;}
	.st3{fill:#040404;}
	.st4{fill:#030404;}
	.st5{fill:#0B0C0C;}
	.st6{fill:#020303;}
	.st7{fill:#F7FAFB;}
	.st8{fill:#050505;}
	.st9{fill:#010202;}
	.st10{fill:#010201;}
	.st11{fill:#FFFFFE;}
	.st12{fill:#1C1617;}
	.st13{fill:#FEFEFE;}
	.st14{fill:#BFBDBD;}
	.st15{fill:#CFCDCC;}
	.st16{fill:#1D1718;}
	.st17{fill:#1E1919;}
	.st18{fill:#635E5F;}
	.st19{fill:none;}
</style>
<g>
	<g>
		<path class="st0" d="M264.52,585.93c-33.17,0-64.76,0.47-96.32-0.44c-5.48-0.16-13.07-4.83-15.84-9.63
			c-28.76-49.83-57.84-99.54-84.66-150.43c-35.18-66.75,12.24-159.12,89.47-176.98c64.12-14.83,118.55,12.68,155.4,80.1
			c3.86-6.59,7.16-12.11,10.35-17.69c33.07-57.86,104.42-81.7,166.12-55.48c59.87,25.44,92.34,92.46,74.8,155.04
			c-2.02,7.21-5.18,14.27-8.84,20.84c-26.15,46.96-52.79,93.65-78.7,140.75c-5.44,9.89-11.31,14.73-23.37,14.32
			c-28.38-0.99-56.81-0.32-87.4-0.32c8.49-33.04,16.1-64.24,24.85-95.12c1.53-5.39,7.43-9.95,12.1-13.98
			c18.7-16.11,37.85-31.68,56.55-47.79c13.75-11.85,16.26-27.38,5.73-37.96c-12.02-12.07-24.86-10.14-37.16,0.22
			c-21.78,18.34-44,36.21-65.09,55.32c-11.12,10.07-23.11,12.3-37.53,13.71c-32.6,3.2-58.78-5.82-81.22-29.94
			c-12.84-13.8-28.54-24.98-43.21-37.03c-15.76-12.96-30.14-13.48-40.04-1.94c-10.97,12.78-8.04,25.58,9.24,40.27
			c7.72,6.56,14.64,14.58,23.34,19.36C245.7,480.01,254.77,531.77,264.52,585.93z M313.44,353.34
			c-28.83-0.22-52.42,22.38-53.04,50.84c-0.63,28.37,24.44,53.9,52.77,53.74c27.83-0.15,51.72-24.3,51.95-52.49
			C365.34,377.05,342.04,353.56,313.44,353.34z"/>
		<path class="st0" d="M101.81,248.03c-38.19,0.08-67.59-29.42-67.13-67.35c0.45-37.05,29.8-65.79,66.98-65.6
			c36.79,0.19,67.01,30.37,66.51,66.41C167.65,218.82,138.59,247.95,101.81,248.03z"/>
		<path class="st0" d="M590.87,181.76c-0.08,37.22-28.56,65.99-65.58,66.24c-38,0.26-67.45-28.84-67.35-66.53
			c0.1-37.65,29.83-66.8,67.67-66.37C562.39,115.51,590.96,144.69,590.87,181.76z"/>
		<g>
			<path class="st0" d="M374.31,106.6c0.1,35.59-26.51,62.72-61.68,62.89c-35.18,0.17-62.27-26.82-62.41-62.19
				c-0.13-33.97,27.74-61.77,61.96-61.79C346.28,45.49,374.22,72.97,374.31,106.6z M269.22,109.38c0.5,2.58,1.19,6.67,2.11,10.71
				c0.64,2.79,2.21,5.58,5.38,4.08c1.43-0.68,2.7-4.26,2.21-5.99c-2.98-10.42-1.61-20.07,3.92-29.24c1.49-2.48,1.91-5.25-1.06-6.19
				c-1.59-0.51-4.8,0.9-5.85,2.43C271.3,91.92,269.57,99.7,269.22,109.38z"/>
			<path class="st0" d="M403.74,110.69c-4.97,0-9.98,0.32-14.9-0.18c-1.66-0.17-3.11-2.41-4.66-3.7c1.55-1.36,3.05-3.85,4.65-3.9
				c10.1-0.36,20.22-0.39,30.32,0c1.73,0.07,3.36,2.69,5.03,4.14c-1.67,1.22-3.27,3.32-5.04,3.48
				C414.04,111,408.88,110.69,403.74,110.69z"/>
			<path class="st0" d="M220.66,104.43c4.98,0,9.96,0.02,14.94-0.01c2.62-0.02,5.16,0.78,4.57,3.7c-0.33,1.65-2.76,4.02-4.32,4.08
				c-10.28,0.36-20.58,0.37-30.86,0c-1.6-0.06-3.12-2.61-4.67-4c1.63-1.26,3.18-3.43,4.92-3.6
				C210.34,104.11,215.51,104.42,220.66,104.43z"/>
			<path class="st0" d="M309.14,199.55c0-5.15-0.31-10.32,0.18-15.42c0.16-1.66,2.41-3.12,3.71-4.67c1.36,1.55,3.84,3.06,3.9,4.66
				c0.36,10.11,0.39,20.25,0,30.37c-0.07,1.72-2.69,3.35-4.13,5.02c-1.22-1.67-3.32-3.26-3.49-5.03
				C308.82,209.54,309.13,204.53,309.14,199.55z"/>
			<path class="st0" d="M315.42,16.08c0,4.98-0.01,9.96,0,14.94c0,2.65-0.95,5.12-3.84,4.43c-1.63-0.39-3.88-2.86-3.94-4.46
				c-0.36-10.11-0.39-20.25,0-30.36c0.07-1.72,2.69-3.34,4.14-5.01c1.21,1.68,3.31,3.27,3.47,5.05
				C315.73,5.76,315.42,10.93,315.42,16.08z"/>
			<path class="st0" d="M364.93,57.86c-1.01-0.86-2.57-1.58-3.02-2.73c-0.45-1.14-0.31-3.22,0.47-4.02
				c7.62-7.89,15.34-15.69,23.3-23.23c0.89-0.85,3.89-0.52,5.1,0.36c0.86,0.63,1.12,3.85,0.34,4.67
				c-7.68,8.06-15.61,15.87-23.52,23.71C367.07,57.15,366.16,57.31,364.93,57.86z"/>
			<path class="st0" d="M235.57,27.17c1.51,1.15,2.79,1.91,3.82,2.93c6.85,6.77,13.63,13.61,20.46,20.4
				c2.05,2.04,3.65,4.22,1.02,6.79c-2.39,2.33-4.49,1-6.43-0.95c-7.03-7.06-14.17-14.02-21.03-21.24c-1.08-1.13-1.41-3.5-1.17-5.16
				C232.37,28.94,234.27,28.19,235.57,27.17z"/>
			<path class="st0" d="M393.47,183.72c-0.88,1.02-1.62,2.56-2.78,3.02c-1.14,0.45-3.22,0.33-4.01-0.44
				c-7.88-7.62-15.66-15.33-23.19-23.29c-0.84-0.89-0.51-3.88,0.38-5.08c0.63-0.86,3.84-1.11,4.66-0.33
				c8.05,7.67,15.86,15.6,23.69,23.5C392.75,181.62,392.92,182.53,393.47,183.72z"/>
			<path class="st0" d="M263.85,161.32c-1.06,1.57-1.7,2.92-2.69,3.92c-7,7.09-14.07,14.11-21.1,21.17
				c-2.02,2.03-4.53,3.15-6.28,0.49c-0.86-1.31-0.46-4.66,0.68-5.87c6.92-7.39,14.14-14.51,21.44-21.52
				c1.09-1.04,3.23-1.55,4.77-1.36C261.75,158.28,262.62,160.02,263.85,161.32z"/>
		</g>
	</g>
</g>
</svg>
