<svg xmlns="http://www.w3.org/2000/svg" version="1.1" xmlns:xlink="http://www.w3.org/1999/xlink" xmlns:svgjs="http://svgjs.com/svgjs" width="512" height="512" x="0" y="0" viewBox="0 0 512.018 512.018" style="enable-background:new 0 0 512 512" xml:space="preserve" class=""><g><path d="M252.605 266.818a16.34 16.34 0 0 0 8.999 2.707c5.334 0 10.561-2.591 13.694-7.375 4.979-7.561 2.893-17.723-4.668-22.701-34.833-22.932-53.408-48.332-58.449-79.908-2.325-14.839.763-37.363 13.081-51.757 7.987-9.327 18.522-13.871 32.215-13.871 26.855 0 37.842 19.072 42.004 30.431 10.055 27.405 1.757 61.52-19.276 79.331-6.913 5.857-7.765 16.196-1.926 23.092 5.857 6.922 16.187 7.774 23.092 1.926 31.514-26.677 43.655-75.302 28.878-115.62-11.91-32.508-39.12-51.917-72.773-51.917-23.181 0-42.936 8.759-57.127 25.328-20.456 23.935-23.855 57.047-20.536 78.177 8.681 54.323 45.706 84.319 72.792 102.157z" fill="#000000" data-original="#000000" class=""></path><path d="M381.652 418.105H147.67c.595-73.385 5.13-95.181 7.162-101.269 4.473-13.392 22.852-27.166 38.942-36.164 14.537 22.897 37.62 36.546 63.277 36.546h.009c25.364-.009 48.252-13.649 62.718-36.537 16.09 8.999 34.443 22.773 38.907 36.147 5.769 17.332 5.44 41.702 5.174 61.28-.053 4.02-.107 7.854-.107 11.413 0 9.052 7.331 16.383 16.383 16.383s16.383-7.331 16.383-16.383c0-3.417.053-7.1.106-10.969.311-22.054.692-49.494-6.851-72.098-12.371-37.079-64.865-60.188-70.811-62.7a16.317 16.317 0 0 0-12.691-.036 16.416 16.416 0 0 0-8.901 9.043c-7.934 19.835-23.003 31.683-40.309 31.683h-.009c-17.394 0-33.049-12.141-40.877-31.683a16.42 16.42 0 0 0-8.901-9.043 16.352 16.352 0 0 0-12.691.036c-5.937 2.512-58.44 25.612-70.829 62.709-5.911 17.749-8.901 60.827-8.901 128.018 0 9.052 7.331 16.383 16.383 16.383h250.427c9.043 0 16.374-7.322 16.374-16.374-.002-9.054-7.333-16.385-16.385-16.385zM101.824 261.982c-22.728 0-41.214-23.784-41.214-53.009 0-29.198 18.486-52.955 41.214-52.955 11.635 0 23.163 6.727 30.085 17.545 5.067 7.925 11.928 24.778.923 48.625-3.79 8.218-.204 17.945 8.014 21.743 8.227 3.781 17.945.204 21.734-8.014 12.815-27.769 11.688-56.922-3.088-80.014-13.081-20.438-34.638-32.641-57.677-32.641-40.788 0-73.971 38.445-73.971 85.712 0 47.293 33.183 85.765 73.971 85.765 9.052 0 16.392-7.322 16.392-16.374-.001-9.053-7.331-16.383-16.383-16.383zM81.119 402.513H33.373c.728-16.223 2.201-40.344 4.872-54.526 3.461-18.513 13.419-28.958 21.166-34.461 7.393-5.236 9.123-15.46 3.878-22.835-5.236-7.393-15.451-9.132-22.835-3.878-10.383 7.366-28.665 24.334-34.407 55.13C1.29 367.209.057 416.411.003 418.487a16.428 16.428 0 0 0 4.659 11.839 16.376 16.376 0 0 0 11.724 4.934h64.732c9.052 0 16.383-7.313 16.383-16.365.001-9.052-7.33-16.382-16.382-16.382zM484.191 208.955c0-47.267-33.183-85.712-73.971-85.712-23.048 0-44.613 12.194-57.703 32.632-14.776 23.083-15.912 52.245-3.115 80.014 3.79 8.209 13.525 11.812 21.734 8.023s11.812-13.516 8.023-21.734c-11.005-23.855-4.127-40.699.941-48.625 6.931-10.818 18.459-17.545 30.112-17.545 22.728 0 41.214 23.758 41.214 52.955 0 29.224-18.486 53.009-41.214 53.009-9.052 0-16.383 7.331-16.383 16.383s7.331 16.383 16.383 16.383c40.778 0 73.97-38.472 73.979-85.783zM505.969 341.978c-5.52-29.792-22.879-46.583-32.73-53.932-7.251-5.396-17.519-3.923-22.932 3.328-5.405 7.251-3.914 17.528 3.328 22.932 7.357 5.485 16.809 15.762 20.128 33.697 2.671 14.164 4.144 38.277 4.872 54.491H430.88c-9.052 0-16.383 7.331-16.383 16.383s7.331 16.383 16.383 16.383h64.75c4.411 0 8.635-1.775 11.732-4.943a16.429 16.429 0 0 0 4.65-11.839c-.052-2.076-1.277-51.287-6.043-76.5z" fill="#000000" data-original="#000000" class=""></path></g></svg>