<svg xmlns="http://www.w3.org/2000/svg"  viewBox="0 0 50 50" width="100px" height="100px" fill="#2289C1"><path d="M 28.90625 8.96875 C 28.863281 8.976563 28.820313 8.988281 28.78125 9 C 28.316406 9.105469 27.988281 9.523438 28 10 L 28 10.84375 L 9.8125 10 C 8.804688 10 8 10.671875 8 11.5 C 8 12.328125 8.804688 13 9.8125 13 L 28 12.15625 L 28 14.40625 C 25.675781 15.105469 24.203125 16.585938 23.125 18 L 9.59375 18 C 8.820313 16.230469 7.039063 15 5 15 C 2.25 15 0 17.25 0 20 C 0 22.75 2.25 25 5 25 C 6.648438 25 8.121094 24.203125 9.03125 22.96875 C 12.183594 23.796875 16.347656 24.878906 20 25.78125 L 20 28 C 20 30.214844 20.566406 31.828125 21.71875 32.96875 C 23.550781 34.78125 26.558594 35.03125 30.125 35.03125 C 30.71875 35.03125 31.347656 35.007813 31.96875 35 C 32.632813 34.992188 33.304688 35 34 35 C 41.5 35 50 35 50 27 C 50 19.339844 39.984375 14 31 14 C 30.644531 14 30.328125 14.035156 30 14.0625 L 30 12.15625 L 48.1875 13 C 49.195313 13 50 12.328125 50 11.5 C 50 10.671875 49.195313 10 48.1875 10 L 30 10.84375 L 30 10 C 30.011719 9.710938 29.894531 9.433594 29.6875 9.238281 C 29.476563 9.039063 29.191406 8.941406 28.90625 8.96875 Z M 5 17 C 5.882813 17 6.671875 17.398438 7.21875 18 L 4.78125 18 C 3.832031 18 3.054688 18.746094 2.96875 19.75 C 2.882813 20.761719 3.554688 21.625 4.5 21.78125 C 4.644531 21.8125 5.589844 22.054688 6.8125 22.375 C 6.304688 22.757813 5.6875 23 5 23 C 3.332031 23 2 21.667969 2 20 C 2 18.332031 3.332031 17 5 17 Z M 38.5625 17.25 C 38.585938 17.25 38.601563 17.25 38.625 17.25 C 43.46875 18.914063 47.082031 22.070313 47.84375 25.625 C 46.742188 26.5625 44.496094 27 37 27 C 34.789063 27 34 25.578125 34 24.25 C 34 17.257813 35.441406 17.25 38.5625 17.25 Z M 48.09375 34.96875 C 48.019531 34.972656 47.945313 34.980469 47.875 35 C 47.503906 35.085938 47.210938 35.378906 47.125 35.75 C 47.128906 35.742188 47.105469 35.738281 47.09375 35.78125 C 47.070313 35.808594 46.992188 35.894531 46.65625 36.0625 C 45.925781 36.425781 44.121094 36.9375 40.375 36.9375 L 19.21875 36.9375 C 18.859375 36.933594 18.523438 37.121094 18.339844 37.433594 C 18.160156 37.746094 18.160156 38.128906 18.339844 38.441406 C 18.523438 38.753906 18.859375 38.941406 19.21875 38.9375 L 40.375 38.9375 C 44.289063 38.9375 46.359375 38.441406 47.5625 37.84375 C 48.164063 37.542969 48.546875 37.222656 48.78125 36.875 C 48.898438 36.703125 48.988281 36.523438 49.03125 36.375 C 49.074219 36.226563 49.0625 36.03125 49.0625 36.03125 C 49.078125 35.761719 48.984375 35.496094 48.804688 35.292969 C 48.621094 35.09375 48.363281 34.976563 48.09375 34.96875 Z"/></svg>