<svg xmlns="http://www.w3.org/2000/svg" version="1.1" xmlns:xlink="http://www.w3.org/1999/xlink" xmlns:svgjs="http://svgjs.com/svgjs" width="512" height="512" x="0" y="0" viewBox="0 0 511.998 511.998" style="enable-background:new 0 0 512 512" xml:space="preserve" class=""><g><path d="M504.501 436.875c-11.767 0-17.968 2.397-23.439 4.513-4.862 1.88-9.062 3.503-18.03 3.503-2.231 0-4.165-.101-5.889-.281-27.115-30.521-65.539-53.51-109.941-66.809 3.334-73.502 13.848-119.29 20.404-141.456l52.917 46.242a7.501 7.501 0 0 0 12.333-4.413c.249-1.49 5.852-36.73-15.156-56.371-3.177-2.97-6.76-5.391-10.722-7.285 6.33.336 13.26 1.472 20.74 3.808a7.501 7.501 0 0 0 8.803-10.78c-.175-.317-4.367-7.863-11.235-15.318-9.832-10.671-20.532-16.069-30.929-15.608-9.078.402-17.51 5.093-25.226 13.983-1.447-11.866-5.858-20.616-13.254-26.101-19.463-14.434-50.545 1.042-51.858 1.708a7.5 7.5 0 0 0 1.156 13.848c7.503 2.343 13.881 5.369 19.315 8.716a41.76 41.76 0 0 0-13.046-.015c-28.171 4.436-43.023 36.624-43.642 37.992a7.5 7.5 0 0 0 7.697 10.539l59.886-6.941c-2.556 4.733-5.388 10.488-8.317 17.352a7.5 7.5 0 0 0 6.895 10.446 7.5 7.5 0 0 0 6.901-4.558c5.213-12.213 10.029-20.521 13.202-25.405l.289-.033c-6.722 21.348-18.2 67.947-21.979 145.62a308.792 308.792 0 0 0-17.68-3.766c2.922-34.127 8.667-64.971 17.106-91.743a7.5 7.5 0 0 0-4.898-9.408 7.5 7.5 0 0 0-9.408 4.898c-8.681 27.537-14.612 59.099-17.657 93.9a329.57 329.57 0 0 0-43.838-2.924c-.378 0-.754.012-1.132.013-6.799-67.885-18.602-130.193-35.133-185.245a7.5 7.5 0 0 0-14.366 4.314c16.166 53.836 27.742 114.816 34.462 181.316-11 .533-21.838 1.62-32.468 3.211-.824-132.588-23.582-224.771-30.448-249.619a123.33 123.33 0 0 1 1.545-3.063c.719.327 1.439.663 2.159 1.008 3.523 7.548 9.505 21.333 16.418 41.305a7.503 7.503 0 0 0 7.087 5.049 7.5 7.5 0 0 0 7.088-9.956c-3.155-9.114-6.113-16.963-8.756-23.581 26.04 17.783 47.729 40.615 48.026 40.929a7.504 7.504 0 0 0 11.889-1.288c.64-1.068 14.032-23.969 5.95-52.918l43.596 1.19a7.5 7.5 0 0 0 6.842-10.988c-.86-1.635-21.518-40.123-60.881-45.901-13.858-2.035-28.091.253-42.599 6.801 11.792-9.482 27.401-18.831 47.846-25.868a7.5 7.5 0 0 0 .161-14.126c-2.114-.781-52.085-18.866-80.399 5.133a45.192 45.192 0 0 0-2.442 2.244c-9.228-10.748-22.23-15.394-33.782-11.417-11.518 3.964-18.927 15.647-19.596 29.79a45.46 45.46 0 0 0-3.308-.266c-37.087-1.474-65.342 43.521-66.527 45.438a7.5 7.5 0 0 0 8.82 11.035c20.27-6.977 38.249-9.201 53.36-8.991-15.341 3.783-27.877 10.716-37.49 20.789-27.468 28.781-20.062 71.829-19.733 73.648a7.5 7.5 0 0 0 12.156 4.449l33.629-27.77c11.447 27.791 36.097 37.599 37.259 38.046a7.505 7.505 0 0 0 6.648-.626 7.499 7.499 0 0 0 3.514-5.678c.039-.422 2.965-30.718 12.176-60.302 9.195 39.184 24.362 120.021 24.8 228.118-55.988 11.172-104.912 36.968-137.5 73.641-1.754.188-3.725.295-6.009.295-8.938 0-13.124-1.623-17.971-3.501-5.46-2.117-11.648-4.515-23.392-4.515a7.5 7.5 0 0 0 0 15c8.938 0 13.124 1.623 17.971 3.501 5.46 2.117 11.648 4.515 23.392 4.515 11.752 0 17.945-2.398 23.41-4.514 4.853-1.879 9.043-3.502 17.993-3.502 8.942 0 13.13 1.623 17.979 3.501 5.461 2.116 11.651 4.515 23.398 4.515 11.751 0 17.944-2.398 23.408-4.514 4.852-1.879 9.042-3.502 17.99-3.502 8.953 0 13.146 1.623 18 3.502 5.466 2.116 11.661 4.514 23.416 4.514s17.95-2.398 23.415-4.514c4.854-1.879 9.047-3.502 18-3.502s13.146 1.623 18 3.502c5.466 2.116 11.661 4.514 23.416 4.514 11.757 0 17.954-2.398 23.42-4.514 4.856-1.879 9.05-3.502 18.007-3.502 8.95 0 13.141 1.623 17.994 3.502 5.464 2.116 11.658 4.514 23.411 4.514 11.76 0 17.958-2.398 23.426-4.513 4.858-1.88 9.054-3.503 18.014-3.503 8.968 0 13.168 1.624 18.03 3.503 5.471 2.115 11.672 4.513 23.439 4.513s17.968-2.397 23.439-4.513c4.862-1.88 9.062-3.503 18.03-3.503a7.5 7.5 0 0 0 7.5-7.5 7.494 7.494 0 0 0-7.497-7.496zM394.999 191.607c.203-.009.404-.014.606-.014 5.72 0 11.386 3.665 16.166 8.23-13.227-1.274-24.522.477-33.45 3.141 5.501-7.238 11.131-11.103 16.678-11.357zm12.416 41.118c8.014 7.461 10.54 18.982 11.135 28.219l-41.437-36.209c13.299-1.052 23.461 1.619 30.302 7.99zm-118.225-12.12c5.587-7.268 14.004-15.361 24.586-17.027a26.004 26.004 0 0 1 4.058-.316c8.104 0 16.713 3.698 25.726 11.041l-54.37 6.302zm39.524-46.75c6.637-1.063 13.516-.81 18.246 2.71 4.506 3.353 7.066 9.745 7.637 18.859-5.907-7.267-14.268-15.114-25.883-21.569zm-75.337-21.76a378.078 378.078 0 0 0-18.341-16.551c-9.698-8.186-19.021-15.189-27.926-21.008l45.314 1.237c5.472 14.801 3.514 27.975.953 36.322zm2.224-76.762c19.593 2.837 33.923 16.518 42.072 26.669L193.65 99.164c21.914-18.609 42.703-26.618 61.951-23.831zm-63.037-31.424c7.97-6.769 18.907-8.911 29.567-8.911 5.017 0 9.973.475 14.525 1.165-29.105 14.198-46.689 32.538-56.748 46.524-.615-18.1 3.616-31.1 12.656-38.778zm-46.45 122.242a377.919 377.919 0 0 0-4.265 24.303c-7.156-5.022-16.821-14.218-21.607-29.186l34.953-28.864c-3.438 10.068-6.475 21.326-9.081 33.747zm-70.011 12.113c.174-13.02 3.049-32.619 16.744-46.912 12.421-12.964 31.535-19.484 56.994-19.484 2.123 0 4.291.045 6.501.136l-80.239 66.26zm41.752-93.128c-10.298 0-21.731 1.042-34.169 3.682.932-.982 1.903-1.971 2.911-2.956 8.77-8.571 22.224-18.667 36.593-18.074 11.85.487 23.186 8.129 33.841 22.773-10.04-2.934-23.254-5.425-39.176-5.425zm47.082-8.776c-7.187-8.673-14.808-14.975-22.831-18.87-.709-9.597 3.098-17.85 9.441-20.033 6.365-2.191 14.416 1.971 19.768 9.984-3.924 8.007-6.052 17.662-6.378 28.919zM421.56 436.875c-11.758 0-17.955 2.398-23.424 4.513-4.858 1.879-9.054 3.503-18.014 3.503-8.95 0-13.141-1.623-17.995-3.502-5.464-2.116-11.658-4.514-23.41-4.514-11.758 0-17.954 2.398-23.421 4.514-4.856 1.879-9.05 3.502-18.006 3.502-8.953 0-13.146-1.623-18.001-3.502-5.466-2.116-11.661-4.514-23.416-4.514s-17.95 2.398-23.416 4.514c-4.854 1.879-9.047 3.502-18 3.502s-13.146-1.623-18-3.502c-5.466-2.116-11.661-4.514-23.416-4.514-11.751 0-17.943 2.398-23.407 4.514-4.852 1.879-9.042 3.502-17.991 3.502-8.942 0-13.13-1.623-17.979-3.501-5.462-2.116-11.652-4.515-23.399-4.515-2.286 0-4.355.093-6.256.255 16.99-14.426 37.423-26.72 60.317-36.133 33.843-13.913 72.459-21.267 111.673-21.267 39.22 0 77.842 7.356 111.688 21.273 22.909 9.419 43.374 21.712 60.374 36.149a73.153 73.153 0 0 0-6.501-.277zM421.563 468.939c-11.76 0-17.958 2.398-23.426 4.513-4.858 1.88-9.054 3.503-18.014 3.503-8.95 0-13.142-1.623-17.995-3.502-5.464-2.116-11.658-4.514-23.41-4.514-11.758 0-17.954 2.398-23.421 4.514-4.856 1.879-9.05 3.502-18.006 3.502-8.954 0-13.146-1.623-18.001-3.502-5.466-2.116-11.661-4.514-23.416-4.514s-17.95 2.398-23.416 4.514c-4.854 1.879-9.047 3.502-18 3.502s-13.146-1.623-18-3.502c-5.466-2.116-11.661-4.514-23.416-4.514-11.751 0-17.943 2.398-23.407 4.514-4.852 1.879-9.042 3.502-17.991 3.502-8.942 0-13.13-1.623-17.979-3.501-5.461-2.116-11.652-4.515-23.398-4.515a7.5 7.5 0 0 0 0 15c8.942 0 13.13 1.623 17.979 3.501 5.461 2.116 11.651 4.515 23.398 4.515 11.751 0 17.944-2.398 23.408-4.514 4.852-1.879 9.042-3.502 17.99-3.502 8.953 0 13.146 1.623 18 3.502 5.466 2.116 11.661 4.514 23.416 4.514s17.95-2.398 23.415-4.514c4.855-1.879 9.047-3.502 18-3.502s13.146 1.623 18 3.502c5.466 2.116 11.661 4.514 23.416 4.514 11.757 0 17.954-2.398 23.42-4.514 4.856-1.879 9.05-3.502 18.007-3.502 8.95 0 13.141 1.623 17.994 3.502 5.464 2.116 11.658 4.514 23.411 4.514 11.76 0 17.958-2.398 23.426-4.513 4.858-1.88 9.054-3.503 18.014-3.503a7.5 7.5 0 0 0 .002-15z" fill="#000000" data-original="#000000" class=""></path></g></svg>