<svg xmlns="http://www.w3.org/2000/svg" id="a" viewBox="0 0 921.52 722.53" class="mdl-js"><defs><style>.b{fill:#ff9903;}</style></defs><path class="b" d="M136.89,153.97l13.27-1.78,18.92-20.68,14.13-.88,8.19-5.3,.88,.88,7.07,4.61,7.09-.9,22.53-9.73,13.27-9.89,12.55-2.66,8.19-11.84,27.42-.7,32.17-26.87,24.06-7.09,16.1-16.26,15.2-16.38,21.59-14.34,31.13-2.48,14.34-11.67,22.12,16.38,10.59,17.26,8.83,7.41,14.15,11.86,20.34,6.37,20.48,1.07,7.37-9.85v-9.01l-5.3-2.05,3.71-15.4,6.14-1.76,16.1-9.73,24.04,1.07,10.61,8.19,7.97,2.83,38.38-4.42,12.29,10.1h6.14l5.3-3.54,8.19-9.03,6.14,.9,21.4-.72,9.01-13.62,13.27,9.2,.88,7.25h6.14l4.42,5.49,7.09-3.54,5.3,3.73-4.42,9.01,25.83,2.05,6.14,6.37,7.07,5.49,10.61-6.37,14.34,6.53,30.17,23.63v12.74l9.73-1.76,17.67,11.84,15.05,22.81-7.97,4.42,10.61,15.38-1.95,7.27,5.3,11.84-2.83,19.11,3.54,1.76,16.08-2.64,5.33,8.19,5.12,30.95-7.07,12.55,5.3,6.37-3.73,14.5-16.1,16.28-.86,4.42-1.95,20.87-27.05,50.57,2.66,7.25-7.25,18.92-15.93,.9-10.77,3.52v3.73l4.47,25.31-3.89,40.84,5.14,32.54-13.27,4.44,4.24,10.08,17.88-8.19,1.95,2.05-6.37,12.45-2.83,8.19,4.4,24.58-4.67,27.85-4.53,2.87-6-9.2-14.34,2.66-4.42-10.96-5.3,.88-3.71,11.84-1.76,2.66-6.14-3.54-3.52,.88-7.25,9.91,4.42,6.37,11.67,.88,5.3-5.3,4.4,5.49-6.14,5.3,1.6,6.37,2.64,3.71-9.71,1.76-5.33,4.42,.72,6.37-19.46,5.3-6.37,12.74-21.5,6.98-1.95,12.74-9.73,1.76-3.71,4.42,5.3,12.74-6.14,1.76-13.27-3.71-6.37,.88-7.11,14.46-8.19,.9-4.42,10.77-12.55,.88-5.49,11.67-14.15,3.54-6.37,8.19h-7.95l-7.25,4.61-3.54,11.67-6.14,1.76-8.83-11-22.28-9.2-24.06-7.19-7.07-6.37-7.09-4.61-17.86,5.3-10.61-9.2-12.29-4.59-16.98-.88-12.58,13.43-25.8-9.2-7.97,6.37-40.88-19.29-16.98,.72-3.5-6.37-5.33,.88-16.08-5.47,1.04-7.25-10.77-2.85-2.66,1.78-4.51,4.57-3.71,14.5-10.79,1.78-3.36-7.25-14.15-17.22-11.67-.16-13.25-22.65-14.15-8.32v-6.35l-7.09-2.66-1.76-6.37-6.14,.88-3.54-4.59-3.36-22.65-8.19-1.95-15.03-4.59-9.73-17.33-7.09-4.42-22.28-4.77-23.16,1.76-29.37-6.55-17.67-21.91-9.73-3.73-41.74-7.41-14.15-15.57-47.74-62.01-10.61-13.62L0,380.7l13.43-20.7,4.77-32.77,5.49-17.1,18.76-9.91,11.65-14.34,27.81-19.78,16.1-14.5,3.5-9.05,4.59-10.79,2.05-18.21,10.63-32.44,18.1-27.13Z"/></svg>