<svg xmlns="http://www.w3.org/2000/svg" version="1.1" xmlns:xlink="http://www.w3.org/1999/xlink" xmlns:svgjs="http://svgjs.com/svgjs" width="512" height="512" x="0" y="0" viewBox="0 0 60 60" style="enable-background:new 0 0 512 512" xml:space="preserve" class=""><g><path d="M30.67 12.02c-.38-.34-.96-.34-1.34 0-.35.32-8.59 7.88-8.59 17.42 0 9.55 8.24 17.1 8.59 17.42.19.17.43.26.67.26s.48-.09.67-.26c.35-.32 8.59-7.87 8.59-17.42 0-9.54-8.24-17.1-8.59-17.42z" fill="#ff9903" data-original="#000000" class=""></path><path d="M12.37 16.93c-.14.45-3.5 11.11 1.27 19.38 2.93 5.07 8.17 7.94 11.89 9.43-2.77-3.26-6.79-9.23-6.79-16.3 0-3.77 1.14-7.23 2.62-10.13-4.01-2.21-7.64-3.01-7.83-3.05-.49-.11-1 .18-1.16.67zM41.26 29.44c0 7.06-4.02 13.03-6.77 16.29 3.71-1.49 8.94-4.36 11.87-9.42 4.77-8.27 1.41-18.93 1.27-19.38-.16-.49-.67-.78-1.16-.67-.19.04-3.83.84-7.84 3.05 1.49 2.9 2.63 6.36 2.63 10.13z" fill="#ff9903" data-original="#000000" class=""></path><path d="M11.91 37.31c-1.2-2.07-1.93-4.28-2.35-6.45-2.26.33-3.79.83-3.88.87-.49.16-.77.67-.66 1.17.09.38 2.22 9.43 9.16 13.31 2.76 1.55 5.81 2.02 8.51 2.02 1.15 0 2.24-.08 3.21-.21-4-1.45-10.47-4.61-13.99-10.71zM54.32 31.73c-.09-.04-1.62-.54-3.89-.87-.41 2.17-1.14 4.38-2.34 6.45-3.53 6.1-10 9.26-14 10.71.97.13 2.06.21 3.21.21 2.71 0 5.76-.47 8.52-2.02 6.93-3.88 9.07-12.93 9.15-13.31a.995.995 0 0 0-.65-1.17z" fill="#ff9903" data-original="#000000" class=""></path></g></svg>