<svg xmlns="http://www.w3.org/2000/svg"  viewBox="0 0 50 50" width="100px" height="100px" fill="#2289C1"><path d="M 46.875 17.894531 C 46.132813 15.605469 44.542969 13.746094 42.398438 12.65625 C 40.257813 11.5625 37.820313 11.371094 35.535156 12.113281 C 34.917969 12.3125 34.261719 12.691406 33.59375 13.167969 C 33.84375 12.386719 34 11.648438 34 11 C 34 6.039063 29.964844 2 25 2 C 20.035156 2 16 6.039063 16 11 C 16 11.648438 16.15625 12.386719 16.40625 13.171875 C 15.738281 12.691406 15.082031 12.316406 14.464844 12.113281 C 12.179688 11.371094 9.738281 11.5625 7.597656 12.65625 C 5.457031 13.746094 3.867188 15.609375 3.125 17.894531 C 1.59375 22.613281 4.183594 27.699219 8.902344 29.234375 C 9.515625 29.433594 10.257813 29.519531 11.074219 29.523438 C 10.414063 30.011719 9.867188 30.515625 9.488281 31.039063 C 6.570313 35.054688 7.464844 40.691406 11.480469 43.609375 C 13.074219 44.765625 14.925781 45.324219 16.757813 45.324219 C 19.542969 45.324219 22.292969 44.039063 24.050781 41.617188 C 24.429688 41.097656 24.742188 40.417969 25 39.644531 C 25.257813 40.417969 25.566406 41.097656 25.945313 41.617188 C 27.707031 44.039063 30.453125 45.324219 33.238281 45.324219 C 35.074219 45.324219 36.925781 44.765625 38.519531 43.609375 C 42.53125 40.691406 43.425781 35.050781 40.507813 31.039063 C 40.128906 30.515625 39.582031 30.011719 38.921875 29.523438 C 39.738281 29.519531 40.480469 29.433594 41.09375 29.234375 C 43.382813 28.492188 45.238281 26.902344 46.332031 24.761719 C 47.425781 22.617188 47.617188 20.179688 46.875 17.894531 Z M 15.855469 24.65625 C 14.542969 24.230469 13.824219 22.820313 14.25 21.507813 C 14.675781 20.195313 16.085938 19.476563 17.398438 19.902344 C 18.714844 20.328125 23.097656 24.382813 23.097656 24.382813 C 23.097656 24.382813 17.167969 25.085938 15.855469 24.65625 Z M 21.847656 33.59375 C 21.035156 34.710938 19.472656 34.957031 18.355469 34.144531 C 17.238281 33.332031 16.992188 31.769531 17.804688 30.652344 C 18.613281 29.535156 23.824219 26.617188 23.824219 26.617188 C 23.824219 26.617188 22.660156 32.476563 21.847656 33.59375 Z M 25 23 C 25 23 22.5 17.578125 22.5 16.195313 C 22.5 14.816406 23.617188 13.695313 25 13.695313 C 26.382813 13.695313 27.5 14.816406 27.5 16.195313 C 27.5 17.578125 25 23 25 23 Z M 31.644531 34.144531 C 30.527344 34.957031 28.964844 34.710938 28.152344 33.59375 C 27.339844 32.476563 26.175781 26.617188 26.175781 26.617188 C 26.175781 26.617188 31.386719 29.535156 32.199219 30.652344 C 33.007813 31.769531 32.761719 33.332031 31.644531 34.144531 Z M 34.144531 24.65625 C 32.832031 25.085938 26.902344 24.382813 26.902344 24.382813 C 26.902344 24.382813 31.285156 20.328125 32.601563 19.902344 C 33.914063 19.476563 35.324219 20.195313 35.75 21.507813 C 36.175781 22.820313 35.457031 24.230469 34.144531 24.65625 Z"/></svg>