<svg xmlns="http://www.w3.org/2000/svg" id="a" viewBox="0 0 921.44 616.94" class="mdl-js"><defs><style>.b{fill:#ff9903;}</style></defs><path class="b" d="M68.65,23.89h1.04v1.04h-1.04v-1.04Zm125.09,14.6v1.04h1.04l-1.04-1.04ZM68.65,10.33h1.04v1.04h-1.04v-1.04Zm-34.41,30.23l1.04,1.04v-1.04h-1.04Zm2.09-5.2h1.04l-1.04-1.04v1.04Zm248.12,140.74l-2.09,1.04h1.04l1.04-1.04h0Zm4.18,0h1.04l1.04,.51-2.09-1.56v1.04h0Zm-57.34-71.93h1.04v1.04h-1.04v-1.04Zm59.43,72.44l1.02,.8v-.27l-1.02-.53h0Zm308.57-44.3v-1.04l-1.04,1.04,1.04,1.04,1.04-1.04h-1.04Zm19.82,33.36l1.02-1.04v-1.04h-2.07v1.04h1.04v1.04Zm26.05,15.65h1.04v1.04h-1.04v-1.04Zm-166.81-72.99h1.04v1.04h-1.04v-1.04Zm-1.04,1.04h1.04v1.04h-1.04v-1.04ZM23.82,219.88l1.04,2.09,1.04-1.04h-1.04l-1.04-1.04h0Zm71.93,84.44h1.04v-2.07l-1.04,1.04v1.02ZM11.31,199.03h.68l-.68-1.04v1.04Zm.68,0l1.41,2.09-1.04-2.09h-.37Zm892.78,232.49h-1.04l1.04,1.04v-1.04Zm7.29-76.1v-2.05h1.04v-1.04h2.05v-1.04h2.05v-1.04h3.13v-1.04h1.11v-1.04h-1.04v-1.04h-1v1.04h-2.05l-1.04-1.04h-1v-1.02h-1.04v-4.1h-1.04v-3.13h1.04v-1.04h-1.04v-1.04h-1.04v-2.05h-2.05l-1.04-1.04v-1.04h-1.04v-1.04h-2.05v-1.04h-1.02v-2.05h-1.04v-2.05h-2.05v-1.04h-1.04v-1.02h-2.05v-3.13h-1.04v1.04h-1.04v-1.04h-3.11v-2.05h-1.04v-1.04h-1.04v1.04h-1.04v-1.04h-1.04l1.04-1.04h1.04v-2.05h2.05v-2.05h-1.04v-1.04h-1.04l-1.04-1.04h-3.36l-1.04-1.04h-1.04v-1.37l-1.04-1.04v-1h-3.11v-1.04h-1.04v1.04h-4.1v-1.04h-3.13l-1.02-1.04h-1.04v-1.04h-1.04l-1.21-.96h-1.04v-1.04h-1v-1.04h-3.13v-1.04h-2.05v-1.04h-.96l-1.04-1.04h-2.05l-2.05-1.04h-4.1v-1.04h-4.1l-1.04-1.04h-2.05v1.04h-1.04v1.04h-5.2v-1.04h-1.04v-1.04h-1.04v-1.04h-3.13v-1.02h-1.04v1.02h-1.04v1.04h-4.1v-1.04h-1.04v-1.02h-1.04v2.05h-2.05l-1.04-1.04v-1.02h-1.04v-1.04h-2.05v-2.05h-1.02v-1.04h-1.04v-1.04h-3.13v-1.04h-1.6v-2.05h-1.04v-2.05h-2.05l-1.04-1.02h-1.02v-2.05h-4.1v-1.04h-.98v1.04h-1.04v-1.04h-1.04v-1.04h-1.04v-1.04h-1.04l-1.04-1.04v-1.04h-1.02v1.04h-1.04v-1.04h-1.04v-2.05h-1.04v1.04l-1.04-1.04v-1.02h-3.13v-1.04h-1.04v-1.04h-1.04v-2.05h-2.05l-1.04-1.04h-1.04v1.04h-1.04l-1.04,1.04h-3.13v-2.05h-1.04v1.04h-1.02v1.04h-2.05v2.05h-1.04v1.04h-11.47v1.02l-2.09,2.09-2.09-2.09h-1.29l-1.04-1.02h-1l-1.02,1.02h-1.02v1.04h-1.04v-1.04h-1v-1.02h-1.04v-1.04h-1v-6.6l-1.04-1.04v-1.04h-2.05v-2.05h-1.04l-1.02-1.04v-1.04h-1.04v-3.2h-1.04v-1.04h-1.04v1.04l-1.04,1.04v1h-3.13v-1.04l-1.04-1.04v-3.13h-3.11v-2.05l1.02-1.04v-1.04h1.04v-2.05h-1.04v-3.13l-1.02-1.04v-3.11l-1.04-1.04v-3.13l-1.04-1.04h1.04v-1.04h-2.05v-1.04h-2.05v-1.04h1.04v-1.04l1.04-1.02h-1.04v-1.04h-1.04l-1.04,1.04h-2.05v-1.04h-1.04l-1.02,1.04h-10.45v-1.04l1.04-1.04v-4.1h1.04v-1.04h-1.04v-2.05h-1.04l-1.02,1.04v-1.04h-1.04v-1.04h-1.04v1.04h-1.04v2.05h-1.04v1.04h1.04l-1.04,1.04v1.04h-2.05l-1.04,1.04v1.04h-3.11l-1.04,1.04h-5.47v-3.13h-1.04v-1.04h-2.05v-1.04h-1v-1.04h-1.02v1.04h-1.04v-1.04h-1.04v3.13h-1.04v1.04h-3.13v-13.56h-1.04v-2.05h-1.04l-1.04-1.04h-1.02v-1.04h-2.05v-1.04h-1.04l-2.09,2.09v-2.05h-1.04v-2.05h-1.04v-1.04h-2.05v-1.04h-2.05l-2.09-2.09h-1.04l-1.04-1.04v-1.25h-1.04v-1.04h-1.04v-1h-1.04l-1.04-1.02v-1.02h-1.04v-1.04h-2.05v-1h-1.04v-1.04h-2.05v-1h-1.04v-1.04l-2.09-2.09v-2.05h-1.04l-1.04,1.02v1.04h-1.04v1.04h-1.02v-1.04l1.02-1.04v-2.05h1.04v-4.1h-1.04v2.05h-1.02v-1.04h-1.04v-1.04h-2.05l-1.04-1.04v-1.04h-2.05v-1.04h-3.13l-1.02-1.04v-1.04h-1.04v-1.02l-2.09-2.09h-1.04v-1.04h-1.04l-1.04-1.04h-4.1v-1.04h-2.05v-1.04h-1.04v-4.1h1.04v-1.04h-1.04v-7.31h-4.1v-1.04h-1.04v-1.04h-4.1l-1.04,1.04h-1.04v1.04h-3.13v-1.04h-2.05v-1.04h-1.04v-1.02h1.04v-3.13h1.04v-4.1l-1.04,1.04v-4.1h-1.04v-5.2h-2.05v-1.39l-1.04,1.04v-1.04h-2.05v1.04h-1.04v-2.05h-1.04v1h-1.04v-2.05h-1.04v1.04l-1.04-1.04v-2.05h-1.04v1.04h-1.04l-1.02,1.04h-1.04v-1.04h-1.04v-2.05h1.04v-3.3h-2.05v-1.04h-1.04v1.04h-1.04v-1.04h-4.1v-1.04l-1.02,1.04v-1.04h-2.05v-2.05l-1.04,1.04v1.04h-3.13v-1.04h-1.04v-1.04l-1.04,1.04v3.13h-1.04v2.05h-3.11v-1.04h-1.04v-1.04h-1.04v-1.04h-1.04l-1.04-1.04h-1.04v-1.04h-1.04v-1.04h-1.04v-1.04h-1.04v1.04h-2.05v1.04h-1.04v-1.04l-1.04,1.04v2.05h-1.04l-1.04,1.04h-1.04v1.04h-7.13l-2.09-2.09v-1.04h-1.04v-3.13h-1.04v-2.05h-1.04v-1.02h-2.05v-3.13h-2.05v-1.04h-1.04v-1.04h-2.05v1.04h-2.05v1.04h-1.04v-1.04h-1.04v1.04h-2.05v1.04h-2.05v1.04h-1.04v-1.04l-1.04,1.04h-1.04v1.04h-3.26l-2.09-2.09v1.04h-1.04v1.04h-1.02l-1.04,1.02h-5.22v1.04h-1.04v1.04h-5.2l-1.04-1.04h-1.04v-1.04h-2.05v-1.02h-1.04v-1.04h-1.04v-1.04h-2.05v-1.04l-1.02-1.04v1.04h-3.13v3.13h-2.05v-3.13l-1.04,1.04v-2.05h-1.04v-1.04l-1.04-1.04v1.04h-1.04v1.04h-2.05v1.04h-1.04v1.04h-1.04v1.04h-1.04v-1.04h-1.04v-1.04l-.88,.88-.16-.88h-1.04v-1.04h-1.04v2.05l-1.04,1.04v1.04h-2.05l-1.04-1.04h-1.04v4.1h-1.33v1.04h-2.05v1.04h-4.1v3.13h-1.04v-1.04h-1v-1.04h-2.05v-1.04h-2.05l-1.04,1.04h-5.2v-1.04h-1.04v3.13h-1.04l-1.04,1.04h-2.05v-1.04h-3.13v3.13h-1.04v1.02h-5.2v1.04h-1.04v1.21l-1.04,1.04h-2.05v1h-2.05v1.04h-2.05v1h-1.04v-1.04h-1.04v1.04h-2.05v3.13h1.04v1.02l-1.04,1.04h-1.04v2.05h-1.04l-2.09,2.09h-2.05v-1.04h-1.04v1.04h-1.04l-1.04,1.04v2.05h-1.04v1.04h-2.05v-1.04l-1.04,1.04v3.11h-1.04l-1.04,1.04h-1.02v1.04h-11.47l-3.13,3.13h-2.05l-1.04,1.04-1.04-1.04h-1.04v1.04h-3.11l1.04-1.04h-2.05v1.04h-1.04v-1.04l-1.04,1.04h-1.04v1.04h-1.04v1.04h-3.64v1.04l-1.04,1.02h-2.05v1.04h-1.04v1.04h-5.22l-1.04,1.04h-1.04l-1.02-1.04h-3.13v-1.04l-1.04-1.04h-1.04l-1.04-1.02v1.02h-3.13v1.04h-2.05v1.04h-1.07l-2.09,2.09h-1.04l-1.04,1.04v1.04h-1.04v1.04l-1.04,1.04h-1.04l-1.04,1.04h-3.11v1.02h-1.04v1.04h-1.04v1.04h-2.05v1.04h-2.05v1.04h-3.11v1.04h-1.04v-1.04h-1.04v1.04h-2.05v2.05h-3.13v1.04h-6.25l-2.05-1.04h-4.1v1.04l-1.04-1.04v1.04h-1.02v-1.04l-1.04,1.04-1.04-1.04h-1.04l-2.05-1.04h-3.52l-1.04-.78v.78l1.04,1.04,4.1,2.05v1.04h-1.04l-1.04,2.05-2.05-2.05h-1.04v1.02l2.05,1.04-1.04,1.04h-1.04v1.04l-2.05,1.04h-.92l-2.05,1.04-2.05-2.05-2.05-1.04-3.11-3.11v-1.04h1.02l1.04-1.04,1.04-3.13-4.1,2.05-1.04-2.05v-1.04l-1.04-1.04,1.04-1.04v-1.04h-1.04v-4.1h-1.04v-1.04l-1.04-1.04v-1.04l-1.04-1.04v-1.04l-1.04-1.04h-1.04v-1.04h-1.04v1.04h-3.11l-1.04-1.04-1.04-1.02v-1.04h-1.04v-2.05h-1.04v-2.05l-1.04-1.04h1.04v-3.13h-1.04v-6.14h-1.04v-3.13h-1.04v-1.27h-1.04v-1.04l-1.02-1.04v-1.02h-1.04v-3.03h-1.04v-1.04h-1.04v-1h-3.13v-1.04h-2.05l-1.04-1.04h-2.05l-1.04-1.04-2.05-1.04v-1.02h-1.04v-4.1h-1.04l-1.04-1.04v-3.13h1.04v-2.05h-1.04v-3.11l1.04-1.04h-1.04v-1.04h-1.04l-1.04-1.04h-1.04v-1.04l-1.02-1.04-2.05-1.04h-3.44v-1.04l1.04-1.02h-1.04v-3.13h-1.02v-1.04h-1.04v-2.05h-1v-1.04h-1.04l-1.04-1.04h1.04v-2.05h-1l-1.02-1.02v-1.04h-2.05v-1.04h-1.04l-1.04-1.04h-1.04v-1.04l-1.04-1.04h1.04v-2.05h-1.04v-2.05h-1.04v-5.57h1.04v-1.04h-1.04v-1l-1.04-1.04v-1h1.04v-3.11h2.05l1.04-1.04v-1.04h-1.04l-1.04-1.04h-2.05v-1.04h2.05v-1.04h-1.04v-4.1l1.04-1.02h-2.05v-1.04l-1.04,1.04h-1.02v1.02h-8.36l-1.04-1.02v-1.04h-1.04v-3.13l-1.02-1.04h-2.05v-1.04h-1.04v-3.13h-1.04v-2.05h-1.04v-1.04h-1.04v-6.27h-2.05v-1.04l1.04-1.04h-1.04v-1.02h-1.04v-1.04h-2.05v1.04h-1.04v2.05h-1.04v1.04h-1.04v1.04l-1.04,1.04h-2.05v-1.04h-1.04v-1.04h-1.04v-4.1h-1.04v-1.04h-1.02v-3.13h-1.04v-3.13h1.04v-1.04h-2.05v-2.05h-2.05v-2.05h-1.04v-1.04h-2.05v-1.37l-1.04,1.04h-1.04v1.04h-5.2l-1.04-1.04h-1.04v-2.05h-1.04v-1.04h-1.04v-1.04l-1.04-1.04h-1.04v-1.04h-1.02v-.96h-3.13l-1.04,1.02-1.04-1.02-1.04,1.02h-2.05v1.02h-4.1v-1.04h-1.04v-1h-2.05v-1.04h-1.04v-1h-1.04v-3.13h-3.69v-3.21h-1.02V1h-1.04v1.04h-1.04v1.04h-1.04v-1.04h-1.04v1.04h-2.05V1.04h-9.42V0h-3.13V1.04h-1.07V3.09h-1.02v1.04l-1.02,1.04v1.04h-1.04l-1.04,1.02v1.04h-1.04v1.04h-.96v4.1l-1.04,1.04h-1.04v-1.04h-1.04v-1.04h-1.04v-1.04h-2.05v-1.04h-2.05l-1.04-1.04h-1.04v1.04h-4.1v1.04l-1.04,1.04h-8.56l-1.04-1.04h-1.04l-1.04-1.04v-1.04h-1.02v1.04h-1.04v-1.04l-1.04,1.04v-1.04h-5.22v1.04h-2.05l-1.04-1.04h-1.02v2.05h-1.04l-1.04,1.04h1.04l-1.04,1.04h1.04l-1.04,1.04v1.25h1.04v1.04h-1.08v1h1.04v1.02h1.04v2.05h1.02l1.04,1.04v1.04h1.04v2.05l-1.04,1.04h-1.04v-1.04h-2.05v1.04h-1.07v2.05h-6.27v1.02h1.04v1.04h-1.04v1.04h-1.11v2.05h-1.04l-1.02,1.04v1.04h-1.04v1.04h-2.05v1.04h-3.03v-1.04l-1.04-1.04v-1.04h-1.04v-2.05h-1.04v4.1h-1.02v1.04h-3.21v1.04h-5.22v-1.04h-1.04v-1.04h-1.04v-1.04h-1.02v2.05l-1.04,1.04v1.04l1.04,1.02v1.04h-2.05v1.04h2.05v2.05l-1.04,1.04h-1.04v1.04h1.04v1.04h1.04v2.05l-1.04,1.02h-1.04l-2.09,2.09v1.04h2.05v2.05h-1v-1.04h-1.04v4.1h-2.05v1.04h-1.04v1.04h-1.04v1.02h1.04v2.05h-1.04v1.04h-2.05v1.04h1.02v1.04h1.04v1.04h-1.04v1.04l-1.02,1.04h-1.04l-1.04,1.04h1.04v1.02h-1.04v1.04h-1.04v1.56h-1.11v2.05h-1.04v2.05h-1.04v1.04l-1.04,2.05v5.2h-1.04v2.05h-1.04l-1.04,1.04v1.04l-1.02,1.04v5.2h-1.04v2.05h-1.04v3.13l-1.04,1.04v2.05h-1.04v1.04h-1.04v1.04h-1.04v1.04l-1.04,1.04v1.04h-1.04v1.04l-1.04,1.04v1.04h-1.02v21.01h-1.13v4.1h-1.04v2.05H1v1.04H0v2.05l1.04-1.04,1.04,1.04v4.1l-1.04,1.02v4.1H0v4.1l1.04,1.04v1.04h1v1.02l1.04,1.04h1v1.04h1.04l1.02,1.04h1.04v1.04h2.05v1.04h1.04v1.04h1.04v2.05l1.04,1.04v1.02l1.04,1.04v1.04h1.04v2.05h1.04v14.6h-1.04v2.05h1.04v5.63l-1.04,1.04v1.04h-1.04v2.05h-1.04v3.11h1.04l1.04,1.04h1.04v1.04h1.02v1.04h1.04v1.04h2.05v1.04l1.04,1.04v1.04h1.04v1.04h1.04v1.04l1.04,1.02,1.04,1.04h-1.04v2.05h1.04v1.04l1.04,1.04v2.05h1.04v1.04h1.02v1.04h1.04v1.04h1.04v1.02h1.04v2.05h1.04v1.04h1.04v1.04h1.04l1.04,1.04v3.13h1.04v1.04h2.05v1.02h1.04l3.13,3.13h1.04v1.04h1.04v1.04h1.04v1.04l1.04,1.04h1.04v1.04h1.04v1.35h1.02v1.04h1.04v1.02h1.04v1.04h1.31v.98l1.04,1.04h1v2.05h1.04v2.05h1v1.04l1.04,1.04h1v2.05l1.02,1.04,1.04,1.04v1.04l1.04,1.04v1.04h1.04v1.04l1.04,1.04h1.04v1.04h1.04l1.04,1.04h2.05l2.05,1.02h1.04l2.09,2.09h1.04v1.04h1.04v1.04h1.04v1.04h2.05v1.04h1.04v1.04l1.04,1.04h1.02v1.04h1.04v1.02l1.04,1.04v1.04h1.04v1.04l1.04,1.04v2.05h1.04v3.13l1.04,1.04v3.11l1.04,1.04v1.04h1.04v1.04l1.04,1.04h1.02v1.04h1.04v1.04h1.04v1.29h2.05v1.02h1.04v-1.02h1.04v1.02h1.04v1.02h2.05v1.04l1.02-1.04h1.04v-1.04h2.05v-1h1.04l1.04-1.04h6.14l1.39,1.04h3.13v1.02h1.04l1.04,1.04,2.05,1.04h1.04l1.04,1.04h1.02v1.04h1.04v.94h1.04l1.04,1.04h1.04v1h1.04v1.04l1.04,1.04h1.04v1.04h1.04v1.02h1.04l1.02,1.04,1.04,1.04h1.04v1.04h2.05l2.09,2.09h1.04l1.04,1.04h2.05v1.04h5.2l1.04,1.04h6.14l1.04,1.04h8.64l1.02,1.02h1.02v1.04h1.04l1.04,1.04h2.05v1.04h1.04v1.04h1.04v1.04h3.11v1.04h2.05v2.05h3.13v1.04h1.04v1.04h1.04v-1.04h1.04v2.05h2.05v1.04h1.02v1.04h1.04v1.04h2.05v1.04h1.04l1.04-1.04,1.04,1.04v1.04h1.04l1.04,1.04h1.04v2.05h1.02v1.04h1.04v1.02h1.04l1.04,1.04h1.04v1.04h1.04v-1.04h1.04v-1.04h5.2v1.04h1.04v-1.04h1.04l1.04-1.02v-1.04h4.1v-1.04l1.04-1.04h1.04v2.05h2.05v-3.13h1.35v-1.04h1.04v-1.04h1v-1.04h2.05v-2.05h1.04v-1.02l1.04-1.04v-2.05h2.05v-1.04h-1.04v-2.05h1.04v-1.04h1.02v-3.13h2.05v-1.02h2.05v-1.04h1.04v1.04h1.04v-1.04h1.04v-1.04l1.04-1.04h1.04v-1.04l1.02-1.04,1.04,1.04v-1.04h1.04l1.04-1.04h5.22v-1.04h6.25l1.04,1.04h3.13v1.04h6.25l2.05,1.04,1.04,1.04h2.05l1.04,1.04h1.04l1.02,1.04h1.04l1.04,1.04h1.04v1.02h2.05v1.04h2.05l1.04,1.04h1.04l1.02,1.04h1.04v1.04h1.27v1.04l1.04,1.04h1.04v1.04h1.04v1.04h1.04l1.04,1.04h1.04v1.04h1.04v1.02h1.04v1.04h1.02v1.04h1.04v1.04l1.04,1.04v4.1h1.04v5.2h1.04v3.13l1.04,1.04v4.1h-1.04v2.05h1.04l-1.04,1.04v1.04h1.04v2.05h-1.04v13.56h1.04v2.05h1.04v1.04l1.04,1.04v3.13h-1.04v1.04h1.04v2.05l1.04,2.05v7.31h1.04v3.13h1.02v2.05l3.13,3.13v1.04h1.04l1.04,1.04h1.04v1.04h1.04l-1.04,1.04v1.04l1.04,1.02v1.04h1.04v2.05h1.04v3.65h1.04v5.2h1.02v6.27l1.04,1.04v1.04h-1.04v1.04h1.04v4.1l-1.04,1.04v4.1h1.04v3.11l1.04,1.04v3.13h1.04v9.38h1.04v4.1h-1.04v3.13h1.04v1.02h1.04v5.22h-1.04v1.04h-1.04v2.05h1.04v1.04h-1.04v1.27h1.04v.96h1.04v2.05l-1.04,1.04v4.1h1.04v3.11l1.04,1.04h-1.04v2.05h1.04v2.05h1.04v3.13h1.04v3.11h-1.04v5.22h-2.05v1.04h1.04v1.04h-1.04l1.04,1.04h2.05v1.04l1.04,1.02-1.04,1.04v2.05l-1.04-1.04v2.05h-1.04v5.22l-1.04,1.04h-1.04l-1.04,1.02h-1.04v5.22h-1.04v1.04l-1.04,1.04h-3.11v1.04h-2.05v2.05h-1.04v2.05h2.05v2.05h2.05l1.04,1.04h1.02v1.43h1.04l2.09,2.09v1.04h1.04v1.04h1.04v3.11h1.04v1.04h1.04v2.05h2.05v1.04h1.02v2.05h1.04v1.04l1.04,1.02h-1.04v1.04h1.04v1.04h1.04v1.04h1.04v1.04l-1.04,1.04v2.05h1.04v5.2h-2.05l-1.04,1.04h-1.04v3.13h1.04v1.04h-1.04l1.04,1.04h-1.04v1.04h-1.02v2.05h1.02l1.04,1.04h3.13v3.13h1.27l-1.04,1.04h1.04v2.05h1.04v1.04h1v1.04h2.05v1.04h4.1v2.05h3.13v-1.04h1.04v1.04l1.04,1.04h1.04v-2.05h1.04v-1.02h1.04v-1.04h2.05v-2.05h1.04l-1.04-1.04v-1.04h1.04v1.04h1.04v1.04h1.04v1.04h1.04v1.04h3.13v1.04h1.04v1.02h1.02v1.04h1.04v3.34h1.04v5.22h-1.04v2.97l1.04,1.04v3.13h1.04v1.04l1.04-1.04,1.04,1.04h2.05v-1.04h7.29v1.04h1.04v1.04h-1.04l1.04,1.04v2.05h1.04v-1.02h1.04l-1.04,1.02h1.04v1.04h1.04v-2.05h2.05v-2.05h2.05v1.04h1.04v1.04h4.1l1.04,1.02v-1.02h1.04v1.02h3.4l1.04-1.02v1.02h2.05v-1.02h2.05v-1.04h2.05v2.05h1.04v1.04h2.05v1.04l1.04-1.04,1.04,1.04v-1.04h1.04v2.05h1.04v1.04h1.04l1.04,1.04h2.05v1.04h1.04v-2.05l1.04,1.04h2.05v-1.04h3.13v1.04h1.04v-1.04h1.04v-1.04h1.04l1.04-1.04h4.1v-1.04h5.22v-1.04h1.04v-1.02h1.04v-1.04h2.05v-1.04h1.04v1.04h1.04v-1.04h1.04v1.04l1.04-1.04v1.04h1.04v-2.05h1.04v-2.05h3.48v-1.04h1.02v1.04h4.1v-1.04h1.02v1.04h1.04v1.04h1v2.05h1.04v1.04h1v-1.04h2.05v-1.04h1.04v1.04h2.05v-3.13h1.04v1.04h1.04v-2.05h2.05v1.04l1.04-1.04v-1.04h2.05v1.04h1.04v-2.05l1.04,1.04v1.04h2.05l1.04-1.04h5.22l1.02-1.04h1.04l1.04,1.04h4.1l1.04,1.04h2.05v-1.04h1.02v1.04h1.04v-1.04h1.04l1.04,1.04h2.05v1.04h1.04v-1.04h2.05l1.04-1.04v1.04h1.04v1.04h2.05v-1.04h1.04v1.04h2.05l1.04-1.04h2.05v-1.04h2.05v-1.19h3.11l1.04-1.04h3.13v-1h1.04l1.04-1.02h1.04v-1.02h1.04l1.02-1.04h1.04v-2.05h1.04v-1h1.04v-2.05h2.05v-1.04h1.04l1.04-1.04h5.2v-1.02h2.05l1.04-1.04h1.04v-1.04l1.04,1.04h1.04l1.04-1.04h1.04v-1.04h2.05v-1.04h1.04v-1.04h2.05v-1.04h3.13v1.04h1.04l1.04-1.04h1.02v-1.04h3.13v-2.05h2.05v-1.04h1.91v-1.02h2.05v-1.04h1.04l1.04-1.04h1.02v-1.04h2.05v-1.04h-1.07l1.04-1.04h3.13v1.04h2.05v-2.05h1.04v-1.04h1.04v-1.04h1.02l1.04-1.04h2.05v-1.02h2.05v-2.05h2.05v1.04h1.04v-1.04h1.04l1.04,1.04v-1.04h1.02l1.04-1.04v-1.04h1.04l1.04,1.04h1.04v-1.04h1.04l1.04-1.04h1.04v-1.04h1.04v-1.04h2.05v-1.04h2.05v-1.04h1.04v-2.05l2.09-2.09h3.13v-1.04h1.04v-1.04l1.04,1.04v-2.05h2.05v-1.04h3.13v-1.04h2.05v-1.04h2.05v-1.04h3.11v-1.02h1.41l1.04,1.02h3.05v-1.02h1.04v-1.04h1.04v-1.39h2.05l1.02-1.04h1.04v1.04h1.04l1.04-1.04h2.05l1.04-1.04h9.38v1.04h1.04v1.04h8.34v-1.04h2.05l1.04,1.04v2.05h1.04v1.02h-1.04v1.04h1.04v1.04h1.04v1.04h5.2v1.04h3.13v-1.04l-1.04-1.04h1.04v-1.04h1.04v1.04l1.04-1.04h1.04v-1.04h2.05l1.04,1.04v3.13h3.36v-2.05h1.04l1.04-1.04h1.04l1.04-1.04h1.04l1.04-1.02h1.02l1.04-1.04h1.04v-1.04h7.31l1.02,1.04h2.05l1.04-1.04h2.05v2.05h1.04v2.05h1.04l1.04,1.04v1.04h1.04v2.05h1.04v2.05h1.02v-1.04h1.04v-1.04h-1.04v-2.05h1.04l1.04-1.04h1.04v1.04h1.04v1.04l1.04,1.04v-1.04l1.04-1.04v-3.13h2.05v-1.02h2.05l1.04,1.02h4.1v-4.1h1.04v-.96h1.04v-1.04h1.04v-2.05l1.04-1.04h1.04l1.02-1.04h2.05v1.09h3.13v-1.04h1.31v-1h1.04l1.04-1.02,1.04-1.04h1.02v-1.04h1.04l2.09-2.09v-1.04h1.04v-5.2h2.05v1.02l1.04-1.02v-1.04h1.04v-1.04h2.05v1.04h5.2v-1.04h2.05v-1.04h4.1v1.04h4.1v-2.05h3.13v-1.04h2.05v-1.04h1.04v1.04h1.02v-1.04h1.04v-1.04h1.04v-1.04l1.04-1.04h1.04v-1.04l1.04-1.02h2.05v-1.04h1.04v-1.04l1.04-1.04,1.02-1.04h4.1l1.04,1.04h2.05v1.04h1.04v2.05h2.05v1.02l1.02-1.02h1.04v1.02h7.31v1.04l1.04-1.04v-2.05h7.29v-1.04h1.04v1.04h1.04v-2.05l1.04-1.04h2.05v-1.04h5.22l1.04,1.04v-2.05h2.05v-1.04h1.04v-1.04h1.04v-1.04h-1.04v-2.05h-1.04v-1.04h1.04v-1.04h-1.04v-2.05h2.05v1.04h2.05v-1.04h1.04v-2.05l1.04,1.04v-2.05h1.04v-1.04h1.04l-1.04-1.04v-6.25h1.04v-1.41l1.04-1.04v-1h2.05l1.04-1.04h1.02v-1h1.04v-1.04h1.04v-3.13h2.05l1.04-1.04h1.04v-2.05h2.05v-2.05h1.84l1.04-1.04v-2.05h2.05v-1.04h2.05l1.04-1.04h1.04v1.04h2.05l1.04-1.04h1.04v-1.04l1.02-1.04,1.04-1.04h3.13v1.04h3.13v1.04h1.04v-1.04h1.04v-1.04h1.04v-1.04h2.05v-1.04h1.04v-2.05h2.05v-1.04h-1.04v-1.04h1.04v1.04h1.04v-1.04h1.04v-1.04h-1.04l1.04-1.04v1.04h1.04v-3.13l1.04-1.04h1.04v-1.04h1.02v-1.04h1.04v-2.05h3.13v-2.05l-1.04-1.04h1.04v-2.05l1.04-1.04h-1.04v-1.04h1.04v-3.13l1.04-1.02h1.04v-1.04h1.04v1.04h1.04v-2.05l1.04-1.04h-1.04v-2.05h1.04v1.04h3.11v-1.04h-1.04l1.04-1.04h-1.04v-1.04h2.05l1.04,1.04h1.04v-15.97h1.04v-1.04h2.05v1.04h1.33v-2.05h1.02v-1.04h-1.02v-1.04h1.02v-1.04h-1.02v-1.04h1.02v-4.1h1.02v-1.04h-1.04v-1.04h-2.05v-1.04l-1.04-1.04h1.04v-1.04h-1.04v-1.04h1.04v-1.04h-1.04v-1.04h3.11v-5.2l1.04-1.04h-1.04v-2.05h1.02v-4.1h-1.04v-1.02h1.04l-1.04-1.04v-3.13h1.04v-1.04h-1.04v-1.04h1.04v-1.04h-1.04v-1.04h1.04v-2.05h-1.04v-1.33h1.04v-1.04h2.05v-1h-1.04l1.04-1.04h2.05v-3.05h-1.04v-1.04h-1v1.04h-1.04l-1.04,1.04h-2.05v-2.05h-1.04v-1.04h-1.04v-2.05h-1.04v-2.05l-.04-.18Zm-199.13,43.79l-4.1-4.1,4.1,4.1Zm129.27,96.95h-1.04l1.04,1.04v-1.04Zm-523.35,41.7h1.04v1.04h-1.04v-1.04Zm306.5,11.47l-1.04-1.04v1.04h1.04Z"/></svg>