<svg xmlns="http://www.w3.org/2000/svg"  viewBox="0 0 50 50" width="100px" height="100px" fill="#ff9903"><path d="M 25 1.8125 C 15.296875 1.8125 7.40625 9.703125 7.40625 19.40625 C 7.40625 30.628906 18.121094 41.523438 23.875 47.375 L 25 48.53125 L 26.125 47.375 C 31.878906 41.527344 42.59375 30.636719 42.59375 19.40625 C 42.59375 9.703125 34.703125 1.8125 25 1.8125 Z M 22.59375 12 L 27.40625 12 C 27.804688 12 28.113281 12.292969 28.3125 12.59375 L 29 14 L 32 14 C 33.101563 14 34 14.898438 34 16 L 34 24 C 34 25.101563 33.101563 26 32 26 L 18 26 C 16.898438 26 16 25.101563 16 24 L 16 16 C 16 14.898438 16.898438 14 18 14 L 21 14 L 21.6875 12.59375 C 21.886719 12.195313 22.195313 12 22.59375 12 Z M 25 17 C 23.34375 17 22 18.34375 22 20 C 22 21.65625 23.34375 23 25 23 C 26.65625 23 28 21.65625 28 20 C 28 18.34375 26.65625 17 25 17 Z"/></svg>