<svg xmlns="http://www.w3.org/2000/svg" id="a" viewBox="0 0 942 744.53" class="mdl-js"><defs><style>.b{fill:#ff9903;}</style></defs><path class="b" d="M451.07,636.72l-141.7,33.93-61.87,5.98-23.96-71.84-4.1-25.95-39.92-63.88-31.93-13.97,3.99-25.95-21.85-33.93-7.99-17.96-17.96-15.95h-7.99l-7.99-15.97v-9.97l-15.97-7.99v-93.82l-25.93-29.94-29.94-21.95L0,217.58l79.87-11.98h55.85l27.96,7.99,15.95-4.1,23.96-2.05h36.02l2.05-7.99,17.96-9.97v-11.78l51.67-49.95,2.05-9.97,9.97-2.05v-27.89l33.93-31.93,5.98-9.97,43.93-27.98h7.99l11.98-9.97,17.96-7.99,17.96,4.1,25.95,19.97,19.97,29.94,9.97,5.98-7.99,11.98,19.97,7.97-6,13.99,21.89,7.88-11.96,31.95,21.96,29.94,19.95,19.95,6,13.97,9.97,17.98,11.98,7.97v31.97l17.96-6,15.95,2.05,15.97,19.95,11.98,19.97-3.99,31.93-21.89,9.93,4.1,23.94,7.99,23.96v23.94l15.95,5.98,23.96,9.99,13.97,15.95-3.99,9.99,15.97,21.96,5.98-13.99,7.99,9.99,3.89,21.87,25.95-6,5.98-15.95,7.99-13.97,17.96-6-31.93-13.97h-15.97l6-9.97,17.96-15.97,13.95,14.05,35.92-7.99,13.97,3.99-9.97,15.97-11.98,3.99v17.96l-7.99,13.97-3.95,19.89,5.98,17.96,33.93,9.97,19.87,28.04-11.98,21.96,9.99,29.94,23.94,29.92,23.96,15.97,15.95,9.97,19.97,6-27.93,31.93-29.94,15.97-7.99,17.96-3.99-7.99-7.89,7.91,7.99,9.97h-25.97v-27.85l-11.98-9.99-31.93,7.99-29.94,7.99-27.93,5.98-9.99,10.02-11.96,17.96h-15.97l-17.96-2.05-11.98-11.96-5.98-21.96-11.98-2.05-9.97-19.95-24.04-9.93-19.95-2.05-6-9.97h-15.95l2.05-11.98h13.97l2.05-13.97-19.97-6-9.97-3.99,11.98-7.99-6-13.97-7.99-3.99-5.98,6,2.05,7.99-18.1,10.03-11.96,2.05-11.98-2.05,6.04,22-19.95-5.98-11.98-2.05h-21.85l-6.14-19.97-3.99-15.95v-13.97l15.95-9.99,9.99,7.99,9.97-2.05,3.99-7.99v-13.97l7.99-7.99-2.05-13.97h-11.98l-9.97-9.99-15.81-3.93h-10.04v21.96l-11.98-5.98-11.96-23.94-15.97,7.97-5.98,9.99,15.95,2.05,7.99,19.97,9.97,5.98,9.99,35.92-17.96-15.95-15.97-7.99,7.99-6-7.99-19.95-9.97,5.98,5.98,6-9.97,5.98-6-9.97,3.99-7.99-11.96-3.99,7.97-7.99-5.98-4.1-13.97,2.05-2.05,11.96,6.98,9.99h-8.97v8.97l13.97,9.99,5-1,6.98,5.98,11.98-.98,2.99,3.97,13.97,3.99,9.97,11.98,7.99,12.98,5.98,11.96-10.93,7.99Z"/></svg>