<svg xmlns="http://www.w3.org/2000/svg"  viewBox="0 0 50 50" width="100px" height="100px" fill="#ff9903"><path d="M 33 4 C 28.216 4 23.959187 6.7292656 21.867188 10.822266 C 22.464187 11.156266 23.032734 11.516062 23.552734 11.914062 C 25.273734 8.3720625 28.909 6 33 6 C 36.002 6 38.706094 7.2737812 40.621094 9.3007812 C 41.318094 8.9297812 41.965781 8.653125 42.550781 8.453125 C 40.256781 5.733125 36.829 4 33 4 z M 46.041016 9.8984375 C 46.041016 9.8984375 45.305845 9.880388 44.289062 10.164062 C 43.426285 10.404772 42.202965 11.045104 40.929688 11.892578 C 39.633727 11.111025 38.435572 10.516623 37.628906 10.261719 C 36.688083 9.9644207 36.042969 9.9257814 36.042969 9.9257812 A 1.0001 1.0001 0 1 0 35.957031 11.923828 C 35.957031 11.923828 36.259714 11.926028 37.025391 12.167969 C 37.791068 12.409921 38.938492 12.888463 40.380859 13.835938 A 1.0001 1.0001 0 0 0 41.53125 13.798828 C 42.888478 12.778812 44.036454 12.310169 44.826172 12.089844 C 45.615889 11.869518 45.958984 11.896484 45.958984 11.896484 A 1.0001 1.0001 0 1 0 46.041016 9.8984375 z M 15.148438 11 C 11.498437 11 8.2164844 12.077172 5.3964844 14.201172 C 5.0594844 14.454172 4.9179688 14.892922 5.0429688 15.294922 C 5.1679688 15.696922 5.5301719 15.977047 5.9511719 15.998047 C 12.569172 16.315047 17.729266 18.329891 21.322266 20.337891 C 20.287266 20.140891 19.176813 20.011 18.007812 20 C 15.121813 19.971 8.1384063 20.759719 5.0664062 28.636719 C 4.9254062 28.996719 5.0064844 29.404547 5.2714844 29.685547 C 5.4634844 29.889547 5.7270469 30 5.9980469 30 C 6.1010469 30 6.2046406 29.983172 6.3066406 29.951172 C 13.084641 27.761172 20.573203 25.379781 24.783203 24.050781 C 25.662203 23.772781 26.631672 24.007687 27.263672 24.679688 L 27.265625 24.679688 C 27.278625 24.693687 27.958594 25.667953 27.808594 27.001953 C 27.410594 30.550953 26.806906 37.675141 25.878906 44.244141 C 25.824906 44.628141 25.998266 45.010656 26.322266 45.222656 C 26.488266 45.330656 26.678141 45.384766 26.869141 45.384766 C 27.052141 45.384766 27.233531 45.334375 27.394531 45.234375 C 31.042531 42.975375 33.119406 40.113516 33.566406 36.728516 C 33.804406 34.926516 33.543781 33.171547 33.050781 31.560547 C 35.003781 34.561547 36.963437 38.47975 38.023438 43.21875 C 38.115437 43.62975 38.455047 43.939187 38.873047 43.992188 C 38.915047 43.998187 38.956047 44 38.998047 44 C 39.370047 44 39.716672 43.792078 39.888672 43.455078 C 41.308672 40.683078 41.998047 37.591 41.998047 34 C 41.998047 26.405 33.760641 23.596312 28.806641 23.070312 C 28.093641 20.339312 24.95925 11.069 15.28125 11 L 15.148438 11 z M 45.230469 13.925781 C 44.912469 13.977781 44.240172 14.142391 43.326172 14.650391 C 43.433172 15.251391 43.5 15.868 43.5 16.5 C 43.5 19.971 41.759141 23.175328 38.994141 25.111328 C 39.530141 25.540328 40.025422 26.005953 40.482422 26.501953 C 43.572422 24.176953 45.5 20.486 45.5 16.5 C 45.5 15.617 45.404469 14.756781 45.230469 13.925781 z M 25.90625 25.792969 C 24.30525 26.297969 23.58875 26.522406 21.09375 27.316406 C 17.11375 30.649406 11.399719 36.499938 10.011719 44.835938 C 9.9627188 45.125937 10.045328 45.421484 10.236328 45.646484 C 10.426328 45.870484 10.704047 46 10.998047 46 L 16.083984 46 C 16.615984 46 17.055031 45.581828 17.082031 45.048828 C 17.088031 44.942828 18.650188 34.709 25.617188 29 C 25.617672 28.995037 25.616751 28.998608 25.617188 28.994141 C 25.619426 28.970659 25.621661 28.956333 25.623047 28.941406 C 25.745736 27.641073 25.841457 26.550852 25.90625 25.792969 z"/></svg>