<svg xmlns="http://www.w3.org/2000/svg"  viewBox="0 0 50 50" width="100px" height="100px" fill="#2289C1"><path d="M 11.90625 6 C 5.339844 6 0 11.339844 0 17.90625 C 0 28.617188 9.773438 35.332031 16.25 39.78125 C 17.882813 40.902344 19.320313 41.902344 20.375 42.78125 L 21 43.3125 L 21.625 42.78125 C 22.292969 42.226563 23.117188 41.613281 24.03125 40.96875 C 20.613281 36.496094 16.300781 29.863281 18.71875 22.4375 C 20.164063 17.992188 24.265625 15 28.9375 15 C 30.070313 15 31.199219 15.179688 32.28125 15.53125 C 34.511719 16.257813 36.421875 17.699219 37.75 19.59375 C 38.871094 19.210938 40.050781 19 41.25 19 C 41.476563 19 41.710938 19.015625 41.9375 19.03125 C 41.960938 18.65625 42 18.285156 42 17.90625 C 42 11.339844 36.660156 6 30.09375 6 C 26.597656 6 23.285156 7.609375 21 10.34375 C 18.714844 7.609375 15.402344 6 11.90625 6 Z M 28.9375 17 C 25.132813 17 21.800781 19.445313 20.625 23.0625 C 18.242188 30.375 23.398438 36.933594 26.8125 41.28125 C 27.722656 42.4375 28.496094 43.429688 29.03125 44.28125 L 29.46875 45 L 30.25 44.6875 C 31.183594 44.316406 32.398438 43.960938 33.8125 43.5625 C 39.132813 42.0625 47.179688 39.78125 49.5625 32.46875 C 51.054688 27.875 48.527344 22.929688 43.9375 21.4375 C 41.609375 20.675781 39.015625 20.960938 36.90625 22.15625 C 35.898438 19.925781 34.019531 18.207031 31.65625 17.4375 C 30.773438 17.152344 29.855469 17 28.9375 17 Z"/></svg>