<svg xmlns:xlink="http://www.w3.org/1999/xlink" xmlns="http://www.w3.org/2000/svg" width="97" height="45" viewBox="0 0 97 45" fill="none" class="mdl-js"><script xmlns=""/>
<g filter="url(#filter0_d_35_255)">
<path d="M83.1516 1.22237e-05C89.8029 1.16423e-05 91.0304 3.25612 92.0697 5.26261L86.9888 8.50388L83.1516 10.5875L83.1516 1.22237e-05Z" fill="#820E19"/>
<path d="M92.0697 23.7841C92.0697 31.9674 85.4522 38.6013 77.289 38.6013L11.7373 38.6013L2.00001 24.0156L11.7373 9.42996L71.2553 9.08267C78.5372 8.42147 85.5962 8.60697 92.0697 5.26261L92.0697 23.7841Z" fill="#FF0000"/>
</g>
<path d="M26.2583 15.2992V16.384H24.4727V22H23.1287V16.384H21.3431V15.2992H26.2583ZM30.3494 22.0672C29.7222 22.0672 29.1462 21.92 28.6214 21.6256C28.0966 21.3312 27.6806 20.9248 27.3734 20.4064C27.0662 19.8816 26.9126 19.2896 26.9126 18.6304C26.9126 17.9776 27.0662 17.392 27.3734 16.8736C27.6806 16.3488 28.0966 15.9392 28.6214 15.6448C29.1462 15.3504 29.7222 15.2032 30.3494 15.2032C30.983 15.2032 31.559 15.3504 32.0774 15.6448C32.6022 15.9392 33.015 16.3488 33.3158 16.8736C33.623 17.392 33.7766 17.9776 33.7766 18.6304C33.7766 19.2896 33.623 19.8816 33.3158 20.4064C33.015 20.9248 32.6022 21.3312 32.0774 21.6256C31.5526 21.92 30.9766 22.0672 30.3494 22.0672ZM30.3494 20.8672C30.7526 20.8672 31.1078 20.7776 31.415 20.5984C31.7222 20.4128 31.9622 20.1504 32.135 19.8112C32.3078 19.472 32.3942 19.0784 32.3942 18.6304C32.3942 18.1824 32.3078 17.792 32.135 17.4592C31.9622 17.12 31.7222 16.8608 31.415 16.6816C31.1078 16.5024 30.7526 16.4128 30.3494 16.4128C29.9462 16.4128 29.5878 16.5024 29.2742 16.6816C28.967 16.8608 28.727 17.12 28.5542 17.4592C28.3814 17.792 28.295 18.1824 28.295 18.6304C28.295 19.0784 28.3814 19.472 28.5542 19.8112C28.727 20.1504 28.967 20.4128 29.2742 20.5984C29.5878 20.7776 29.9462 20.8672 30.3494 20.8672ZM36.1013 15.2992V19.4464C36.1013 19.9008 36.2197 20.2496 36.4565 20.4928C36.6933 20.7296 37.0261 20.848 37.4549 20.848C37.8901 20.848 38.2261 20.7296 38.4629 20.4928C38.6997 20.2496 38.8181 19.9008 38.8181 19.4464V15.2992H40.1717V19.4368C40.1717 20.0064 40.0469 20.4896 39.7973 20.8864C39.5541 21.2768 39.2245 21.5712 38.8085 21.7696C38.3989 21.968 37.9413 22.0672 37.4357 22.0672C36.9365 22.0672 36.4821 21.968 36.0725 21.7696C35.6693 21.5712 35.3493 21.2768 35.1125 20.8864C34.8757 20.4896 34.7573 20.0064 34.7573 19.4368V15.2992H36.1013ZM44.9262 22L43.4478 19.3888H42.8142V22H41.4702V15.2992H43.9854C44.5038 15.2992 44.9454 15.392 45.3102 15.5776C45.675 15.7568 45.947 16.0032 46.1262 16.3168C46.3118 16.624 46.4046 16.9696 46.4046 17.3536C46.4046 17.7952 46.2766 18.1952 46.0206 18.5536C45.7646 18.9056 45.3838 19.1488 44.8782 19.2832L46.4814 22H44.9262ZM42.8142 18.3808H43.9374C44.3022 18.3808 44.5742 18.2944 44.7534 18.1216C44.9326 17.9424 45.0222 17.696 45.0222 17.3824C45.0222 17.0752 44.9326 16.8384 44.7534 16.672C44.5742 16.4992 44.3022 16.4128 43.9374 16.4128H42.8142V18.3808ZM55.6389 22H54.2949L51.2517 17.4016V22H49.9077V15.2896H51.2517L54.2949 19.8976V15.2896H55.6389V22ZM60.0775 22.0672C59.4503 22.0672 58.8743 21.92 58.3495 21.6256C57.8247 21.3312 57.4087 20.9248 57.1015 20.4064C56.7943 19.8816 56.6407 19.2896 56.6407 18.6304C56.6407 17.9776 56.7943 17.392 57.1015 16.8736C57.4087 16.3488 57.8247 15.9392 58.3495 15.6448C58.8743 15.3504 59.4503 15.2032 60.0775 15.2032C60.7111 15.2032 61.2871 15.3504 61.8055 15.6448C62.3303 15.9392 62.7431 16.3488 63.0439 16.8736C63.3511 17.392 63.5047 17.9776 63.5047 18.6304C63.5047 19.2896 63.3511 19.8816 63.0439 20.4064C62.7431 20.9248 62.3303 21.3312 61.8055 21.6256C61.2807 21.92 60.7047 22.0672 60.0775 22.0672ZM60.0775 20.8672C60.4807 20.8672 60.8359 20.7776 61.1431 20.5984C61.4503 20.4128 61.6903 20.1504 61.8631 19.8112C62.0359 19.472 62.1223 19.0784 62.1223 18.6304C62.1223 18.1824 62.0359 17.792 61.8631 17.4592C61.6903 17.12 61.4503 16.8608 61.1431 16.6816C60.8359 16.5024 60.4807 16.4128 60.0775 16.4128C59.6743 16.4128 59.3159 16.5024 59.0023 16.6816C58.6951 16.8608 58.4551 17.12 58.2823 17.4592C58.1095 17.792 58.0231 18.1824 58.0231 18.6304C58.0231 19.0784 58.1095 19.472 58.2823 19.8112C58.4551 20.1504 58.6951 20.4128 59.0023 20.5984C59.3159 20.7776 59.6743 20.8672 60.0775 20.8672ZM73.4614 15.2992L71.5894 22H70.0054L68.7478 17.2288L67.4326 22L65.8582 22.0096L64.0534 15.2992H65.4934L66.6742 20.5024L68.0374 15.2992H69.535L70.8214 20.4736L72.0118 15.2992H73.4614ZM40.3572 34.0672C39.89 34.0672 39.4676 33.9872 39.09 33.8272C38.7188 33.6672 38.4244 33.4368 38.2068 33.136C37.9892 32.8352 37.8772 32.48 37.8708 32.0704H39.3108C39.33 32.3456 39.426 32.5632 39.5988 32.7232C39.778 32.8832 40.0212 32.9632 40.3284 32.9632C40.642 32.9632 40.8884 32.8896 41.0676 32.7424C41.2468 32.5888 41.3364 32.3904 41.3364 32.1472C41.3364 31.9488 41.2756 31.7856 41.154 31.6576C41.0324 31.5296 40.8788 31.4304 40.6932 31.36C40.514 31.2832 40.2644 31.2 39.9444 31.1104C39.5092 30.9824 39.154 30.8576 38.8788 30.736C38.61 30.608 38.3764 30.4192 38.178 30.1696C37.986 29.9136 37.89 29.5744 37.89 29.152C37.89 28.7552 37.9892 28.4096 38.1876 28.1152C38.386 27.8208 38.6644 27.5968 39.0228 27.4432C39.3812 27.2832 39.7908 27.2032 40.2516 27.2032C40.9428 27.2032 41.5028 27.3728 41.9316 27.712C42.3668 28.0448 42.6068 28.512 42.6516 29.1136H41.1732C41.1604 28.8832 41.0612 28.6944 40.8756 28.5472C40.6964 28.3936 40.4564 28.3168 40.1556 28.3168C39.8932 28.3168 39.682 28.384 39.522 28.5184C39.3684 28.6528 39.2916 28.848 39.2916 29.104C39.2916 29.2832 39.3492 29.4336 39.4644 29.5552C39.586 29.6704 39.7332 29.7664 39.906 29.8432C40.0852 29.9136 40.3348 29.9968 40.6548 30.0928C41.09 30.2208 41.4452 30.3488 41.7204 30.4768C41.9956 30.6048 42.2324 30.7968 42.4308 31.0528C42.6292 31.3088 42.7284 31.6448 42.7284 32.0608C42.7284 32.4192 42.6356 32.752 42.45 33.0592C42.2644 33.3664 41.9924 33.6128 41.634 33.7984C41.2756 33.9776 40.85 34.0672 40.3572 34.0672ZM48.0024 32.7232H45.3336L44.892 34H43.4808L45.8904 27.2896H47.4552L49.8648 34H48.444L48.0024 32.7232ZM47.6376 31.648L46.668 28.8448L45.6984 31.648H47.6376ZM52.1095 32.9344H54.3175V34H50.7655V27.2992H52.1095V32.9344ZM56.5158 28.384V30.064H58.7718V31.1296H56.5158V32.9056H59.0598V34H55.1718V27.2896H59.0598V28.384H56.5158Z" fill="white"/>
<defs>
<filter id="filter0_d_35_255" x="0.486224" y="0" width="96.1248" height="44.6564" filterUnits="userSpaceOnUse" color-interpolation-filters="sRGB">
<feFlood flood-opacity="0" result="BackgroundImageFix"/>
<feColorMatrix in="SourceAlpha" type="matrix" values="0 0 0 0 0 0 0 0 0 0 0 0 0 0 0 0 0 0 127 0" result="hardAlpha"/>
<feOffset dx="1.51378" dy="3.02755"/>
<feGaussianBlur stdDeviation="1.51378"/>
<feComposite in2="hardAlpha" operator="out"/>
<feColorMatrix type="matrix" values="0 0 0 0 0 0 0 0 0 0 0 0 0 0 0 0 0 0 0.25 0"/>
<feBlend mode="normal" in2="BackgroundImageFix" result="effect1_dropShadow_35_255"/>
<feBlend mode="normal" in="SourceGraphic" in2="effect1_dropShadow_35_255" result="shape"/>
</filter>
</defs>
</svg>