<svg xmlns="http://www.w3.org/2000/svg" width="192" height="117" viewBox="0 0 192 117" fill="none"><path d="M160.221 42.8462C160.923 42.8462 161.576 42.577 162.064 42.1485C162.067 42.1503 162.05 42.1533 162.053 42.1551C163.426 40.9572 165.296 39.6274 166.573 38.3257C166.57 38.3233 166.567 38.3209 166.566 38.3191C166.893 37.9574 167.098 37.4829 167.098 36.9565C167.098 36.5053 166.943 36.0953 166.695 35.758C165.849 34.6336 164.713 33.7419 163.391 33.1982C163.207 33.1427 163.017 33.1033 162.815 33.1033C162.293 33.1033 161.825 33.3092 161.465 33.6333C159.94 35.1994 158.885 36.8419 157.899 38.5483C157.9 38.5495 157.902 38.5507 157.903 38.5513C157.615 38.9894 157.446 39.5092 157.446 40.0715C157.446 41.6036 158.688 42.8462 160.221 42.8462Z" fill="#2289C1"></path><path d="M159.563 48.4533C159.818 48.0367 159.931 47.533 159.832 47.0155C159.749 46.5726 159.521 46.1984 159.214 45.9125C158.172 44.9659 156.891 44.3016 155.49 44.0128C155.3 43.9919 155.105 43.9895 154.907 44.0277C154.394 44.125 153.972 44.4138 153.679 44.8C151.977 47.3736 150.459 50.0672 149.115 52.8497L148.994 53.092L148.998 53.0974C147.069 57.3403 145.56 61.8131 144.531 66.4667C144.517 66.6183 144.506 66.7717 144.506 66.9287C144.506 69.6431 146.706 71.8419 149.421 71.8419C149.831 71.8419 150.222 71.7763 150.603 71.6808C151.642 65.0468 153.83 58.7728 156.827 53.0222C157.681 51.4644 158.587 49.9371 159.571 48.4581C159.568 48.4569 159.566 48.4551 159.563 48.4533Z" fill="#2289C1"></path><path d="M70.9904 71.7134C72.1143 64.5422 74.4802 57.7603 77.7193 51.5441C78.642 49.8598 79.6214 48.2077 80.685 46.61C80.682 46.6082 80.679 46.6058 80.6767 46.6034C80.9518 46.154 81.073 45.6079 80.9673 45.0498C80.8766 44.5706 80.6301 44.1659 80.2989 43.8573C79.1732 42.8331 77.7879 42.1151 76.2743 41.8036C76.0684 41.7809 75.8583 41.7785 75.6434 41.8191C75.0884 41.9241 74.6324 42.2363 74.3161 42.6535C73.6536 43.655 73.0263 44.678 72.4157 45.7111C71.8015 44.413 70.9367 43.6114 70.2551 43.1507C69.2005 42.4386 67.9238 42.0722 66.5648 42.0907C61.5925 42.1593 56.5026 47.0964 53.3966 51.6933C51.1835 54.97 49.6514 58.4866 49.0826 61.5938C48.0745 67.1051 50.3312 69.554 51.7654 70.5214C52.8206 71.2359 54.0967 71.6017 55.4569 71.5826C58.5707 71.5397 61.7321 69.5874 64.4215 67.0036C64.6406 69.7366 66.9235 71.887 69.712 71.887C70.1554 71.8882 70.5786 71.8166 70.9904 71.7134ZM67.1318 56.1583C66.0133 58.3547 64.4538 60.6747 62.7432 62.689C60.3403 65.5175 57.1884 68.2296 55.5345 67.3552C55.0827 67.117 54.7723 66.6085 54.6398 65.8851C54.459 64.9009 54.4512 62.6675 56.4387 58.7743C57.5584 56.5785 59.1168 54.258 60.8279 52.2424C63.229 49.4146 66.3828 46.7037 68.0378 47.5763C68.4885 47.8138 68.8 48.3235 68.9307 49.0463C69.1122 50.0317 69.1187 52.2651 67.1318 56.1583Z" fill="#2289C1"></path><path d="M148.175 46.61C148.172 46.6082 148.169 46.6058 148.167 46.6034C148.441 46.154 148.563 45.6079 148.458 45.0498C148.367 44.5706 148.12 44.1659 147.789 43.8573C146.664 42.8331 145.278 42.1151 143.764 41.8036C143.558 41.7809 143.348 41.7785 143.133 41.8191C142.577 41.9241 142.122 42.2363 141.806 42.6535C141.144 43.655 140.517 44.678 139.906 45.7111C139.291 44.413 138.426 43.6114 137.745 43.1507C136.691 42.4386 135.414 42.0722 134.055 42.0907C129.082 42.1593 123.992 47.0964 120.886 51.6933C118.673 54.97 117.141 58.4866 116.572 61.5938C115.564 67.1051 117.821 69.554 119.256 70.5214C120.31 71.2359 121.587 71.6017 122.947 71.5826C126.062 71.5397 129.222 69.5874 131.912 67.0036C132.131 69.7366 134.413 71.887 137.202 71.887C137.645 71.887 138.069 71.8154 138.481 71.7122C139.605 64.541 141.971 57.7591 145.21 51.5429C146.133 49.8592 147.112 48.2077 148.175 46.61ZM134.622 56.1583C133.504 58.3547 131.945 60.6747 130.234 62.689C127.831 65.5175 124.679 68.2296 123.025 67.3552C122.574 67.117 122.263 66.6085 122.131 65.8851C121.95 64.9009 121.942 62.6675 123.93 58.7743C125.049 56.5785 126.608 54.258 128.319 52.2424C130.719 49.4146 133.874 46.7037 135.529 47.5763C135.979 47.8138 136.291 48.3235 136.422 49.0463C136.602 50.0317 136.608 52.2651 134.622 56.1583Z" fill="#2289C1"></path><path d="M182.907 33.6279C182.907 33.1767 182.752 32.7666 182.505 32.4294C181.658 31.305 180.522 30.4133 179.201 29.8696C179.017 29.8141 178.826 29.7747 178.624 29.7747C178.102 29.7747 177.633 29.9806 177.273 30.3047C175.75 31.8714 174.693 33.5133 173.707 35.2197C173.709 35.2215 173.71 35.2221 173.711 35.2227C173.424 35.6602 173.255 36.1806 173.255 36.7428C173.255 38.2755 174.497 39.5182 176.03 39.5182C176.731 39.5182 177.364 39.2693 177.852 38.8402C177.856 38.8426 177.859 38.8252 177.862 38.827C179.235 37.6292 181.106 36.3 182.381 34.9977C182.379 34.9953 182.377 34.9935 182.375 34.9911C182.702 34.6288 182.907 34.1549 182.907 33.6279Z" fill="#2289C1"></path><path d="M175.072 43.684C175.015 43.237 174.811 42.8496 174.522 42.5458C173.541 41.5372 172.302 40.7959 170.921 40.4229C170.732 40.3912 170.538 40.3763 170.338 40.402C169.819 40.4682 169.381 40.7308 169.065 41.0985C167.21 43.5635 165.532 46.1598 164.021 48.8551L163.058 50.7155L163.062 50.7167C162.692 51.4221 162.333 52.1324 161.986 52.8498L161.865 53.0921L161.869 53.0975C159.94 57.3405 158.43 61.8138 157.402 66.4669C157.387 66.6191 157.376 66.7725 157.376 66.9288C157.376 69.6433 159.577 71.8427 162.291 71.8427C162.701 71.8427 163.093 71.7764 163.474 71.6815C164.502 65.1216 166.695 58.9162 169.642 53.2187L169.643 53.2193C170.294 51.9545 170.978 50.7095 171.707 49.4973C172.655 47.9945 173.651 46.525 174.724 45.1093C174.722 45.1075 174.719 45.1057 174.716 45.1033C174.996 44.7028 175.139 44.2069 175.072 43.684Z" fill="#2289C1"></path><path d="M62.3087 34.6223C62.3063 34.6199 62.3045 34.6175 62.3027 34.6157C62.6573 34.2815 62.8996 33.8243 62.9414 33.3003C62.9778 32.8503 62.8566 32.4295 62.6364 32.0732C61.8832 30.8842 60.822 29.9042 59.5483 29.256C59.3692 29.1862 59.1824 29.1325 58.9819 29.1158C58.4608 29.0728 57.9774 29.2411 57.593 29.5354C55.6455 31.2394 53.8013 33.0597 52.0561 34.975C47.766 39.628 44.115 44.8755 41.2329 50.5754C38.405 50.1284 35.5437 49.8556 32.6675 49.7649C35.1629 45.6108 38.1305 41.7713 41.502 38.3263C41.4997 38.3239 41.4973 38.3215 41.4955 38.3198C41.8232 37.9581 42.0273 37.4836 42.0273 36.9571C42.0273 36.5059 41.8727 36.0959 41.625 35.7587C40.7787 34.6342 39.6423 33.7425 38.3209 33.1988C38.137 33.1433 37.9466 33.1039 37.7449 33.1039C37.2227 33.1039 36.7541 33.3098 36.3948 33.6339C31.7048 38.457 27.722 43.9677 24.6035 49.9947C20.7455 50.3331 16.8881 50.9968 13.0724 52.018C12.9304 52.0759 12.7889 52.1373 12.6505 52.2084C10.2422 53.4594 9.30277 56.4263 10.5544 58.834C10.7436 59.198 10.9823 59.5144 11.2425 59.8098C14.5646 58.6949 17.9356 57.8862 21.3209 57.3675C20.2185 60.31 19.3125 63.3485 18.6231 66.4676C18.6088 66.6192 18.5981 66.7726 18.5981 66.9296C18.5981 69.6441 20.798 71.8428 23.5125 71.8428C23.9225 71.8428 24.3141 71.7772 24.6948 71.6817C25.5179 66.4312 27.0208 61.4076 29.093 56.6865C32.19 56.6125 35.2763 56.7766 38.3268 57.1652C37.1892 60.1715 36.2522 63.2751 35.5467 66.4676C35.5324 66.6192 35.5216 66.7726 35.5216 66.9296C35.5216 69.6441 37.7216 71.8428 40.4361 71.8428C40.8455 71.8428 41.2376 71.7772 41.6184 71.6817C43.3475 60.6454 48.0524 50.5981 54.8541 42.333C57.1132 39.5522 59.614 36.9655 62.3087 34.6223Z" fill="#2289C1"></path><path d="M46.5508 79.1709C46.4278 79.4144 46.3676 79.7606 46.3676 80.2279C46.3676 80.6952 46.4278 81.0611 46.5508 81.3058H50.7985V93.3191C51.0224 93.4612 51.4073 93.5221 51.9976 93.5221C52.5873 93.5221 52.9931 93.4612 53.217 93.3191V81.3058H57.4665C57.5871 81.0611 57.648 80.6952 57.648 80.2279C57.648 79.7606 57.5871 79.4144 57.4665 79.1709H46.5508Z" fill="#2289C1"></path><path d="M71.2107 78.7031C67.3479 78.7031 64.6036 81.4677 64.6036 86.1428C64.6036 91.3264 66.9833 93.9084 71.2107 93.9084C75.2353 93.9084 77.8369 91.185 77.8369 86.1428C77.8369 81.2857 75.1529 78.7031 71.2107 78.7031ZM71.2107 91.7526C68.5882 91.7526 67.1044 89.7203 67.1044 86.1428C67.1044 82.8297 68.5279 80.8172 71.2107 80.8172C73.7103 80.8172 75.3367 82.8297 75.3367 86.1428C75.3367 89.7006 73.8936 91.7526 71.2107 91.7526Z" fill="#2289C1"></path><path d="M95.8498 79.2924V88.0541C95.8498 90.309 94.8542 91.7128 92.3749 91.7128C90.1392 91.7128 89.1024 90.5949 89.1024 88.115V79.293C88.878 79.151 88.4728 79.0901 87.8825 79.0901C87.2928 79.0901 86.9072 79.1516 86.6834 79.293V88.3382C86.6834 92.0178 88.5121 93.9086 92.3135 93.9086C96.4407 93.9086 98.2091 91.6316 98.2091 87.8918V79.293C97.9853 79.151 97.5997 79.0901 97.0309 79.0901C96.4401 79.0895 96.0742 79.1504 95.8498 79.2924Z" fill="#2289C1"></path><path d="M118.052 83.5615C118.052 80.3099 115.715 78.9473 111.812 78.9473C110.166 78.9473 108.864 79.0899 107.828 79.3334V93.3187C108.053 93.4608 108.438 93.5217 109.028 93.5217C109.615 93.5217 110.022 93.4608 110.247 93.3187V88.1345C110.796 88.2163 111.893 88.2975 112.584 88.2975C112.767 88.2975 113.013 88.2975 113.193 88.2778L116.243 93.2776C116.549 93.4405 117.057 93.5217 117.747 93.5217C118.398 93.5217 118.885 93.4405 119.069 93.2776L115.574 87.7072C117.076 87.0572 118.052 85.6755 118.052 83.5615ZM112.238 86.224C111.568 86.224 110.715 86.1631 110.247 86.0611V81.2028C110.694 81.1019 111.263 81.0398 111.934 81.0398C114.231 81.0398 115.573 81.8133 115.573 83.7244C115.573 85.5126 114.333 86.224 112.238 86.224Z" fill="#2289C1"></path><path d="M129.359 82.5241C129.359 81.4474 130.152 80.7766 131.818 80.7766C133.22 80.7766 134.582 81.2642 135.64 81.975C135.782 81.2236 135.579 80.2066 135.191 79.6181C134.216 78.9884 132.996 78.7031 131.676 78.7031C128.707 78.7031 126.918 80.1463 126.918 82.85C126.918 87.9304 133.912 86.2634 133.912 89.6785C133.912 90.9797 133.079 91.7926 131.045 91.7926C129.52 91.7926 127.691 91.3258 126.552 90.6144C126.431 91.3461 126.593 92.402 127.001 93.0328C128.017 93.6022 129.48 93.9078 131.026 93.9078C133.932 93.9078 136.33 92.7899 136.33 89.3741C136.33 84.1917 129.359 85.7358 129.359 82.5241Z" fill="#2289C1"></path><path d="M117.08 46.8436C116.982 46.6669 116.855 46.5189 116.718 46.3852C115.601 45.4929 114.271 44.9307 112.878 44.7361C112.462 44.6824 112.028 44.7463 111.633 44.9641C111.172 45.2195 110.857 45.6284 110.699 46.0898C110.696 46.0898 110.693 46.0892 110.689 46.0874C110.181 47.7884 109.584 49.4619 108.932 51.114C107.038 55.6304 105.17 60.4541 101.635 64.0113C101.202 64.4476 100.567 65.1202 99.8229 65.6735C98.9295 66.3378 98.1392 66.5706 97.6015 66.2757C96.1505 65.4825 97.0142 61.1148 99.5281 56.5208C100.631 54.5047 103.011 50.9582 105.455 47.6762C105.453 47.675 105.451 47.672 105.449 47.6708C105.64 47.4243 105.762 47.1235 105.79 46.794C105.795 46.6693 105.797 46.544 105.776 46.415C105.702 45.9698 105.484 45.5902 105.183 45.2977C104.166 44.3261 102.9 43.6307 101.508 43.309C101.317 43.284 101.123 43.2762 100.924 43.3096C100.407 43.3944 99.9799 43.6737 99.6767 44.0521C99.3443 44.529 99.0232 45.0148 98.7039 45.5007C98.6991 45.5001 98.6913 45.5192 98.6871 45.518C95.947 49.9531 94.2955 54.8825 91.9917 59.6549C90.7777 62.17 89.5584 63.5571 88.3557 64.7388C87.9672 65.1483 87.6043 65.4598 87.2748 65.6723C86.3748 66.327 85.5917 66.5694 85.0534 66.2745C83.603 65.4813 84.4661 61.1136 86.9806 56.5196C88.0836 54.5035 90.4632 50.957 92.9073 47.675C92.9055 47.6738 92.9031 47.6708 92.9013 47.6696C93.0923 47.4231 93.2135 47.1223 93.2415 46.7928C93.2469 46.6681 93.2493 46.5428 93.2284 46.4138C93.155 45.9686 92.9359 45.589 92.6357 45.2965C91.6187 44.3249 90.3522 43.6296 88.9597 43.3078C88.7693 43.2828 88.5748 43.275 88.376 43.3084C87.9779 43.3735 87.6341 43.5573 87.3578 43.8098C87.3542 43.8134 87.3512 43.8176 87.3476 43.8205C87.2707 43.8934 87.1961 43.9686 87.1292 44.0509C87.1191 44.0653 87.1101 44.0796 87.1 44.0933C84.9191 46.4652 82.9435 49.345 81.3625 52.6389C79.3189 56.8951 78.2237 61.2324 77.9963 65.2032C77.9945 65.2241 77.9909 65.2461 77.9885 65.267C77.97 65.4658 77.9569 65.661 77.9485 65.8555C77.9407 66.028 77.9354 66.1993 77.9378 66.367C77.939 66.5568 77.9503 66.7395 77.9622 66.9233C77.9736 67.088 77.9855 67.251 78.0058 67.4103C78.0279 67.5834 78.0613 67.7505 78.0947 67.9188C78.1258 68.0734 78.1538 68.2304 78.1938 68.3796C78.2356 68.5354 78.2905 68.6804 78.3436 68.8278C78.3944 68.9735 78.4403 69.1227 78.5018 69.2599C78.5609 69.393 78.6349 69.5124 78.7035 69.6371C78.7775 69.7714 78.8438 69.9135 78.9285 70.0394C78.9536 70.077 78.9876 70.1075 79.0145 70.1439C79.2443 70.4626 79.5158 70.7365 79.819 70.9765C79.908 71.0469 79.9855 71.1281 80.0804 71.1919C80.0894 71.1961 80.0983 71.2003 80.1061 71.2057C80.1294 71.2194 80.1461 71.2415 80.1694 71.2546C80.5227 71.4766 80.9053 71.6354 81.3058 71.7422C81.3094 71.7434 81.3123 71.7446 81.3159 71.7464C81.3195 71.7476 81.3231 71.7476 81.3273 71.7488C81.5176 71.7989 81.7134 71.8329 81.9128 71.8574C81.9372 71.8604 81.9599 71.8676 81.985 71.8694C82.1921 71.8932 82.404 71.8992 82.6182 71.8974C82.6361 71.8974 82.6534 71.8986 82.6708 71.8986C82.8952 71.8932 83.1238 71.8729 83.3542 71.8389C83.3631 71.8377 83.3715 71.8377 83.3798 71.8365C85.76 71.4856 88.4321 69.7034 90.5103 66.9209C90.5103 66.9221 90.5103 66.9233 90.5103 66.9239C90.5217 67.0886 90.5336 67.2515 90.5539 67.4109C90.5563 67.4288 90.5605 67.4449 90.5629 67.4616C90.5832 68.7383 91.0338 69.9427 91.9362 70.844C92.1875 71.094 92.4835 71.2976 92.801 71.4725C92.7981 71.4766 92.7927 71.4826 92.7897 71.4862C92.8303 71.5077 92.875 71.5196 92.9156 71.5399C93.1204 71.6437 93.3346 71.7351 93.5584 71.8109C97.9017 73.3143 104.731 70.08 109.909 63.7278C111.957 61.2162 113.463 58.5507 114.407 55.9974C114.406 55.9974 114.405 55.9968 114.404 55.9968C115.508 53.4799 116.476 50.9069 117.271 48.279C117.379 47.8099 117.333 47.3014 117.08 46.8436Z" fill="#2289C1"></path><path d="M101.809 38.5656C101.809 36.5256 103.463 34.8723 105.503 34.8723C107.543 34.8723 109.196 36.5262 109.196 38.5656C109.196 40.605 107.543 42.2589 105.503 42.2589C103.463 42.2589 101.809 40.6056 101.809 38.5656Z" fill="#F8991D"></path><path d="M94.4931 30.39C94.4573 30.3662 94.4209 30.3429 94.3839 30.3196C93.4038 29.7216 92.2113 29.7705 91.3029 30.3465C91.3011 30.3477 91.3 30.3483 91.2988 30.3495C91.2916 30.3542 91.2844 30.3584 91.2779 30.3632C90.5032 30.8621 89.7905 31.5825 89.239 32.485C88.6876 33.388 88.3718 34.3501 88.2811 35.2669C88.2805 35.2752 88.2793 35.2836 88.2787 35.2919C88.2787 35.2943 88.2781 35.2955 88.2781 35.2973C88.1802 36.3681 88.681 37.4519 89.6604 38.0506C89.6974 38.0733 89.735 38.0953 89.7726 38.1156C91.7446 39.2019 93.8222 39.9151 95.9369 40.2685C95.9768 40.2756 96.0168 40.2822 96.0568 40.2881C97.3532 40.4768 98.6979 39.896 99.4236 38.7071C100.15 37.5182 100.053 36.0571 99.2935 34.9899H99.2929C99.2696 34.9571 99.2458 34.9243 99.2213 34.8921C97.9429 33.1725 96.3594 31.6488 94.4931 30.39Z" fill="#F8991D"></path><path d="M104.517 24.609C104.503 24.5738 104.488 24.5386 104.472 24.504C104.058 23.5866 103.17 23.0333 102.228 23.0023C102.227 23.0023 102.225 23.0023 102.223 23.0023C102.216 23.0023 102.208 23.0017 102.201 23.0017C101.393 22.9808 100.521 23.1509 99.6768 23.5323C98.8311 23.9137 98.1268 24.4556 97.6087 25.0746C97.6039 25.0805 97.5998 25.0859 97.595 25.0919C97.5932 25.0931 97.5926 25.0943 97.592 25.0954C96.9922 25.823 96.8197 26.8561 97.2345 27.7729C97.2494 27.8075 97.2661 27.8421 97.2834 27.8756C98.1757 29.6357 99.3288 31.1785 100.686 32.479C100.712 32.5041 100.737 32.5286 100.763 32.5525C101.609 33.3295 102.87 33.5725 103.983 33.0699C105.097 32.5674 105.748 31.4608 105.725 30.3125C105.724 30.2773 105.722 30.2415 105.72 30.2062C105.642 28.3274 105.248 26.4419 104.517 24.609Z" fill="#F8991D"></path><path d="M116.329 30.3162C116.351 30.2882 116.373 30.2589 116.394 30.2297C116.95 29.4544 116.983 28.4624 116.562 27.6752C116.562 27.6734 116.561 27.6728 116.56 27.671C116.557 27.665 116.553 27.6585 116.55 27.6525C116.184 26.9798 115.63 26.3448 114.917 25.8327C114.203 25.32 113.424 24.9989 112.67 24.8682C112.663 24.867 112.656 24.8658 112.649 24.864C112.647 24.864 112.646 24.8634 112.645 24.8634C111.763 24.716 110.834 25.0646 110.278 25.8393C110.257 25.8691 110.236 25.8989 110.217 25.9288C109.195 27.4955 108.477 29.1738 108.053 30.9047C108.045 30.9375 108.037 30.9704 108.029 31.0026C107.793 32.0656 108.191 33.2151 109.131 33.8901C110.073 34.5652 111.288 34.5753 112.221 34.0113H112.221C112.25 33.994 112.279 33.9761 112.306 33.9576C113.811 33.0032 115.171 31.7851 116.329 30.3162Z" fill="#F8991D"></path><path d="M117.314 42.0779C117.346 42.0827 117.379 42.0874 117.411 42.091C118.27 42.1889 119.068 41.7765 119.505 41.0949C119.506 41.0937 119.507 41.0925 119.507 41.0913C119.511 41.0859 119.514 41.0806 119.518 41.0752C119.888 40.4891 120.146 39.7717 120.236 38.9803C120.325 38.1888 120.236 37.432 120.006 36.7773C120.004 36.7713 120.002 36.7654 119.999 36.7594C119.999 36.7576 119.999 36.757 119.998 36.7552C119.725 35.993 119.039 35.4123 118.181 35.315C118.148 35.3114 118.116 35.3085 118.083 35.3061C116.393 35.1909 114.748 35.3634 113.192 35.7937C113.163 35.8015 113.134 35.8098 113.105 35.8182H113.105C112.16 36.1011 111.427 36.9235 111.309 37.9656C111.19 39.0077 111.72 39.9734 112.577 40.4616C112.604 40.4766 112.63 40.4915 112.657 40.5052C114.077 41.2739 115.641 41.8111 117.314 42.0779Z" fill="#F8991D"></path></svg>