<svg xmlns="http://www.w3.org/2000/svg" id="Layer_1" data-name="Layer 1" viewBox="0 0 150 150"><path d="M40.9,86.26H18.17c-1.1,0-2-.9-2-2V50.16c0-1.1,.9-2,2-2h28.42c1.1,0,2,.9,2,2v5.68c0,.53-.21,1.04-.59,1.41l-5.1,5.1v21.9c0,1.1-.9,2-2,2Zm-20.73-4h18.73v-20.73c0-.53,.21-1.04,.59-1.41l5.1-5.1v-2.85H20.17v30.1Z"></path><path d="M137.95,123.04c-4.56,0-10.9-1.17-15.74-4.39-4.84,3.22-11.18,4.39-15.74,4.39s-10.9-1.17-15.74-4.39c-4.84,3.22-11.18,4.39-15.74,4.39s-10.9-1.17-15.74-4.39c-4.84,3.22-11.18,4.39-15.74,4.39s-10.9-1.17-15.74-4.39c-4.84,3.22-11.18,4.39-15.74,4.39-1.82,0-3.58-.14-5.55-.44-1.09-.17-1.84-1.19-1.67-2.28,.17-1.09,1.19-1.85,2.28-1.67,1.76,.27,3.33,.39,4.94,.39,4.1,0,10.35-1.16,14.5-4.43,.73-.57,1.75-.57,2.48,0,4.15,3.27,10.4,4.43,14.5,4.43s10.35-1.16,14.5-4.43c.72-.57,1.75-.57,2.48,0,4.15,3.27,10.41,4.43,14.5,4.43s10.35-1.16,14.5-4.43c.72-.57,1.75-.57,2.47,0,4.15,3.27,10.41,4.43,14.5,4.43s10.35-1.16,14.5-4.43c.72-.57,1.75-.57,2.48,0,4.15,3.27,10.41,4.43,14.5,4.43,1.69,0,3.19-.24,4.58-.73,1.04-.37,2.18,.18,2.55,1.22,.37,1.04-.18,2.18-1.22,2.55-1.82,.64-3.76,.96-5.91,.96Z"></path><path d="M137.95,134.41c-4.56,0-10.9-1.17-15.74-4.39-4.84,3.22-11.18,4.39-15.74,4.39s-10.9-1.17-15.74-4.39c-4.84,3.22-11.18,4.39-15.74,4.39s-10.9-1.17-15.74-4.39c-4.84,3.22-11.18,4.39-15.74,4.39s-10.9-1.17-15.74-4.39c-4.84,3.22-11.18,4.39-15.74,4.39-1.83,0-3.59-.14-5.55-.44-1.09-.17-1.84-1.19-1.67-2.28s1.19-1.84,2.28-1.67c1.75,.27,3.32,.39,4.94,.39,4.1,0,10.35-1.16,14.5-4.43,.73-.57,1.75-.57,2.48,0,4.15,3.27,10.4,4.43,14.5,4.43s10.35-1.16,14.5-4.43c.73-.57,1.75-.57,2.48,0,4.15,3.27,10.41,4.43,14.5,4.43s10.35-1.16,14.5-4.43c.73-.57,1.75-.57,2.48,0,4.15,3.27,10.41,4.43,14.5,4.43s10.35-1.16,14.5-4.43c.73-.57,1.75-.57,2.48,0,4.15,3.27,10.4,4.43,14.5,4.43,1.69,0,3.19-.24,4.58-.73,1.04-.37,2.18,.18,2.55,1.22,.37,1.04-.18,2.18-1.22,2.55-1.82,.64-3.76,.95-5.91,.95Z"></path><path d="M106.26,123.2c-1.1,0-2-.9-2-2s.9-2,2-2c13.39,0,34.94-31.19,34.94-50.57,0-2.26-.52-2.26-1.79-2.26h-27.47c-3.33,0-4.72,.8-5.57,1.5-.44,.37-1.38,2.11-2.14,3.52-3.01,5.56-8.04,14.87-17.87,14.87H12.48c-1.83,0-3.68,2.02-3.68,3.47v8.4c0,3.42,4.81,12.41,14,17.4,.97,.53,1.33,1.74,.81,2.71-.53,.97-1.74,1.33-2.71,.8-9.48-5.14-16.09-15.15-16.09-20.91v-8.4c0-3.77,3.81-7.47,7.68-7.47H86.37c7.44,0,11.6-7.69,14.35-12.78,1.2-2.22,2.07-3.83,3.1-4.69,2-1.66,4.58-2.43,8.12-2.43h27.47c2.64,0,5.79,1.09,5.79,6.26,0,20.25-22.13,54.57-38.94,54.57Z"></path><path d="M32.38,49.32c-1.1,0-2-.9-2-2v-11.37c0-1.1,.9-2,2-2s2,.9,2,2v11.37c0,1.1-.9,2-2,2Z"></path><path d="M126.15,81.56c0,2.61-2.61,2.7-2.61,2.7h-5.73s-3.03-.17-3.03-2.78v-3.71s.1-1.1,1.86-1.1,1.93,1.1,1.93,1.1v2.27s.18,1.1,1.86,1.1,1.94-1.1,1.94-1.1v-2.27s.18-1.1,1.94-1.1,1.85,1.1,1.85,1.1v3.79Z"></path></svg>