<svg xmlns="http://www.w3.org/2000/svg" id="Layer_1" data-name="Layer 1" viewBox="0 0 150 150"><path d="M14.46,63.94c-1.6,.4-2.6,2-2.3,3.6,.3,1.4,1.5,2.4,2.9,2.4,.2,0,.4,0,.6-.1,28.4-6.3,48.7-13.3,60.4-20.9,9.5-6.2,10.9-11.5,10.9-14,0-9.4-8.2-14-29.1-16.4-1.7-.2-3.1,1-3.3,2.6s1,3.1,2.6,3.3c23.8,2.7,23.8,7.7,23.8,10.4,0,.6-.7,14.6-66.5,29.1Z"></path><path d="M91.86,18.64c-1.6-.4-3.2,.6-3.7,2.2-.4,1.6,.6,3.2,2.2,3.6,36.4,9.4,39.9,26.7,41,32.4,2.3,11.7-4.7,29.6-47.1,82.9-1,1.3-.8,3.2,.5,4.2,.6,.4,1.2,.7,1.9,.7,.9,0,1.8-.4,2.4-1.1,44.2-55.6,51.1-73.7,48.3-87.8-3.7-18.1-18.5-30.2-45.5-37.1Z"></path><path d="M25.86,110.34c1.5-.6,3.1-1.3,4.7-2,1.5-.7,2.2-2.4,1.5-4-.7-1.5-2.4-2.2-4-1.5s-3.1,1.3-4.5,1.9c-1.5,.6-2.3,2.4-1.6,3.9,.5,1.2,1.6,1.9,2.8,1.9,.4,0,.8-.1,1.1-.2Z"></path><path d="M59.06,87.04c-3.3,1.9-6.7,3.8-10.1,5.7-1.5,.8-2,2.6-1.2,4.1,.5,1,1.6,1.6,2.6,1.6,.5,0,1-.1,1.4-.4,3.5-1.9,7-3.8,10.3-5.8,1.4-.8,1.9-2.7,1.1-4.1-.8-1.5-2.6-2-4.1-1.1Z"></path><path d="M91.46,67.24c-1.1-1.2-3-1.3-4.2-.2-2.6,2.4-5.6,4.8-8.9,7.2-1.3,1-1.6,2.9-.6,4.2,.6,.8,1.5,1.2,2.4,1.2,.6,0,1.3-.2,1.8-.6,3.4-2.5,6.5-5.1,9.3-7.6,1.2-1,1.3-2.9,.2-4.2Z"></path><path d="M104.06,54.24c1.1,0,2.2-.6,2.7-1.7,.8-1.8,1.5-3.5,1.9-5.2,.4-1.6-.5-3.2-2.1-3.7-1.6-.4-3.2,.5-3.7,2.1-.3,1.3-.9,2.7-1.5,4.1-.7,1.5-.1,3.3,1.4,4,.4,.3,.8,.4,1.3,.4Z"></path></svg>