<svg width="36" height="36" viewBox="0 0 36 36" fill="none" xmlns="http://www.w3.org/2000/svg">
<path d="M10.2487 16.8384C10.9394 16.8384 11.4971 16.2807 11.4994 15.5901C11.4994 15.2587 11.3687 14.9391 11.1331 14.7057L10.5194 14.0921C10.3701 13.9427 10.1297 13.9427 9.98039 14.0921L9.36673 14.7057C8.87906 15.1934 8.87906 15.9844 9.36673 16.4721C9.60006 16.7077 9.91973 16.8384 10.2511 16.8384H10.2487ZM9.90573 15.2447L10.2487 14.9017L10.5917 15.2447C10.7807 15.4337 10.7807 15.7417 10.5917 15.9331C10.4027 16.1221 10.0947 16.1221 9.90339 15.9331C9.71439 15.7441 9.71439 15.4361 9.90339 15.2447H9.90573Z" fill="black"/>
<path d="M7.43466 20.0584C8.12533 20.0584 8.68299 19.4984 8.68533 18.8101C8.68533 18.4787 8.55466 18.1591 8.31899 17.9257L7.70533 17.3121C7.55599 17.1627 7.31566 17.1627 7.16633 17.3121L6.55266 17.9257C6.06499 18.4134 6.06266 19.2044 6.55266 19.6921C6.78833 19.9277 7.10566 20.0584 7.43699 20.0584H7.43466ZM7.09166 18.4647L7.43466 18.1217L7.77766 18.4647C7.96666 18.6537 7.96666 18.9617 7.77766 19.1531C7.58866 19.3421 7.28066 19.3421 7.08933 19.1531C6.89799 18.9641 6.90033 18.6561 7.08933 18.4647H7.09166Z" fill="black"/>
<path d="M24.5216 16.192C24.3723 16.0427 24.1319 16.0427 23.9826 16.192L23.3689 16.8057C22.8813 17.2934 22.8813 18.0844 23.3689 18.572C23.8566 19.0597 24.6476 19.0597 25.1353 18.572C25.6229 18.0844 25.6229 17.2934 25.1353 16.8057L24.5216 16.192ZM24.5963 18.033C24.4073 18.222 24.0993 18.222 23.9079 18.033C23.7189 17.844 23.7189 17.536 23.9079 17.3447L24.2509 17.0017L24.5939 17.3447C24.7829 17.5337 24.7829 17.8417 24.5939 18.033H24.5963Z" fill="black"/>
<path d="M27.0276 19.7434C27.0276 20.4341 27.5876 20.9941 28.2783 20.9917C28.969 20.9917 29.529 20.4317 29.5266 19.7411C29.5266 19.4097 29.3936 19.0924 29.1603 18.8567L28.5466 18.2431C28.3973 18.0937 28.157 18.0937 28.0076 18.2431L27.394 18.8567C27.1583 19.0901 27.0253 19.4097 27.0276 19.7411V19.7434ZM27.933 19.4004L28.276 19.0574L28.619 19.4004C28.808 19.5894 28.808 19.8974 28.619 20.0887C28.43 20.2801 28.122 20.2777 27.9306 20.0887C27.7393 19.8997 27.7416 19.5917 27.9306 19.4004H27.933Z" fill="black"/>
<path d="M10.503 6.30574C10.713 6.30574 10.8856 6.13541 10.8856 5.92308C10.8856 5.71074 10.7153 5.54041 10.503 5.54041C10.2043 5.54041 9.96162 5.32341 9.96162 5.05741C9.96396 4.89174 10.055 4.74008 10.1973 4.65841C10.321 4.58374 10.391 4.44374 10.3793 4.29908C10.3793 4.28974 10.3793 4.27808 10.3793 4.26874C10.3793 4.04474 10.5846 3.86041 10.839 3.86041C10.9346 3.86041 11.028 3.88608 11.1096 3.93974C11.287 4.05408 11.5226 4.00274 11.637 3.82774C11.644 3.81841 11.6486 3.80908 11.6533 3.79974C11.77 3.59441 11.9916 3.46841 12.2273 3.47308C12.5773 3.47308 12.862 3.72974 12.862 4.04474C12.862 4.14274 12.834 4.23608 12.7826 4.32008C12.673 4.49741 12.729 4.73074 12.904 4.84274C12.9623 4.87774 12.9996 4.93841 13.002 5.00608C13.002 5.21608 13.1723 5.38874 13.3846 5.38874C13.597 5.38874 13.7673 5.21841 13.7673 5.00608C13.7673 4.79608 13.6973 4.59308 13.5666 4.42741C13.604 4.30374 13.625 4.17541 13.625 4.04708C13.625 3.30974 12.9973 2.71008 12.225 2.71008C11.833 2.70774 11.4573 2.86641 11.1866 3.14874C11.0723 3.11608 10.9533 3.09974 10.8366 3.09974C10.209 3.09974 9.68862 3.55474 9.62096 4.14041C9.35262 4.37141 9.19862 4.70741 9.19629 5.05974C9.19629 5.74808 9.78196 6.30574 10.5006 6.30574H10.503Z" fill="black"/>
<path d="M7.30152 9.93173C7.31552 9.93173 7.32952 9.93407 7.34352 9.93407C7.55352 9.93407 7.72619 9.76373 7.72385 9.5514C7.72385 9.35773 7.57685 9.1944 7.38319 9.1734C7.28519 9.16407 7.19652 9.1174 7.13119 9.04507C7.07752 8.9844 7.05185 8.90273 7.05885 8.82107C7.07285 8.71373 7.14285 8.62507 7.24085 8.58307C7.37152 8.5224 7.45785 8.39173 7.46019 8.24707C7.46019 8.24007 7.46019 8.23307 7.46019 8.2284C7.47652 8.0884 7.62119 7.9904 7.78219 8.00907C7.84519 8.01607 7.90352 8.0394 7.95252 8.07907C8.11585 8.21207 8.35619 8.18873 8.48919 8.0254C8.49619 8.01607 8.50319 8.00673 8.51019 7.9974C8.60585 7.86673 8.76685 7.79673 8.92785 7.82007C9.04452 7.83173 9.15185 7.88773 9.23119 7.9764C9.29885 8.05107 9.33152 8.1514 9.31985 8.25173C9.31285 8.31473 9.28719 8.3754 9.24752 8.42673C9.11919 8.5924 9.14719 8.82807 9.31052 8.95873C9.33385 8.97507 9.34785 9.00307 9.34785 9.03107C9.32219 9.24107 9.47152 9.43007 9.67919 9.45573C9.88919 9.4814 10.0782 9.33207 10.1039 9.1244C10.1039 9.12207 10.1039 9.1174 10.1039 9.11507C10.1225 8.94473 10.0875 8.77207 10.0059 8.6204C10.1599 8.23307 10.0829 7.79207 9.80985 7.4794C9.38052 6.98473 8.64085 6.91007 8.12052 7.30673C8.03885 7.2764 7.95252 7.25773 7.86619 7.2484C7.35285 7.18307 6.86752 7.50273 6.72752 8.00207C6.25852 8.3404 6.15119 8.99373 6.48719 9.46507C6.50585 9.49073 6.52685 9.5164 6.54785 9.53973C6.73685 9.7614 7.00519 9.9014 7.29452 9.93173H7.30152Z" fill="black"/>
<path d="M21.066 5.38406C21.276 5.38406 21.4487 5.21373 21.4487 5.00139C21.451 4.93373 21.4883 4.87306 21.5467 4.83806C21.724 4.72606 21.7777 4.49506 21.668 4.31539C21.6167 4.23373 21.5887 4.13806 21.5887 4.04239C21.5887 3.72739 21.8733 3.47073 22.2233 3.47073C22.459 3.46606 22.6807 3.59206 22.7973 3.79739C22.8953 3.98406 23.1263 4.05406 23.313 3.95606C23.3223 3.95139 23.3317 3.94439 23.341 3.93973C23.4227 3.88839 23.516 3.86039 23.6117 3.86039C23.866 3.86039 24.0713 4.04239 24.0713 4.26873C24.0713 4.28039 24.0713 4.28973 24.0713 4.29906C24.0597 4.44373 24.1297 4.58139 24.2534 4.65839C24.3957 4.74006 24.4867 4.89173 24.4913 5.05739C24.4913 5.32339 24.2487 5.54039 23.95 5.54039C23.74 5.54039 23.5673 5.71073 23.5673 5.92306C23.5673 6.13306 23.7377 6.30339 23.95 6.30573C24.6687 6.30573 25.2543 5.74573 25.2543 5.05973C25.2543 4.70506 25.098 4.36906 24.8297 4.14039C24.762 3.55473 24.2417 3.09973 23.614 3.09973C23.495 3.09973 23.3783 3.11606 23.264 3.14873C22.9933 2.86639 22.6177 2.70539 22.2257 2.71006C21.4533 2.71006 20.8257 3.30973 20.8257 4.04706C20.8257 4.17539 20.8443 4.30373 20.884 4.42739C20.7557 4.59306 20.6857 4.79606 20.6833 5.00606C20.6833 5.21606 20.8537 5.38639 21.066 5.38639V5.38406Z" fill="black"/>
<path d="M24.8088 7.05706C24.4984 7.08973 24.2138 7.23906 24.0108 7.47706C23.8054 7.71273 23.7098 8.02306 23.7448 8.33339C23.7564 8.43139 23.7798 8.52706 23.8171 8.61806C23.7331 8.76973 23.6981 8.94239 23.7191 9.11273C23.7424 9.32273 23.9314 9.47439 24.1414 9.44873C24.3514 9.42306 24.5031 9.2364 24.4774 9.0264C24.4774 8.9984 24.4891 8.97039 24.5148 8.95406C24.6781 8.82339 24.7061 8.58773 24.5778 8.42206C24.5381 8.37073 24.5124 8.31006 24.5054 8.24706C24.4961 8.14673 24.5264 8.04639 24.5941 7.97173C24.6711 7.88306 24.7784 7.82706 24.8974 7.81539C25.0584 7.79439 25.2194 7.86206 25.3151 7.99273C25.4341 8.16773 25.6721 8.21206 25.8448 8.09306C25.8541 8.08606 25.8634 8.07906 25.8704 8.07206C25.9194 8.03239 25.9778 8.00906 26.0408 8.00206C26.2018 7.98339 26.3464 8.0814 26.3628 8.2214C26.3628 8.22839 26.3628 8.23539 26.3628 8.24006C26.3674 8.38473 26.4514 8.5154 26.5821 8.57606C26.6801 8.61806 26.7501 8.70906 26.7641 8.81406C26.7711 8.89573 26.7454 8.97506 26.6918 9.03806C26.6288 9.11039 26.5378 9.15706 26.4421 9.16639C26.2321 9.18973 26.0804 9.37873 26.1061 9.58873C26.1271 9.7824 26.2904 9.92706 26.4841 9.92939C26.4981 9.92939 26.5121 9.92939 26.5261 9.92706C26.8154 9.89673 27.0838 9.75673 27.2728 9.53506C27.6531 9.09873 27.6064 8.43606 27.1678 8.05573C27.1444 8.03473 27.1188 8.01373 27.0931 7.99506C26.9508 7.49806 26.4678 7.17606 25.9544 7.24139C25.8681 7.25073 25.7818 7.27173 25.7001 7.29973C25.4458 7.10373 25.1261 7.01506 24.8088 7.05239V7.05706Z" fill="black"/>
<path d="M33.463 24.3401L28.2737 21.6964C27.422 21.2601 26.4303 21.1807 25.518 21.4771L23.4857 22.1374C21.8733 19.5194 20.8303 17.1091 20.3707 14.9367C20.296 14.5891 19.9903 14.3417 19.6357 14.3417H19.1737V13.6931C19.6263 14.0221 20.2563 14.2507 21.0823 14.2507C21.2713 14.2507 21.458 14.2391 21.6447 14.2181C22.4263 14.1294 23.2687 13.6091 23.2687 12.6827C23.264 11.9267 22.76 11.2687 22.032 11.0681V11.0634C22.0297 10.4964 21.7847 9.9574 21.36 9.58173C21.5397 9.1944 21.6307 8.7744 21.6307 8.34973C21.6307 6.65106 20.1677 5.2674 18.371 5.2674C17.265 5.2674 16.257 5.7854 15.6573 6.6394C15.277 6.46206 14.8617 6.37106 14.4393 6.3734C12.9203 6.3734 11.686 7.53773 11.6767 8.97273C10.9417 9.48839 10.503 10.3261 10.4983 11.2221C10.4983 12.7807 11.84 14.0501 13.4897 14.0501C14.1103 14.0501 14.7147 13.8657 15.2303 13.5204V14.3441H14.9993C14.6447 14.3441 14.339 14.5937 14.2643 14.9391C13.59 18.1451 11.6697 21.8691 8.557 26.0061C6.70434 28.4514 4.686 30.7637 2.51367 32.9291C2.264 33.1764 2.26167 33.5801 2.509 33.8297C2.628 33.9511 2.79134 34.0187 2.96167 34.0187H31.8693C32.2217 34.0187 32.5063 33.7341 32.5063 33.3817C32.5063 33.2091 32.4363 33.0434 32.3127 32.9244C30.1007 30.7614 28.045 28.4491 26.1573 25.9991C25.917 25.6841 25.6837 25.3714 25.4573 25.0634H33.2857C33.4957 25.0634 33.6683 24.8931 33.6683 24.6807C33.6683 24.5361 33.5867 24.4054 33.4607 24.3401H33.463ZM13.4943 13.2824C12.267 13.2824 11.2683 12.3561 11.2683 11.2174C11.2683 10.5221 11.644 9.87573 12.2717 9.49306C12.3953 9.4184 12.4653 9.2784 12.4537 9.13373C12.449 9.07773 12.4467 9.02873 12.4467 8.9844C12.4467 7.9624 13.345 7.13173 14.4463 7.13173C14.8523 7.13173 15.249 7.24606 15.5897 7.46539C15.767 7.57973 16.0027 7.5284 16.117 7.3534C16.124 7.34406 16.1287 7.33473 16.1333 7.3254C16.558 6.52506 17.4167 6.02806 18.3733 6.02806C19.75 6.02806 20.87 7.06873 20.87 8.34506C20.87 8.74873 20.758 9.14306 20.5457 9.48606C20.436 9.66339 20.492 9.89673 20.667 10.0087C21.0357 10.2327 21.2643 10.6294 21.269 11.0611C21.269 11.1451 21.2597 11.2291 21.2433 11.3107C21.199 11.5161 21.3297 11.7191 21.5373 11.7634C21.5607 11.7681 21.5863 11.7704 21.612 11.7727C22.109 11.7821 22.5057 12.1857 22.5103 12.6827C22.5103 13.2101 21.9153 13.4201 21.563 13.4597C19.911 13.6487 19.33 12.8507 19.1783 12.5614V10.8534C19.1783 10.6434 19.008 10.4707 18.7957 10.4707C18.5833 10.4707 18.413 10.6411 18.413 10.8534V14.3417H15.998V10.8534C15.998 10.6434 15.8277 10.4707 15.6153 10.4707C15.403 10.4707 15.2327 10.6411 15.2327 10.8534V12.5077C14.7917 13.0071 14.157 13.2894 13.492 13.2847L13.4943 13.2824ZM15.0133 15.1024H19.6287C19.9857 16.7847 20.6763 18.6001 21.6913 20.5321C21.3623 20.8074 20.8747 20.7654 20.597 20.4387C20.478 20.2987 20.415 20.1214 20.415 19.9394V18.6187C20.415 18.0261 19.9343 17.5431 19.3393 17.5431C18.7443 17.5431 18.2637 18.0237 18.2637 18.6187V19.4237C18.2637 19.5777 18.1353 19.7014 17.9813 19.6991C17.8297 19.6991 17.7083 19.5754 17.706 19.4237V18.7051C17.706 18.1544 17.2603 17.7087 16.7097 17.7087C16.159 17.7087 15.7133 18.1544 15.7133 18.7051V20.7654C15.7133 20.9217 15.5873 21.0477 15.431 21.0477C15.2747 21.0477 15.1487 20.9217 15.1487 20.7654V18.7914C15.1487 18.2571 14.759 17.8044 14.2317 17.7227C14.556 16.8711 14.815 15.9937 15.0087 15.1024H15.0133ZM31.566 33.2534H3.272C5.38834 31.1231 7.35767 28.8551 9.17067 26.4611C11.308 23.6167 12.897 20.9544 13.9213 18.5091C14.0753 18.4274 14.269 18.4857 14.3507 18.6397C14.3763 18.6864 14.388 18.7377 14.388 18.7891V20.7631C14.388 21.3394 14.857 21.8084 15.4333 21.8084C16.0097 21.8084 16.4787 21.3394 16.4787 20.7631V18.7027C16.4787 18.5744 16.5837 18.4717 16.7097 18.4717C16.8357 18.4717 16.9407 18.5767 16.9407 18.7027V19.4214C16.9453 19.9977 17.4167 20.4597 17.9907 20.4551C18.56 20.4504 19.022 19.9907 19.0243 19.4214V18.6164C19.0243 18.4437 19.1643 18.3061 19.3347 18.3061C19.505 18.3061 19.645 18.4461 19.645 18.6164V19.9371C19.645 20.7887 20.3357 21.4771 21.1873 21.4771C21.4953 21.4771 21.7987 21.3837 22.053 21.2111C22.984 22.8794 24.1483 24.6294 25.5507 26.4611C27.3987 28.8574 29.4053 31.1277 31.559 33.2534H31.566ZM24.916 24.2957C24.5613 23.7894 24.2253 23.2924 23.908 22.8001L25.756 22.2004C26.4747 21.9671 27.2563 22.0277 27.9283 22.3731L31.7013 24.2957H24.9137H24.916Z" fill="black"/>
<path d="M14.5023 23.3134C14.311 23.2271 14.0847 23.3134 13.9983 23.5047C13.982 23.5397 12.3603 27.1074 8.87201 31.3961C8.73668 31.5594 8.76001 31.7997 8.92335 31.9327C9.08668 32.0681 9.32701 32.0447 9.46001 31.8814C9.46001 31.8814 9.46001 31.8791 9.46235 31.8767C13.0137 27.5111 14.626 23.9667 14.6937 23.8174C14.78 23.6261 14.6937 23.3997 14.5023 23.3134Z" fill="black"/>
<path d="M20.1584 23.3087C19.9624 23.3881 19.8691 23.6097 19.9484 23.8057C20.0254 23.9947 21.8688 28.4957 25.2078 31.9047C25.3548 32.0564 25.5974 32.0587 25.7468 31.9094C25.8984 31.7624 25.9008 31.5197 25.7514 31.3704C22.5198 28.0711 20.6718 23.5631 20.6531 23.5187C20.5738 23.3227 20.3521 23.2294 20.1561 23.3087H20.1584Z" fill="black"/>
</svg>
