<svg id="Layer_1" data-name="Layer 1" xmlns="http://www.w3.org/2000/svg" viewBox="0 0 1000 1000"><defs><style>.cls-1{fill:#ff9903;}</style></defs><path class="cls-1" d="M917.19,130.52H800.13V79.25A25,25,0,0,0,775.2,54.32H711.43A25,25,0,0,0,686.5,79.25v51.09h-373V79.25a25,25,0,0,0-24.93-24.93H224.8a25,25,0,0,0-24.93,24.93v51.09H82.81a28.25,28.25,0,0,0-28.22,28.22v758.9a28.25,28.25,0,0,0,28.22,28.22H917.19a28.16,28.16,0,0,0,20.2-8.41,27.53,27.53,0,0,0,8-19.81V158.74A28.25,28.25,0,0,0,917.19,130.52Zm-686.1,75.65V85.72h50.83V206.17Zm486.81,0V85.72h50.83V206.17ZM224.8,237.39h63.77a24.91,24.91,0,0,0,24.93-24.93v-50.9h373v50.9a25,25,0,0,0,24.93,24.93H775.2a25,25,0,0,0,24.93-24.93V161.74H914.19V307.41H326.91a11.12,11.12,0,0,0-2.34-.18H85.81V161.56H199.87v50.9A25,25,0,0,0,224.8,237.39ZM914.19,338.63V914.28H85.81V338.63Z"/><path class="cls-1" d="M744.68,519.9h67.07A24.22,24.22,0,0,0,836,495.71V428.64a24.23,24.23,0,0,0-24.2-24.2H744.68a24.22,24.22,0,0,0-24.19,24.2v67.07A24.22,24.22,0,0,0,744.68,519.9Zm7-31.21v-53h53v53Z"/><path class="cls-1" d="M559.21,519.9h67.06a24.22,24.22,0,0,0,24.2-24.19V428.64a24.23,24.23,0,0,0-24.2-24.2H559.21a24.23,24.23,0,0,0-24.2,24.2v67.07A24.22,24.22,0,0,0,559.21,519.9Zm60-84.24v53h-53v-53Z"/><path class="cls-1" d="M373.73,519.9h67.06A24.22,24.22,0,0,0,465,495.71V428.64a24.23,24.23,0,0,0-24.2-24.2H373.73a24.23,24.23,0,0,0-24.2,24.2v67.07A24.22,24.22,0,0,0,373.73,519.9Zm7-31.21v-53h53v53Z"/><path class="cls-1" d="M744.68,684.18h67.07A24.22,24.22,0,0,0,836,660V592.92a24.23,24.23,0,0,0-24.2-24.2H744.68a24.22,24.22,0,0,0-24.19,24.2V660A24.22,24.22,0,0,0,744.68,684.18Zm7-31.21v-53h53v53Z"/><path class="cls-1" d="M559.21,684.18h67.06A24.22,24.22,0,0,0,650.47,660V592.92a24.23,24.23,0,0,0-24.2-24.2H559.21a24.23,24.23,0,0,0-24.2,24.2V660A24.22,24.22,0,0,0,559.21,684.18Zm60-84.24v53h-53v-53Z"/><path class="cls-1" d="M373.73,684.18h67.06A24.22,24.22,0,0,0,465,660V592.92a24.23,24.23,0,0,0-24.2-24.2H373.73a24.23,24.23,0,0,0-24.2,24.2V660A24.22,24.22,0,0,0,373.73,684.18Zm7-31.21v-53h53v53Z"/><path class="cls-1" d="M188.25,684.18h67.06A24.18,24.18,0,0,0,272.69,677a23.53,23.53,0,0,0,6.82-17V592.92a24.23,24.23,0,0,0-24.2-24.2H188.25a24.23,24.23,0,0,0-24.2,24.2V660A24.22,24.22,0,0,0,188.25,684.18Zm60-84.24v53h-53v-53Z"/><path class="cls-1" d="M559.21,848.65h67.06a24.23,24.23,0,0,0,24.2-24.2V757.39a24.23,24.23,0,0,0-24.2-24.2H559.21a24.22,24.22,0,0,0-24.2,24.2v67.06A24.23,24.23,0,0,0,559.21,848.65Zm60-84.24v52.84h-53V764.41Z"/><path class="cls-1" d="M373.73,848.65h67.06a24.23,24.23,0,0,0,24.2-24.2V757.39a24.23,24.23,0,0,0-24.2-24.2H373.73a24.22,24.22,0,0,0-24.2,24.2v67.06A24.23,24.23,0,0,0,373.73,848.65Zm7-31.4V764.41h53v52.84Z"/><path class="cls-1" d="M188.25,848.65h67.06a24.19,24.19,0,0,0,17.38-7.23,23.52,23.52,0,0,0,6.82-17V757.39a24.22,24.22,0,0,0-24.2-24.2H188.25a24.23,24.23,0,0,0-24.2,24.2v67.06A24.23,24.23,0,0,0,188.25,848.65Zm60-84.24v52.84h-53V764.41Z"/></svg>