<svg id="Layer_1" data-name="Layer 1" xmlns="http://www.w3.org/2000/svg" viewBox="0 0 1000 1000"><defs><style>.cls-1{fill:#ff9903;}</style></defs><path class="cls-1" d="M500,971.12C239.79,971.12,28.88,760.21,28.88,500S239.79,28.88,500,28.88,971.12,239.79,971.12,500C970.74,760,760,970.74,500,971.12Zm0-909.69C257.68,61.43,61.43,257.87,61.43,500S257.87,938.57,500,938.57,938.57,742.13,938.57,500C938.38,257.87,742.13,61.62,500,61.43Z"/><path class="cls-1" d="M500,179.64a16.16,16.16,0,0,1-16.18-16.18v-28a16.18,16.18,0,1,1,32.36,0v28A16.16,16.16,0,0,1,500,179.64Z"/><path class="cls-1" d="M500,880.7a16.16,16.16,0,0,1-16.18-16.18v-28a16.18,16.18,0,1,1,32.36,0v28A16.16,16.16,0,0,1,500,880.7Z"/><path class="cls-1" d="M737.94,278.24a16.16,16.16,0,0,1-16.18-16.18,16,16,0,0,1,4.76-11.42l19.79-19.8a16.29,16.29,0,0,1,23,23l-19.8,19.79a17.07,17.07,0,0,1-11.61,4.57Z"/><path class="cls-1" d="M242.26,773.92a16.16,16.16,0,0,1-11.42-27.61l19.8-19.79a16.29,16.29,0,0,1,23,23l-19.79,19.8a17.51,17.51,0,0,1-11.62,4.57Z"/><path class="cls-1" d="M864.52,516.18h-28a16.18,16.18,0,1,1,0-32.36h28a16.18,16.18,0,1,1,0,32.36Z"/><path class="cls-1" d="M163.46,516.18h-28a16.18,16.18,0,0,1,0-32.36h28a16.18,16.18,0,1,1,0,32.36Z"/><path class="cls-1" d="M757.74,773.92a16,16,0,0,1-11.43-4.76l-19.79-19.8a16.29,16.29,0,0,1,23-23l19.8,19.79a16.44,16.44,0,0,1,0,23A16.8,16.8,0,0,1,757.74,773.92Z"/><path class="cls-1" d="M262.06,278.24a16,16,0,0,1-11.42-4.76l-19.8-19.79a16.29,16.29,0,0,1,23-23l19.79,19.8a16.43,16.43,0,0,1,0,23,17.07,17.07,0,0,1-11.61,4.76Z"/><path class="cls-1" d="M409.58,606.6a16.17,16.17,0,0,1-16.18-16.18A16,16,0,0,1,398.16,579l85.66-85.66v-237a16.18,16.18,0,1,1,32.36,0V500a15.94,15.94,0,0,1-4.76,11.42l-90.23,90.42A16.43,16.43,0,0,1,409.58,606.6Z"/></svg>