<svg width="28" height="28" viewBox="0 0 28 28" fill="none" xmlns="http://www.w3.org/2000/svg">
<path d="M27.998 14C27.998 21.0706 22.7569 26.9161 15.9482 27.8646C15.3115 27.9529 14.6602 27.999 13.999 27.999C13.2358 27.999 12.4864 27.9382 11.7566 27.8205C5.09109 26.7473 0 20.9676 0 14C0 6.26822 6.26822 0 14 0C21.7318 0 28 6.26822 28 14H27.998Z" fill="#1877F7"/>
<path d="M15.9482 11.2415V14.2912H19.7209L19.1235 18.3994H15.9482V27.8645C15.3116 27.9528 14.6602 27.9989 13.9991 27.9989C13.2359 27.9989 12.4864 27.9381 11.7566 27.8204V18.3994H8.27722V14.2912H11.7566V10.5597C11.7566 8.24471 13.6332 6.36719 15.9492 6.36719V6.36915C15.956 6.36915 15.9619 6.36719 15.9688 6.36719H19.7219V9.92016H17.2695C16.5407 9.92016 15.9492 10.5117 15.9492 11.2405L15.9482 11.2415Z" fill="white"/>
</svg>
