<svg width="28" height="28" viewBox="0 0 28 28" fill="none" xmlns="http://www.w3.org/2000/svg">
<path d="M27.998 14C27.998 21.0706 22.7569 26.9161 15.9482 27.8646C15.3115 27.9529 14.6602 27.999 13.999 27.999C13.2358 27.999 12.4864 27.9382 11.7566 27.8205C5.09109 26.7473 0 20.9676 0 14C0 6.26821 6.26822 0 14 0C21.7318 0 28 6.26821 28 14H27.998Z" fill="#5D5D5D"/>
<path d="M15.9482 11.2417V14.2915H19.7209L19.1235 18.3997H15.9482V27.8648C15.3115 27.9531 14.6602 27.9992 13.999 27.9992C13.2359 27.9992 12.4864 27.9383 11.7566 27.8206V18.3997H8.27721V14.2915H11.7566V10.56C11.7566 8.24495 13.6332 6.36743 15.9492 6.36743V6.3694C15.956 6.3694 15.9619 6.36743 15.9688 6.36743H19.7219V9.92041H17.2695C16.5407 9.92041 15.9492 10.5119 15.9492 11.2408L15.9482 11.2417Z" fill="white"/>
</svg>
