<svg width="97" height="45" viewBox="0 0 97 45" fill="none" xmlns="http://www.w3.org/2000/svg">
<g filter="url(#filter0_d_35_255)">
<path d="M83.1516 1.22237e-05C89.8029 1.16423e-05 91.0304 3.25612 92.0697 5.26261L86.9888 8.50388L83.1516 10.5875L83.1516 1.22237e-05Z" fill="#820E19"/>
<path d="M92.0697 23.7841C92.0697 31.9674 85.4522 38.6013 77.289 38.6013L11.7373 38.6013L2.00001 24.0156L11.7373 9.42996L71.2553 9.08267C78.5372 8.42147 85.5962 8.60697 92.0697 5.26261L92.0697 23.7841Z" fill="#FF0000"/>
</g>
<path d="M22.4359 20.4983V21.6957H19.3524V23.5925H21.7154V24.7687H19.3524V27.8947H17.8688V20.4983H22.4359ZM24.9714 26.7184H27.4085V27.8947H23.4879V20.4983H24.9714V26.7184ZM32.8867 26.4853H29.9409L29.4535 27.8947H27.8958L30.5555 20.4877H32.2827L34.9424 27.8947H33.3742L32.8867 26.4853ZM32.4841 25.2985L31.4138 22.2044L30.3436 25.2985H32.4841ZM38.4903 27.9688C37.9746 27.9688 37.5084 27.8805 37.0916 27.7039C36.6819 27.5273 36.3569 27.273 36.1167 26.941C35.8765 26.609 35.7529 26.2169 35.7459 25.7648H37.3353C37.3565 26.0685 37.4625 26.3087 37.6532 26.4853C37.851 26.6619 38.1195 26.7502 38.4585 26.7502C38.8047 26.7502 39.0767 26.669 39.2745 26.5065C39.4723 26.337 39.5712 26.118 39.5712 25.8495C39.5712 25.6305 39.5041 25.4504 39.3698 25.3091C39.2356 25.1678 39.0661 25.0583 38.8612 24.9806C38.6634 24.8959 38.3879 24.804 38.0347 24.7051C37.5543 24.5638 37.1623 24.4261 36.8585 24.2919C36.5618 24.1506 36.3039 23.9422 36.0849 23.6667C35.873 23.3841 35.7671 23.0097 35.7671 22.5435C35.7671 22.1055 35.8765 21.724 36.0955 21.399C36.3145 21.0741 36.6218 20.8268 37.0174 20.6573C37.413 20.4807 37.8651 20.3924 38.3738 20.3924C39.1367 20.3924 39.7548 20.5796 40.2282 20.954C40.7085 21.3213 40.9734 21.837 41.0229 22.5011H39.391C39.3769 22.2468 39.2674 22.0384 39.0625 21.8759C38.8647 21.7063 38.5998 21.6216 38.2678 21.6216C37.9782 21.6216 37.7451 21.6957 37.5684 21.8441C37.3989 21.9924 37.3141 22.2079 37.3141 22.4905C37.3141 22.6883 37.3777 22.8543 37.5049 22.9885C37.6391 23.1157 37.8016 23.2216 37.9923 23.3064C38.1901 23.3841 38.4656 23.4759 38.8188 23.5819C39.2992 23.7232 39.6913 23.8645 39.995 24.0058C40.2988 24.147 40.5602 24.359 40.7792 24.6415C40.9982 24.9241 41.1077 25.295 41.1077 25.7542C41.1077 26.1498 41.0052 26.5171 40.8004 26.8562C40.5955 27.1953 40.2953 27.4673 39.8997 27.6721C39.5041 27.8699 39.0343 27.9688 38.4903 27.9688ZM48.5291 20.4983V27.8947H47.0456V24.7475H43.8773V27.8947H42.3938V20.4983H43.8773V23.5395H47.0456V20.4983H48.5291ZM55.068 27.9688C54.5523 27.9688 54.086 27.8805 53.6692 27.7039C53.2595 27.5273 52.9345 27.273 52.6944 26.941C52.4542 26.609 52.3305 26.2169 52.3235 25.7648H53.9129C53.9341 26.0685 54.0401 26.3087 54.2308 26.4853C54.4286 26.6619 54.6971 26.7502 55.0362 26.7502C55.3823 26.7502 55.6543 26.669 55.8521 26.5065C56.0499 26.337 56.1488 26.118 56.1488 25.8495C56.1488 25.6305 56.0817 25.4504 55.9475 25.3091C55.8132 25.1678 55.6437 25.0583 55.4388 24.9806C55.241 24.8959 54.9655 24.804 54.6123 24.7051C54.1319 24.5638 53.7399 24.4261 53.4361 24.2919C53.1394 24.1506 52.8816 23.9422 52.6626 23.6667C52.4506 23.3841 52.3447 23.0097 52.3447 22.5435C52.3447 22.1055 52.4542 21.724 52.6732 21.399C52.8922 21.0741 53.1995 20.8268 53.5951 20.6573C53.9907 20.4807 54.4428 20.3924 54.9514 20.3924C55.7143 20.3924 56.3325 20.5796 56.8058 20.954C57.2861 21.3213 57.5511 21.837 57.6005 22.5011H55.9687C55.9545 22.2468 55.845 22.0384 55.6402 21.8759C55.4424 21.7063 55.1775 21.6216 54.8454 21.6216C54.5558 21.6216 54.3227 21.6957 54.1461 21.8441C53.9765 21.9924 53.8918 22.2079 53.8918 22.4905C53.8918 22.6883 53.9553 22.8543 54.0825 22.9885C54.2167 23.1157 54.3792 23.2216 54.5699 23.3064C54.7677 23.3841 55.0432 23.4759 55.3964 23.5819C55.8768 23.7232 56.2689 23.8645 56.5727 24.0058C56.8764 24.147 57.1378 24.359 57.3568 24.6415C57.5758 24.9241 57.6853 25.295 57.6853 25.7542C57.6853 26.1498 57.5828 26.5171 57.378 26.8562C57.1731 27.1953 56.8729 27.4673 56.4773 27.6721C56.0817 27.8699 55.6119 27.9688 55.068 27.9688ZM63.5067 26.4853H60.5609L60.0735 27.8947H58.5158L61.1755 20.4877H62.9027L65.5624 27.8947H63.9941L63.5067 26.4853ZM63.104 25.2985L62.0338 22.2044L60.9636 25.2985H63.104ZM68.0401 26.7184H70.4772V27.8947H66.5566V20.4983H68.0401V26.7184ZM72.9037 21.6957V23.5501H75.3938V24.7263H72.9037V26.6867H75.7117V27.8947H71.4202V20.4877H75.7117V21.6957H72.9037Z" fill="white"/>
<defs>
<filter id="filter0_d_35_255" x="0.486224" y="0" width="96.1248" height="44.6564" filterUnits="userSpaceOnUse" color-interpolation-filters="sRGB">
<feFlood flood-opacity="0" result="BackgroundImageFix"/>
<feColorMatrix in="SourceAlpha" type="matrix" values="0 0 0 0 0 0 0 0 0 0 0 0 0 0 0 0 0 0 127 0" result="hardAlpha"/>
<feOffset dx="1.51378" dy="3.02755"/>
<feGaussianBlur stdDeviation="1.51378"/>
<feComposite in2="hardAlpha" operator="out"/>
<feColorMatrix type="matrix" values="0 0 0 0 0 0 0 0 0 0 0 0 0 0 0 0 0 0 0.25 0"/>
<feBlend mode="normal" in2="BackgroundImageFix" result="effect1_dropShadow_35_255"/>
<feBlend mode="normal" in="SourceGraphic" in2="effect1_dropShadow_35_255" result="shape"/>
</filter>
</defs>
</svg>
