<svg xmlns="http://www.w3.org/2000/svg" xmlns:xlink="http://www.w3.org/1999/xlink" version="1.1" id="Layer_1" x="0px" y="0px" viewBox="0 0 3000 1428.9" style="enable-background:new 0 0 3000 1428.9;" xml:space="preserve"> <style type="text/css"> .st0{fill:#2289C1;} .st1{fill:#F8991D;} </style> <g> <path class="st0" d="M2568.4,453c11.8,0,22.7-4.5,30.9-11.7c0.1,0-0.2,0.1-0.2,0.1c23-20.1,54.4-42.3,75.7-64.2 c-0.1,0-0.1-0.1-0.1-0.1c5.5-6.1,8.9-14,8.9-22.8c0-7.6-2.6-14.4-6.8-20.1c-14.2-18.8-33.2-33.8-55.4-42.9 c-3.1-0.9-6.3-1.6-9.6-1.6c-8.8,0-16.6,3.4-22.6,8.9c-25.5,26.2-43.2,53.8-59.8,82.3c0,0,0.1,0,0.1,0.1c-4.8,7.3-7.6,16.1-7.6,25.5 C2521.9,432.1,2542.7,453,2568.4,453z"></path> <path class="st0" d="M2557.4,546.9c4.3-7,6.2-15.4,4.5-24.1c-1.4-7.4-5.2-13.7-10.4-18.5c-17.4-15.9-38.9-27-62.4-31.8 c-3.2-0.3-6.4-0.4-9.8,0.2c-8.6,1.6-15.7,6.5-20.6,12.9c-28.5,43.1-53.9,88.2-76.5,134.9l-2,4.1l0.1,0.1 c-32.3,71.1-57.6,146-74.9,224c-0.2,2.5-0.4,5.1-0.4,7.7c0,45.5,36.9,82.3,82.4,82.3c6.9,0,13.4-1.1,19.8-2.7 c17.4-111.2,54.1-216.3,104.3-312.6c14.3-26.1,29.5-51.7,46-76.5C2557.5,547,2557.4,546.9,2557.4,546.9z"></path> <path class="st0" d="M1073.4,936.6c18.8-120.2,58.5-233.8,112.7-337.9c15.5-28.2,31.9-55.9,49.7-82.7c-0.1,0-0.1-0.1-0.1-0.1 c4.6-7.5,6.6-16.7,4.9-26c-1.5-8-5.7-14.8-11.2-20c-18.9-17.2-42.1-29.2-67.4-34.4c-3.4-0.4-7-0.4-10.6,0.3 c-9.3,1.8-16.9,7-22.2,14c-11.1,16.8-21.6,33.9-31.8,51.2c-10.3-21.8-24.8-35.2-36.2-42.9c-17.7-11.9-39.1-18.1-61.8-17.8 c-83.3,1.2-168.6,83.9-220.6,160.9c-37.1,54.9-62.8,113.8-72.3,165.9c-16.9,92.3,20.9,133.4,45,149.6c17.7,12,39.1,18.1,61.8,17.8 c52.2-0.7,105.1-33.4,150.2-76.7c3.7,45.8,41.9,81.8,88.6,81.8C1059.4,939.5,1066.5,938.3,1073.4,936.6z M1008.7,676 c-18.7,36.8-44.9,75.7-73.5,109.4c-40.3,47.4-93.1,92.8-120.8,78.2c-7.6-4-12.8-12.5-15-24.6c-3-16.5-3.2-53.9,30.1-119.1 c18.8-36.8,44.9-75.7,73.5-109.4c40.2-47.4,93.1-92.8,120.8-78.2c7.6,4,12.8,12.5,15,24.6C1041.9,573.3,1042,610.8,1008.7,676z"></path> <path class="st0" d="M2366.6,516c-0.1,0-0.1-0.1-0.1-0.1c4.6-7.5,6.6-16.7,4.9-26c-1.5-8-5.7-14.8-11.2-20 c-18.9-17.2-42.1-29.2-67.4-34.4c-3.4-0.4-7-0.4-10.6,0.3c-9.3,1.8-16.9,7-22.2,14c-11.1,16.8-21.6,33.9-31.8,51.2 c-10.3-21.8-24.8-35.2-36.2-42.9c-17.7-11.9-39.1-18.1-61.8-17.8c-83.3,1.2-168.6,83.9-220.6,160.9 c-37.1,54.9-62.8,113.8-72.3,165.9c-16.9,92.3,20.9,133.4,45,149.6c17.7,12,39.1,18.1,61.8,17.8c52.2-0.7,105.1-33.4,150.2-76.7 c3.7,45.8,41.9,81.8,88.6,81.8c7.4,0,14.5-1.2,21.4-2.9c18.8-120.2,58.5-233.8,112.7-337.9C2332.4,570.5,2348.8,542.8,2366.6,516z M2139.5,676c-18.7,36.8-44.9,75.7-73.5,109.4c-40.3,47.4-93.1,92.8-120.8,78.2c-7.6-4-12.8-12.5-15-24.6 c-3-16.5-3.2-53.9,30.1-119.1c18.8-36.8,44.9-75.7,73.5-109.4c40.2-47.4,93.1-92.8,120.8-78.2c7.6,4,12.8,12.5,15,24.6 C2172.7,573.3,2172.8,610.8,2139.5,676z"></path> <path class="st0" d="M2948.5,298.5c0-7.6-2.6-14.4-6.7-20.1c-14.2-18.8-33.2-33.8-55.4-42.9c-3.1-0.9-6.3-1.6-9.7-1.6 c-8.8,0-16.6,3.5-22.6,8.9c-25.5,26.2-43.2,53.8-59.8,82.3c0,0,0,0,0.1,0.1c-4.8,7.3-7.6,16.1-7.6,25.5c0,25.7,20.8,46.5,46.5,46.5 c11.8,0,22.4-4.2,30.5-11.4c0.1,0,0.1-0.2,0.2-0.2c23-20.1,54.4-42.3,75.7-64.2c0,0-0.1-0.1-0.1-0.1 C2945.1,315.3,2948.5,307.3,2948.5,298.5z"></path> <path class="st0" d="M2817.2,467c-0.9-7.5-4.4-14-9.2-19.1c-16.4-16.9-37.2-29.3-60.3-35.6c-3.2-0.5-6.4-0.8-9.8-0.3 c-8.7,1.1-16,5.5-21.3,11.7c-31.1,41.3-59.2,84.8-84.5,130l-16.1,31.2l0.1,0c-6.2,11.8-12.2,23.7-18,35.7l-2,4.1l0.1,0.1 c-32.3,71.1-57.6,146-74.8,224c-0.2,2.6-0.4,5.1-0.4,7.7c0,45.5,36.9,82.3,82.4,82.3c6.9,0,13.4-1.1,19.8-2.7 c17.2-109.9,54-213.9,103.4-309.3l0,0c10.9-21.2,22.4-42.1,34.6-62.4c15.9-25.2,32.6-49.8,50.6-73.5c0,0-0.1-0.1-0.1-0.1 C2816,484.1,2818.4,475.8,2817.2,467z"></path> <path class="st0" d="M927.9,315.2c0,0-0.1-0.1-0.1-0.1c5.9-5.6,10-13.3,10.7-22c0.6-7.5-1.4-14.6-5.1-20.6 c-12.6-19.9-30.4-36.3-51.7-47.2c-3-1.2-6.1-2.1-9.5-2.3c-8.7-0.7-16.8,2.1-23.3,7c-32.6,28.5-63.5,59-92.8,91.1 c-71.9,78-133,165.9-181.3,261.4c-47.4-7.5-95.3-12.1-143.5-13.6c41.8-69.6,91.5-133.9,148-191.7c0,0-0.1-0.1-0.1-0.1 c5.5-6.1,8.9-14,8.9-22.8c0-7.6-2.6-14.4-6.7-20.1c-14.2-18.8-33.2-33.8-55.4-42.9c-3.1-0.9-6.3-1.6-9.7-1.6 c-8.7,0-16.6,3.4-22.6,8.9c-78.6,80.8-145.3,173.1-197.6,274.1c-64.6,5.7-129.3,16.8-193.2,33.9c-2.4,1-4.8,2-7.1,3.2 c-40.3,21-56.1,70.7-35.1,111c3.2,6.1,7.2,11.4,11.5,16.3c55.7-18.7,112.1-32.2,168.9-40.9c-18.5,49.3-33.6,100.2-45.2,152.5 c-0.2,2.5-0.4,5.1-0.4,7.7c0,45.5,36.9,82.3,82.3,82.3c6.9,0,13.4-1.1,19.8-2.7c13.8-88,39-172.1,73.7-251.2 c51.9-1.2,103.6,1.5,154.7,8c-19.1,50.4-34.8,102.4-46.6,155.9c-0.2,2.5-0.4,5.1-0.4,7.7c0,45.5,36.9,82.3,82.3,82.3 c6.9,0,13.4-1.1,19.8-2.7c29-184.9,107.8-353.2,221.8-491.7C840.9,397.8,882.8,354.4,927.9,315.2z"></path> <path class="st0" d="M663.9,1061.6c-2.1,4.1-3.1,9.9-3.1,17.7s1,14,3.1,18.1h71.2v201.3c3.8,2.4,10.2,3.4,20.1,3.4 c9.9,0,16.7-1,20.4-3.4v-201.3h71.2c2-4.1,3-10.2,3-18.1c0-7.8-1-13.6-3-17.7L663.9,1061.6L663.9,1061.6z"></path> <path class="st0" d="M1077.1,1053.7c-64.7,0-110.7,46.3-110.7,124.7c0,86.8,39.9,130.1,110.7,130.1c67.4,0,111-45.6,111-130.1 C1188.1,1097,1143.1,1053.7,1077.1,1053.7z M1077.1,1272.4c-43.9,0-68.8-34.1-68.8-94c0-55.5,23.9-89.2,68.8-89.2 c41.9,0,69.1,33.7,69.1,89.2C1146.2,1238,1122,1272.4,1077.1,1272.4z"></path> <path class="st0" d="M1489.9,1063.6v146.8c0,37.8-16.7,61.3-58.2,61.3c-37.5,0-54.8-18.7-54.8-60.3v-147.8 c-3.8-2.4-10.6-3.4-20.4-3.4c-9.9,0-16.3,1-20.1,3.4v151.6c0,61.6,30.6,93.3,94.3,93.3c69.2,0,98.8-38.1,98.8-100.8v-144.1 c-3.8-2.4-10.2-3.4-19.7-3.4C1499.8,1060.2,1493.6,1061.2,1489.9,1063.6z"></path> <path class="st0" d="M1861.9,1135.1c0-54.5-39.2-77.3-104.5-77.3c-27.6,0-49.4,2.4-66.8,6.5v234.3c3.8,2.4,10.2,3.4,20.1,3.4 c9.8,0,16.7-1,20.4-3.4v-86.9c9.2,1.4,27.6,2.7,39.2,2.7c3.1,0,7.2,0,10.2-0.3l51.1,83.8c5.1,2.7,13.6,4.1,25.2,4.1 c10.9,0,19.1-1.4,22.1-4.1l-58.6-93.3C1845.5,1193.7,1861.9,1170.5,1861.9,1135.1z M1764.5,1179.7c-11.2,0-25.5-1-33.4-2.7v-81.4 c7.5-1.7,17-2.7,28.3-2.7c38.5,0,61,13,61,45C1820.3,1167.8,1799.6,1179.7,1764.5,1179.7z"></path> <path class="st0" d="M2051.3,1117.7c0-18,13.3-29.3,41.2-29.3c23.5,0,46.3,8.2,64,20.1c2.4-12.6-1-29.6-7.5-39.5 c-16.3-10.6-36.8-15.3-58.9-15.3c-49.7,0-79.7,24.2-79.7,69.5c0,85.1,117.2,57.2,117.2,114.4c0,21.8-14,35.4-48,35.4 c-25.6,0-56.2-7.8-75.3-19.7c-2,12.3,0.7,29.9,7.5,40.5c17,9.5,41.5,14.7,67.4,14.7c48.7,0,88.9-18.7,88.9-76 C2168.1,1145.7,2051.3,1171.6,2051.3,1117.7z"></path> <path class="st0" d="M1845.6,519.9c-1.6-3-3.8-5.4-6.1-7.7c-18.7-14.9-41-24.4-64.3-27.6c-7-0.9-14.2,0.2-20.8,3.8 c-7.7,4.3-13,11.1-15.7,18.9c-0.1,0-0.1,0-0.2,0c-8.5,28.5-18.5,56.5-29.4,84.2c-31.7,75.7-63,156.5-122.3,216.1 c-7.3,7.3-17.9,18.6-30.4,27.8c-15,11.1-28.2,15-37.2,10.1c-24.3-13.3-9.8-86.5,32.3-163.4c18.5-33.8,58.4-93.2,99.3-148.2 c0,0-0.1-0.1-0.1-0.1c3.2-4.1,5.2-9.2,5.7-14.7c0.1-2.1,0.1-4.2-0.2-6.3c-1.2-7.5-4.9-13.8-9.9-18.7c-17-16.3-38.3-27.9-61.6-33.3 c-3.2-0.4-6.4-0.6-9.8,0c-8.7,1.4-15.8,6.1-20.9,12.4c-5.6,8-10.9,16.1-16.3,24.3c-0.1,0-0.2,0.3-0.3,0.3 c-45.9,74.3-73.6,156.9-112.2,236.9c-20.3,42.1-40.8,65.4-60.9,85.2c-6.5,6.9-12.6,12.1-18.1,15.6c-15.1,11-28.2,15-37.2,10.1 c-24.3-13.3-9.8-86.5,32.3-163.4c18.5-33.8,58.3-93.2,99.3-148.2c0,0-0.1-0.1-0.1-0.1c3.2-4.1,5.2-9.2,5.7-14.7 c0.1-2.1,0.1-4.2-0.2-6.3c-1.2-7.5-4.9-13.8-9.9-18.7c-17-16.3-38.3-27.9-61.6-33.3c-3.2-0.4-6.4-0.6-9.8,0 c-6.7,1.1-12.4,4.2-17.1,8.4c-0.1,0.1-0.1,0.1-0.2,0.2c-1.3,1.2-2.5,2.5-3.7,3.9c-0.2,0.2-0.3,0.5-0.5,0.7 c-36.5,39.7-69.6,88-96.1,143.2c-34.2,71.3-52.6,144-56.4,210.5c0,0.3-0.1,0.7-0.1,1.1c-0.3,3.3-0.5,6.6-0.7,9.9 c-0.1,2.9-0.2,5.8-0.2,8.6c0,3.2,0.2,6.2,0.4,9.3c0.2,2.8,0.4,5.5,0.7,8.2c0.4,2.9,0.9,5.7,1.5,8.5c0.5,2.6,1,5.2,1.7,7.7 c0.7,2.6,1.6,5,2.5,7.5c0.8,2.4,1.6,4.9,2.7,7.2c1,2.2,2.2,4.2,3.4,6.3c1.2,2.2,2.3,4.6,3.8,6.7c0.4,0.6,1,1.1,1.4,1.8 c3.8,5.3,8.4,9.9,13.5,13.9c1.5,1.2,2.8,2.5,4.4,3.6c0.2,0.1,0.3,0.1,0.4,0.2c0.4,0.2,0.7,0.6,1.1,0.8c5.9,3.7,12.3,6.4,19,8.2 c0.1,0,0.1,0,0.2,0.1c0.1,0,0.1,0,0.2,0c3.2,0.8,6.5,1.4,9.8,1.8c0.4,0.1,0.8,0.2,1.2,0.2c3.5,0.4,7,0.5,10.6,0.5 c0.3,0,0.6,0,0.9,0c3.8-0.1,7.6-0.4,11.4-1c0.2,0,0.3,0,0.4,0c39.9-5.9,84.7-35.7,119.5-82.4c0,0,0,0,0,0.1 c0.2,2.8,0.4,5.5,0.7,8.2c0,0.3,0.1,0.6,0.2,0.8c0.3,21.4,7.9,41.6,23,56.7c4.2,4.2,9.2,7.6,14.5,10.5c-0.1,0.1-0.1,0.2-0.2,0.2 c0.7,0.4,1.4,0.6,2.1,0.9c3.4,1.7,7,3.3,10.8,4.5c72.8,25.2,187.2-29,273.9-135.4c34.3-42.1,59.5-86.7,75.4-129.5c0,0,0,0-0.1,0 c18.5-42.2,34.7-85.3,48-129.3C1850.6,536.1,1849.8,527.6,1845.6,519.9z"></path> <g> <path class="st1" d="M1589.7,381.2c0-34.2,27.7-61.9,61.9-61.9s61.9,27.7,61.9,61.9s-27.7,61.9-61.9,61.9 S1589.7,415.4,1589.7,381.2z"></path> <path class="st1" d="M1467.2,244.3c-0.6-0.4-1.2-0.8-1.8-1.2c-16.4-10-36.4-9.2-51.6,0.4l0,0c0,0-0.1,0-0.1,0.1 c-0.1,0.1-0.2,0.2-0.3,0.2c-13,8.4-24.9,20.4-34.2,35.6c-9.2,15.1-14.5,31.2-16.1,46.6c0,0.1,0,0.3,0,0.4c0,0,0,0.1,0,0.1l0,0 c-1.6,17.9,6.8,36.1,23.2,46.1c0.6,0.4,1.2,0.8,1.9,1.1l0,0c33,18.2,67.8,30.2,103.3,36.1c0.7,0.1,1.3,0.2,2,0.3l0,0l0,0 c21.7,3.2,44.2-6.6,56.4-26.5c12.2-19.9,10.6-44.4-2.2-62.3l0,0h0c-0.4-0.6-0.8-1.1-1.2-1.6C1525,290.9,1498.4,265.3,1467.2,244.3 L1467.2,244.3z"></path> <path class="st1" d="M1635.1,147.4c-0.2-0.6-0.5-1.2-0.8-1.8c-6.9-15.4-21.8-24.6-37.6-25.2l0,0c0,0-0.1,0-0.1,0 c-0.1,0-0.2,0-0.4,0c-13.5-0.3-28.1,2.5-42.3,8.9c-14.2,6.4-26,15.5-34.7,25.8c-0.1,0.1-0.2,0.2-0.2,0.3c0,0,0,0-0.1,0.1l0,0 c-10.1,12.2-12.9,29.5-6,44.9c0.2,0.6,0.5,1.2,0.8,1.7l0,0c14.9,29.5,34.3,55.3,57,77.1c0.4,0.4,0.9,0.8,1.3,1.2l0,0l0,0 c14.2,13,35.3,17.1,53.9,8.7c18.7-8.4,29.6-27,29.2-46.2l0,0l0,0c0-0.6,0-1.2-0.1-1.8C1654,209.7,1647.3,178.1,1635.1,147.4 L1635.1,147.4z"></path> <path class="st1" d="M1833,243c0.4-0.5,0.7-1,1.1-1.4c9.3-13,9.9-29.6,2.8-42.8l0,0c0,0,0,0,0-0.1c-0.1-0.1-0.1-0.2-0.2-0.3 c-6.1-11.3-15.4-21.9-27.4-30.5c-12-8.6-25-14-37.6-16.2c-0.1,0-0.2,0-0.3-0.1c0,0-0.1,0-0.1,0l0,0c-14.8-2.5-30.3,3.4-39.7,16.3 c-0.3,0.5-0.7,1-1,1.5l0,0c-17.1,26.2-29.2,54.4-36.3,83.4c-0.1,0.6-0.3,1.1-0.4,1.6l0,0l0,0c-4,17.8,2.7,37.1,18.5,48.4 c15.8,11.3,36.1,11.5,51.8,2l0,0h0c0.5-0.3,1-0.6,1.4-0.9C1790.8,288,1813.6,267.6,1833,243L1833,243z"></path> <path class="st1" d="M1849.5,440.1c0.5,0.1,1.1,0.2,1.6,0.2c14.4,1.6,27.8-5.3,35.1-16.7l0,0c0,0,0,0,0-0.1 c0.1-0.1,0.1-0.2,0.2-0.3c6.2-9.8,10.5-21.8,12-35.1s0-25.9-3.8-36.9c0-0.1-0.1-0.2-0.1-0.3c0,0,0,0,0-0.1l0,0 c-4.6-12.8-16.1-22.5-30.4-24.1c-0.6-0.1-1.1-0.1-1.6-0.2l0,0c-28.3-1.9-55.9,1-81.9,8.2c-0.5,0.1-1,0.3-1.5,0.4h0l0,0 c-15.8,4.7-28.1,18.5-30.1,36c-2,17.5,6.9,33.6,21.2,41.8l0,0l0,0c0.4,0.2,0.9,0.5,1.3,0.7 C1795.3,426.6,1821.5,435.6,1849.5,440.1C1849.5,440.1,1849.5,440.1,1849.5,440.1z"></path> </g> </g> </svg>