<svg width="28" height="28" viewBox="0 0 28 28" fill="none" xmlns="http://www.w3.org/2000/svg">
<path d="M14.0319 0H13.9681C6.25374 0 0 6.25374 0 13.9681V14.0319C0 21.7463 6.25374 28 13.9681 28H14.0319C21.7463 28 28 21.7463 28 14.0319V13.9681C28 6.25374 21.7463 0 14.0319 0Z" fill="url(#paint0_linear_68_174)"/>
<path d="M18.3324 5.69629H9.66846C7.27487 5.69629 5.32764 7.64353 5.32764 10.0371V17.9634C5.32764 20.357 7.27487 22.3042 9.66846 22.3042H18.3324C20.726 22.3042 22.6733 20.357 22.6733 17.9634V10.0371C22.6733 7.64353 20.726 5.69629 18.3324 5.69629ZM6.85894 10.0371C6.85894 8.48815 8.11949 7.22759 9.66846 7.22759H18.3324C19.8814 7.22759 21.142 8.48815 21.142 10.0371V17.9634C21.142 19.5124 19.8814 20.7729 18.3324 20.7729H9.66846C8.11949 20.7729 6.85894 19.5124 6.85894 17.9634V10.0371Z" fill="white"/>
<path d="M14.0005 18.0373C16.2263 18.0373 18.0382 16.2264 18.0382 13.9996C18.0382 11.7728 16.2273 9.96191 14.0005 9.96191C11.7737 9.96191 9.96277 11.7728 9.96277 13.9996C9.96277 16.2264 11.7737 18.0373 14.0005 18.0373ZM14.0005 11.4942C15.3827 11.4942 16.5069 12.6184 16.5069 14.0006C16.5069 15.3828 15.3827 16.507 14.0005 16.507C12.6183 16.507 11.4941 15.3828 11.4941 14.0006C11.4941 12.6184 12.6183 11.4942 14.0005 11.4942Z" fill="white"/>
<path d="M18.412 10.6143C19.0114 10.6143 19.4999 10.1267 19.4999 9.52638C19.4999 8.92602 19.0124 8.43848 18.412 8.43848C17.8116 8.43848 17.3241 8.92602 17.3241 9.52638C17.3241 10.1267 17.8116 10.6143 18.412 10.6143Z" fill="white"/>
<defs>
<linearGradient id="paint0_linear_68_174" x1="4.09067" y1="23.9093" x2="23.9093" y2="4.09165" gradientUnits="userSpaceOnUse">
<stop stop-color="#FAAD4F"/>
<stop offset="0.35" stop-color="#DD2A7B"/>
<stop offset="0.62" stop-color="#9537B0"/>
<stop offset="1" stop-color="#515BD4"/>
</linearGradient>
</defs>
</svg>
