<svg width="28" height="28" viewBox="0 0 28 28" fill="none" xmlns="http://www.w3.org/2000/svg">
<path d="M14.0319 0H13.9681C6.25374 0 0 6.25373 0 13.9681V14.0319C0 21.7463 6.25374 28 13.9681 28H14.0319C21.7463 28 28 21.7463 28 14.0319V13.9681C28 6.25373 21.7463 0 14.0319 0Z" fill="#5D5D5D"/>
<path d="M18.3325 5.69629H9.66849C7.27491 5.69629 5.32767 7.64353 5.32767 10.0371V17.9634C5.32767 20.357 7.27491 22.3042 9.66849 22.3042H18.3325C20.7261 22.3042 22.6733 20.357 22.6733 17.9634V10.0371C22.6733 7.64353 20.7261 5.69629 18.3325 5.69629ZM6.85898 10.0371C6.85898 8.48815 8.11953 7.22759 9.66849 7.22759H18.3325C19.8814 7.22759 21.142 8.48815 21.142 10.0371V17.9634C21.142 19.5124 19.8814 20.7729 18.3325 20.7729H9.66849C8.11953 20.7729 6.85898 19.5124 6.85898 17.9634V10.0371Z" fill="white"/>
<path d="M14.0005 18.0371C16.2264 18.0371 18.0382 16.2262 18.0382 13.9994C18.0382 11.7726 16.2273 9.96167 14.0005 9.96167C11.7737 9.96167 9.96282 11.7726 9.96282 13.9994C9.96282 16.2262 11.7737 18.0371 14.0005 18.0371ZM14.0005 11.494C15.3827 11.494 16.5069 12.6182 16.5069 14.0004C16.5069 15.3825 15.3827 16.5067 14.0005 16.5067C12.6183 16.5067 11.4941 15.3825 11.4941 14.0004C11.4941 12.6182 12.6183 11.494 14.0005 11.494Z" fill="white"/>
<path d="M18.412 10.614C19.0114 10.614 19.4999 10.1265 19.4999 9.52614C19.4999 8.92579 19.0124 8.43823 18.412 8.43823C17.8116 8.43823 17.3241 8.92579 17.3241 9.52614C17.3241 10.1265 17.8116 10.614 18.412 10.614Z" fill="white"/>
</svg>
