<svg id="Layer_1" data-name="Layer 1" xmlns="http://www.w3.org/2000/svg" viewBox="0 0 596.92 596.92"><defs><style>.cls-1{fill:#3d3c3b;}</style></defs><path class="cls-1" d="M633.73,201.54H366.27c-90.83,0-164.73,73.9-164.73,164.73V633.73c0,90.83,73.9,164.73,164.73,164.73H633.73c90.83,0,164.73-73.9,164.73-164.73V366.27C798.46,275.44,724.56,201.54,633.73,201.54ZM745.5,633.73A111.9,111.9,0,0,1,633.73,745.5H366.27A111.9,111.9,0,0,1,254.5,633.73V366.27A111.9,111.9,0,0,1,366.27,254.5H633.73A111.9,111.9,0,0,1,745.5,366.27V633.73Z" transform="translate(-201.54 -201.54)"/><path class="cls-1" d="M500,346.2c-84.81,0-153.81,69-153.81,153.81s69,153.8,153.81,153.8,153.81-69,153.81-153.8S584.81,346.2,500,346.2Zm0,254.65A100.85,100.85,0,1,1,600.85,500,101,101,0,0,1,500,600.85Z" transform="translate(-201.54 -201.54)"/><path class="cls-1" d="M660.26,301.29a38.82,38.82,0,1,0,27.47,11.37A39,39,0,0,0,660.26,301.29Z" transform="translate(-201.54 -201.54)"/></svg>