<svg width="29" height="32" viewBox="0 0 29 32" fill="none" xmlns="http://www.w3.org/2000/svg">
<g clip-path="url(#clip0_21_24)">
<path d="M1.6843 13.3492C1.68028 13.3237 1.67811 13.2943 1.67811 13.2644C1.67811 13.2265 1.68179 13.1894 1.68866 13.1533L1.68799 13.1571C1.69284 13.1246 1.69937 13.0947 1.70105 13.063C1.70105 13.0297 1.71327 12.9991 1.73353 12.9748V12.9751C1.7409 12.9672 1.74743 12.9578 1.75229 12.9478L1.75262 12.9472C1.75697 12.936 1.75965 12.9232 1.75982 12.9098C1.75915 12.8999 1.75697 12.8907 1.75346 12.8821V12.8828C1.74542 12.8569 1.74056 12.827 1.74056 12.796C1.74056 12.7561 1.7486 12.7179 1.763 12.6831L1.76217 12.6852C1.76937 12.6701 1.77355 12.6526 1.77355 12.634C1.77355 12.6192 1.77087 12.6051 1.76585 12.5919L1.76618 12.5927C1.75949 12.5723 1.75564 12.5491 1.75564 12.525C1.75564 12.4906 1.76334 12.4579 1.7774 12.4285L1.77673 12.4299C1.78879 12.3973 1.80319 12.3677 1.81541 12.3364C1.82881 12.3042 1.83702 12.2668 1.83802 12.2277V12.2272C1.83902 12.2051 1.84221 12.1843 1.8474 12.1641L1.84689 12.1663C1.85594 12.1315 1.86113 12.0916 1.86113 12.0505C1.86113 12.0385 1.86063 12.0268 1.85979 12.015V12.0166C1.85979 12.0136 1.85962 12.0102 1.85962 12.0067C1.85962 11.9945 1.86096 11.9827 1.86364 11.9713V11.9724C1.86682 11.9583 1.86866 11.9419 1.86866 11.9252C1.86866 11.8987 1.86381 11.8732 1.85493 11.8497L1.85543 11.8513C1.85259 11.8438 1.85008 11.8347 1.84807 11.8255V11.8243C1.84539 11.8163 1.84388 11.8072 1.84388 11.7979C1.84388 11.7758 1.85175 11.7554 1.86515 11.7394C1.88373 11.7166 1.89495 11.6874 1.89495 11.6558C1.89495 11.6443 1.89345 11.6332 1.89077 11.6225V11.6235C1.87151 11.5289 1.84773 11.4477 1.81843 11.369L1.82245 11.3814C1.81374 11.3585 1.80302 11.3388 1.78996 11.3205L1.79063 11.3215C1.77456 11.3016 1.76485 11.2763 1.76485 11.249C1.76485 11.2475 1.76501 11.2458 1.76501 11.2442C1.76501 11.2282 1.75781 11.2137 1.74626 11.2037C1.74492 11.2022 1.74358 11.201 1.74224 11.1999C1.71612 11.1797 1.71645 11.1458 1.69736 11.122C1.67827 11.0981 1.65902 11.0797 1.64311 11.0568C1.63105 11.0411 1.62385 11.0213 1.62385 10.9999C1.62385 10.9818 1.62904 10.9648 1.63825 10.9501L1.63792 10.9506C1.64545 10.9371 1.65182 10.9215 1.65617 10.9051L1.65651 10.9037C1.65851 10.898 1.65969 10.8913 1.65969 10.8845C1.65969 10.8637 1.64914 10.8452 1.63273 10.8338H1.63256C1.63122 10.8323 1.62971 10.8311 1.62821 10.8301C1.59857 10.8172 1.57831 10.7894 1.57831 10.757C1.57831 10.7532 1.57864 10.7494 1.57914 10.7457V10.7462C1.57747 10.7432 1.57563 10.7406 1.57345 10.7382C1.51853 10.7058 1.50664 10.6543 1.50212 10.5987C1.4991 10.5561 1.49391 10.5133 1.4904 10.4707C1.48872 10.4435 1.47466 10.4197 1.45356 10.4041H1.45339C1.42693 10.3838 1.42492 10.375 1.44485 10.3536C1.48152 10.3144 1.47918 10.2637 1.49458 10.2181C1.49525 10.2157 1.49559 10.2129 1.49559 10.21C1.49559 10.1989 1.48973 10.1892 1.48085 10.1833C1.4693 10.1749 1.45624 10.1671 1.44251 10.1604L1.441 10.1598C1.4348 10.156 1.4271 10.1537 1.41906 10.1537C1.40851 10.1537 1.3988 10.1576 1.3916 10.1638C1.38122 10.1747 1.36632 10.1816 1.34957 10.1816C1.33283 10.1816 1.31792 10.1747 1.30754 10.1638C1.28979 10.1506 1.26786 10.1415 1.24408 10.1383H1.24341C1.21427 10.1383 1.19066 10.1157 1.19066 10.0881C1.19066 10.0817 1.19183 10.0757 1.19418 10.0701V10.0704C1.20975 10.0092 1.1838 9.95679 1.16488 9.90242C1.156 9.88478 1.14445 9.86968 1.13055 9.85696C1.12201 9.84678 1.10962 9.83963 1.10141 9.8293C1.08869 9.81674 1.08082 9.79957 1.08082 9.78082C1.08082 9.76619 1.08567 9.75252 1.09371 9.74123V9.74155C1.12787 9.69688 1.11648 9.64936 1.10861 9.60183C1.10409 9.57448 1.09656 9.54746 1.08936 9.52044C1.08467 9.4896 1.06792 9.46305 1.04398 9.44477H1.04381C1.02254 9.43221 1.00848 9.41028 1.00848 9.38516C1.00848 9.38103 1.00881 9.3769 1.00965 9.37292V9.3734C1.00999 9.36815 1.01015 9.36211 1.01015 9.35591C1.01015 9.3273 1.00563 9.2998 0.997426 9.27373L0.997929 9.2758C0.991063 9.24242 0.987212 9.20411 0.987212 9.16484C0.987212 9.16087 0.987212 9.15705 0.987212 9.15308V9.15372C0.987212 9.15228 0.987212 9.1507 0.987212 9.14895C0.987212 9.12717 0.980347 9.10698 0.968625 9.09013L0.96896 9.09061C0.966448 9.08791 0.964439 9.08457 0.963099 9.08107C0.948699 9.02098 0.917218 8.96694 0.899636 8.90828C0.892771 8.88046 0.879207 8.8563 0.860788 8.83643C0.847727 8.82292 0.836006 8.80798 0.823112 8.79399C0.798999 8.77062 0.783762 8.73899 0.782255 8.70401V8.7037C0.780245 8.68589 0.775054 8.66968 0.767352 8.65506L0.767686 8.65585C0.759481 8.63471 0.749769 8.61452 0.74056 8.59401C0.726494 8.56143 0.712093 8.55141 0.677766 8.55555C0.673413 8.55602 0.668557 8.55634 0.663366 8.55634C0.635402 8.55634 0.609615 8.5476 0.588851 8.53281H0.589186C0.55938 8.51485 0.528904 8.49784 0.499601 8.4794C0.481014 8.46573 0.457236 8.45763 0.431616 8.45763C0.428435 8.45763 0.425253 8.45763 0.422072 8.45794H0.422407C0.418053 8.45874 0.41303 8.45922 0.407839 8.45922C0.383893 8.45922 0.36246 8.44857 0.348729 8.43203C0.325621 8.4101 0.311388 8.37989 0.311388 8.34667C0.311388 8.34238 0.311556 8.33793 0.312058 8.33364V8.33411C0.315909 8.29485 0.328133 8.25892 0.347055 8.22697L0.346385 8.2284C0.352078 8.21903 0.356599 8.20822 0.359279 8.19661V8.19582C0.360953 8.19168 0.361958 8.18692 0.361958 8.18199C0.361958 8.16927 0.355929 8.15783 0.346552 8.1502C0.340692 8.14495 0.334496 8.14034 0.328635 8.13557C0.304355 8.11729 0.287108 8.09122 0.28108 8.0615V8.0607C0.278903 8.03527 0.259479 8.0146 0.234027 8.00936H0.233692C0.157837 7.99426 0.147958 7.93512 0.133892 7.87901C0.129873 7.85739 0.126524 7.83068 0.124683 7.80366V7.80144C0.119994 7.76662 0.101575 7.73658 0.0751176 7.7156H0.0749502C0.0521771 7.69557 0.0320832 7.67363 0.014836 7.64963L0.0139987 7.64836C-0.00559278 7.62229 -0.00559278 7.60178 0.0201944 7.58318C0.0496654 7.56474 0.0687546 7.53359 0.0687546 7.49798C0.0687546 7.4886 0.067415 7.47938 0.0649032 7.4708V7.47159C0.0637311 7.46571 0.0630613 7.45903 0.0630613 7.4522C0.0630613 7.42756 0.0726059 7.40499 0.0885135 7.38782C0.101575 7.37176 0.109612 7.3511 0.109612 7.32885C0.109612 7.32567 0.109612 7.32249 0.10911 7.31931V7.31962C0.10911 7.28052 0.111119 7.24142 0.10911 7.20279C0.10911 7.20152 0.10911 7.20009 0.10911 7.19881C0.10911 7.14524 0.134897 7.09756 0.17542 7.06608L0.175754 7.06576C0.18128 7.06084 0.187308 7.05639 0.193839 7.05241L0.194341 7.05209C0.207737 7.04415 0.217282 7.03143 0.220296 7.01665V7.01633C0.225152 6.98613 0.249432 6.97404 0.274549 6.96228C0.296485 6.95561 0.315574 6.9467 0.332989 6.93573L0.332152 6.93621C0.375688 6.89647 0.430277 6.86786 0.465274 6.81874C0.477665 6.80364 0.490391 6.79029 0.504122 6.77789C0.510652 6.77121 0.518857 6.76533 0.525053 6.75817C0.555194 6.72559 0.585335 6.69046 0.614973 6.65596C0.622508 6.64817 0.628034 6.63848 0.630713 6.62767V6.62719C0.633895 6.60208 0.649468 6.58078 0.671571 6.56917H0.671906C0.713266 6.54247 0.748765 6.51131 0.778571 6.4757L0.77924 6.47475C0.787948 6.46505 0.796153 6.45456 0.803353 6.44327L0.804023 6.44216C0.860286 6.3533 0.949369 6.3161 1.05268 6.3018C1.07362 6.29894 1.09589 6.3018 1.11715 6.29926C1.12486 6.29782 1.13356 6.29687 1.14244 6.29687C1.16856 6.29687 1.19284 6.30402 1.21327 6.31642L1.21277 6.3161C1.22382 6.32262 1.23738 6.3266 1.25178 6.3266C1.26451 6.3266 1.2764 6.32358 1.28695 6.31817H1.28661C1.31139 6.30736 1.33634 6.29655 1.36096 6.28574C1.38273 6.27684 1.3978 6.25665 1.3978 6.23329C1.3978 6.22756 1.39696 6.222 1.39529 6.21675V6.21707C1.39328 6.20801 1.39143 6.19688 1.39043 6.1856V6.18449C1.38942 6.17908 1.38875 6.17288 1.38875 6.16668C1.38875 6.12964 1.40818 6.09706 1.43798 6.07735L1.43832 6.07703C1.46243 6.06177 1.48035 6.0392 1.48855 6.01281V6.01201C1.49508 5.98578 1.51267 5.96432 1.53628 5.95208L1.53678 5.95177C1.55285 5.94366 1.56374 5.92792 1.56374 5.9098C1.56374 5.90615 1.5634 5.90265 1.56257 5.89931V5.89963C1.56206 5.89152 1.56089 5.88389 1.55905 5.87658V5.87753C1.55805 5.8734 1.55721 5.86879 1.55721 5.86386C1.55721 5.84924 1.56374 5.83604 1.57429 5.82666C1.58969 5.81268 1.60108 5.79471 1.60627 5.77468V5.77389C1.61464 5.73812 1.64127 5.70983 1.67626 5.69791H1.67693C1.68966 5.6925 1.70272 5.68726 1.71428 5.68106C1.72466 5.67692 1.73169 5.66723 1.73169 5.6561C1.73169 5.65133 1.73035 5.64704 1.72817 5.64306C1.72583 5.63639 1.72097 5.62987 1.71863 5.62304C1.71411 5.61016 1.7116 5.59522 1.7116 5.5798C1.7116 5.53863 1.73018 5.50143 1.75982 5.47568C1.77322 5.46598 1.78879 5.45867 1.80587 5.45438H1.80687C1.82647 5.45104 1.8412 5.43514 1.8412 5.41591V5.41543C1.84137 5.40733 1.84221 5.3997 1.84338 5.39207V5.39302C1.84371 5.37522 1.85661 5.36043 1.87385 5.35598H1.87419C1.94284 5.34263 1.97198 5.29081 2.00614 5.24423C2.02054 5.22404 2.03527 5.20036 2.0485 5.17588L2.05051 5.17191C2.06994 5.13264 2.1051 5.10292 2.14814 5.08956L2.14931 5.08925C2.16153 5.08607 2.17208 5.08114 2.18146 5.07478H2.18112C2.21177 5.05062 2.25045 5.03456 2.29281 5.03075H2.29365C2.30905 4.99514 2.33199 4.96557 2.32145 4.92393C2.32145 4.92329 2.32145 4.92234 2.32145 4.92154C2.32145 4.90882 2.32647 4.89706 2.33467 4.888C2.34673 4.8721 2.35393 4.85208 2.35393 4.83046C2.35393 4.82267 2.35309 4.8152 2.35125 4.80804V4.80868C2.35058 4.79962 2.35025 4.78897 2.35025 4.77832C2.35025 4.76767 2.35058 4.75702 2.35142 4.74653V4.74796C2.3551 4.68199 2.36615 4.62015 2.3834 4.56086L2.38189 4.56706C2.38441 4.56054 2.38591 4.55291 2.38591 4.54512C2.38591 4.51969 2.37051 4.49759 2.3479 4.48694H2.34757C2.32228 4.472 2.30219 4.45134 2.28896 4.4267L2.28863 4.4259C2.28544 4.41811 2.28293 4.40905 2.28159 4.39951V4.39888L2.32228 4.41541C2.32228 4.41255 2.32747 4.40794 2.32647 4.40699C2.31274 4.39109 2.29834 4.3744 2.28461 4.36041C2.27021 4.3461 2.25698 4.33053 2.24526 4.31383L2.24442 4.31256C2.23052 4.28268 2.21043 4.25772 2.18548 4.23801L2.18514 4.23769C2.17878 4.23324 2.17409 4.2272 2.17158 4.22005V4.21973C2.15835 4.18762 2.13625 4.16107 2.10828 4.142L2.10778 4.14168C2.08903 4.12467 2.07245 4.10544 2.05855 4.08461L2.05771 4.08334C2.04063 4.0533 2.01619 4.02898 1.98655 4.01181L1.98571 4.01133C1.9683 3.99941 1.95406 3.98431 1.94385 3.96682L1.94351 3.96619C1.87771 3.88448 1.833 3.79038 1.77205 3.70581C1.76451 3.69579 1.75915 3.68387 1.75697 3.67084V3.67036C1.74944 3.61965 1.72851 3.57467 1.6977 3.53731L1.6982 3.53795C1.67961 3.51347 1.66772 3.48326 1.66572 3.45052V3.45004C1.6632 3.40649 1.65081 3.36627 1.63055 3.33066L1.63139 3.33225C1.62285 3.31667 1.61782 3.29839 1.61732 3.279C1.61531 3.25086 1.60979 3.22479 1.60125 3.20015L1.60192 3.20238C1.584 3.14595 1.5696 3.07903 1.56156 3.01036L1.56106 3.00511C1.55151 2.94264 1.54465 2.87953 1.5336 2.81722C1.53042 2.80132 1.52857 2.7832 1.52857 2.76444C1.52857 2.74569 1.53042 2.72756 1.53393 2.70992L1.5336 2.71167C1.53929 2.69164 1.54247 2.66859 1.54247 2.64475C1.54247 2.62726 1.5408 2.61025 1.53745 2.59372L1.53778 2.59547C1.53728 2.59118 1.53695 2.58641 1.53695 2.58132C1.53695 2.56685 1.53946 2.55287 1.54415 2.53983L1.54381 2.54078C1.55587 2.50518 1.56391 2.46401 1.56642 2.42125V2.41997C1.56776 2.40233 1.57328 2.38612 1.58182 2.37181L1.58149 2.37245C1.59472 2.34765 1.60761 2.32698 1.62151 2.30727L1.62 2.30966C1.64261 2.27977 1.66136 2.24528 1.67442 2.20824L1.67526 2.20554C1.68346 2.18153 1.69669 2.16103 1.71377 2.14386C1.75379 2.10126 1.80202 2.06645 1.8561 2.04149L1.85878 2.04038C1.87134 2.03481 1.88625 2.02988 1.90165 2.02639L1.90333 2.02607C1.94134 2.01796 1.97985 2.01113 2.01786 2.0027C2.02456 2.00095 2.03226 2 2.04013 2C2.05503 2 2.0691 2.00334 2.08149 2.00938H2.08099C2.09304 2.0151 2.10728 2.0186 2.12252 2.0186C2.13223 2.0186 2.14161 2.01717 2.15031 2.01447H2.14964C2.20925 1.99507 2.25631 2.01892 2.29984 2.05341C2.31709 2.06756 2.33953 2.07646 2.36431 2.07678C2.44921 2.07837 2.5264 2.10746 2.58719 2.15499L2.58652 2.15451C2.60996 2.17168 2.63893 2.18344 2.67041 2.18694H2.67125C2.70507 2.19409 2.73471 2.20379 2.76284 2.21603L2.76016 2.21492C2.77506 2.22096 2.78729 2.22668 2.79901 2.23304L2.79717 2.23208C2.80604 2.23717 2.81676 2.24035 2.82831 2.24035C2.84389 2.24035 2.85795 2.23479 2.86867 2.22557C2.8762 2.22032 2.88474 2.21492 2.89362 2.21015L2.89479 2.20951C2.90333 2.21635 2.91287 2.22096 2.91706 2.22811C2.93146 2.2545 2.95892 2.2669 2.98086 2.28502C2.9894 2.29201 3.00045 2.2963 3.01267 2.29646C3.01535 2.29614 3.01837 2.29599 3.02155 2.29599C3.0537 2.29599 3.08133 2.31411 3.09372 2.34034V2.34081C3.10544 2.36275 3.12738 2.37817 3.1535 2.38119H3.15383C3.18012 2.385 3.20239 2.39915 3.21596 2.41902V2.41934C3.23488 2.44557 3.26167 2.46528 3.29332 2.47545L3.29432 2.47577C3.30822 2.48022 3.31793 2.4923 3.31793 2.50677C3.31793 2.50995 3.31743 2.51313 3.31659 2.51615C3.31492 2.52425 3.31291 2.53157 3.3104 2.53856L3.31073 2.53745C3.30638 2.54842 3.3037 2.56113 3.3037 2.57433C3.3037 2.61581 3.32865 2.65174 3.36515 2.66938L3.36582 2.6697C3.43146 2.70801 3.51017 2.74791 3.59155 2.7832L3.60595 2.78876C3.64731 2.808 3.68281 2.82962 3.71546 2.85473L3.71445 2.85394C3.73471 2.87317 3.76251 2.88541 3.79315 2.88652H3.79433C3.82095 2.88652 3.84557 2.89479 3.86532 2.90894H3.86499C3.88642 2.92277 3.91154 2.93342 3.9385 2.9393L3.94001 2.93962C3.97618 2.94884 4.00766 2.9641 4.03495 2.98429L4.03445 2.98381C4.05806 3.00145 4.08586 3.01544 4.116 3.02434L4.11784 3.02482C4.14563 3.03245 4.16824 3.05041 4.18097 3.07378L4.1813 3.07426C4.19235 3.09445 4.20893 3.11066 4.22902 3.12147L4.22969 3.12179C4.25062 3.13212 4.2662 3.14992 4.27239 3.17138V3.17202C4.27591 3.18267 4.27943 3.19141 4.28344 3.19984L4.28277 3.19841C4.2945 3.2267 4.32263 3.24641 4.35578 3.24721C4.41573 3.248 4.47065 3.26771 4.51452 3.3003L4.51402 3.29982C4.52792 3.30761 4.5445 3.31222 4.56241 3.31222C4.56292 3.31222 4.56342 3.31222 4.56392 3.31222C4.59239 3.31333 4.61717 3.32716 4.63224 3.34783V3.34815C4.652 3.37358 4.6726 3.39822 4.69169 3.42429C4.72216 3.46355 4.77089 3.48883 4.82564 3.48883C4.86349 3.48883 4.89832 3.47675 4.92628 3.45656L4.92595 3.45688C4.98305 3.41602 5.05522 3.39154 5.13342 3.39154C5.1376 3.39154 5.14196 3.39154 5.14614 3.3917H5.14547C5.16406 3.39218 5.18147 3.39663 5.19688 3.4041L5.19621 3.40378C5.23271 3.41873 5.26202 3.43287 5.29065 3.44813L5.28579 3.44575C5.30756 3.46133 5.33486 3.47071 5.36466 3.47071C5.37002 3.47071 5.37521 3.47039 5.3804 3.46991H5.37973C5.38995 3.47023 5.39966 3.47261 5.4082 3.47659H5.40786C5.43214 3.4839 5.45693 3.4901 5.4802 3.49916C5.50364 3.50854 5.52391 3.51951 5.54249 3.53238L5.54166 3.53175C5.55589 3.54415 5.57481 3.55178 5.59574 3.55178C5.60378 3.55178 5.61148 3.55066 5.61868 3.5486H5.61818C5.62605 3.54669 5.63492 3.54542 5.6443 3.54542C5.65368 3.54542 5.66255 3.54669 5.67109 3.54891H5.67042C5.67746 3.55019 5.68533 3.55114 5.69353 3.55114C5.70174 3.55114 5.70977 3.55035 5.71748 3.54876H5.71681C5.72166 3.54764 5.72719 3.54701 5.73288 3.54701C5.75197 3.54701 5.76922 3.5548 5.78128 3.56704C5.80589 3.58675 5.8367 3.59994 5.87069 3.60376H5.87153C5.91406 3.61139 5.95492 3.62426 5.99628 3.63634C6.02106 3.64286 6.04501 3.65129 6.06962 3.65621C6.11902 3.66368 6.16323 3.68022 6.20191 3.70422L6.20057 3.70342C6.22066 3.71646 6.24494 3.72536 6.27123 3.72806H6.2719C6.3151 3.73363 6.35412 3.74714 6.38845 3.76717L6.38711 3.76653C6.41926 3.7837 6.4566 3.79912 6.49561 3.81088L6.49997 3.81199C6.54735 3.82726 6.58804 3.84522 6.62639 3.86636L6.62321 3.86477C6.63744 3.87224 6.65402 3.87812 6.67143 3.88146H6.67261C6.70827 3.88973 6.73858 3.90833 6.76018 3.93376V3.93408C6.792 3.97159 6.83637 3.9983 6.88728 4.00799H6.88862C6.94404 4.02135 6.9926 4.04026 7.03748 4.0649L7.0348 4.06347C7.08152 4.09081 7.13778 4.11943 7.19572 4.14486L7.20627 4.14899C7.22753 4.15646 7.25248 4.16219 7.27827 4.16536H7.28011C7.30071 4.16584 7.31913 4.17443 7.33185 4.18794C7.35094 4.20876 7.37522 4.22482 7.40268 4.23451L7.40386 4.23483C7.42696 4.24357 7.44689 4.25454 7.46481 4.26774L7.4643 4.26742C7.49763 4.29396 7.53848 4.3132 7.58319 4.3221L7.58504 4.32242C7.61869 4.33116 7.64783 4.34229 7.67512 4.35612L7.67278 4.35501C7.7565 4.39808 7.85362 4.43353 7.9556 4.4569L7.96381 4.45849C8.0261 4.47311 8.08052 4.50014 8.1259 4.5367L8.12539 4.53622C8.16374 4.5669 8.20644 4.5952 8.25198 4.61952L8.25617 4.62158C8.27526 4.6316 8.29117 4.64511 8.30356 4.66116L8.30389 4.66148C8.31997 4.68485 8.34509 4.70138 8.37456 4.70663H8.37523C8.39532 4.70901 8.41173 4.72173 8.4186 4.7389V4.73921C8.42647 4.76099 8.44438 4.77768 8.46682 4.78468H8.46732C8.52342 4.80788 8.57114 4.83236 8.61619 4.86034L8.61233 4.85812C8.62975 4.86654 8.64666 4.87433 8.66475 4.88355C8.68836 4.89627 8.71247 4.9093 8.73541 4.92297C8.78899 4.95842 8.83303 5.00277 8.86635 5.05427L8.86753 5.05618C8.88109 5.07875 8.9037 5.09529 8.93066 5.10133H8.93132C8.98909 5.11468 9.03883 5.14218 9.07768 5.17985C9.11686 5.21244 9.16107 5.24169 9.20142 5.27428C9.2478 5.31179 9.29402 5.34915 9.33622 5.39048C9.36519 5.4202 9.39734 5.44627 9.43233 5.46868L9.43434 5.4698C9.45678 5.48236 9.4757 5.49825 9.49094 5.51685L9.49127 5.51733C9.52661 5.56184 9.56378 5.6011 9.60397 5.63734L9.60447 5.63782C9.62908 5.66071 9.64834 5.68885 9.65989 5.72032L9.6604 5.72175C9.66994 5.74814 9.682 5.77357 9.69154 5.79996C9.69757 5.82031 9.71348 5.8362 9.73391 5.84288H9.73441C9.76455 5.85273 9.78799 5.87451 9.79871 5.90217V5.90281C9.81479 5.93905 9.85045 5.9648 9.89282 5.96798H9.89315C9.90521 5.97021 9.91576 5.97466 9.92497 5.98086H9.92463C9.93803 5.98849 9.95008 5.99787 9.96298 6.00613C9.98625 6.01996 10.0032 6.04174 10.0099 6.06733V6.06797C10.0154 6.09277 10.0281 6.11407 10.046 6.13044C10.0658 6.1449 10.0784 6.16732 10.0784 6.19259C10.0784 6.20483 10.0753 6.21644 10.0701 6.22661V6.22613C10.067 6.2336 10.065 6.24235 10.065 6.25157C10.065 6.25602 10.0655 6.26047 10.0663 6.26476V6.26428C10.0675 6.27509 10.0681 6.28765 10.0681 6.30037C10.0681 6.34599 10.0589 6.38955 10.042 6.42929L10.0429 6.4269C10.0278 6.47475 10.0141 6.5245 9.99931 6.5714C9.9973 6.57616 9.99597 6.58157 9.99597 6.58745C9.99597 6.60144 10.003 6.61368 10.0139 6.62147C10.0341 6.63355 10.0474 6.65453 10.0474 6.67838C10.0474 6.69411 10.0417 6.70858 10.032 6.72002C10.0224 6.73417 10.0167 6.7515 10.0167 6.7701C10.0167 6.78758 10.0218 6.80396 10.0305 6.8181L10.0301 6.81763C10.0408 6.83781 10.047 6.86166 10.047 6.88678C10.047 6.9068 10.0432 6.92588 10.036 6.94337L10.0363 6.94225C10.0285 6.96498 10.0239 6.99105 10.0239 7.01824C10.0239 7.02825 10.0246 7.03826 10.0258 7.04796V7.04685C10.0263 7.05178 10.0266 7.05734 10.0266 7.06306C10.0266 7.06879 10.0263 7.07451 10.0256 7.08007V7.07944C10.0224 7.11631 10.0206 7.15907 10.0206 7.20231C10.0206 7.24555 10.0224 7.28847 10.0261 7.33075L10.0258 7.32519C10.0308 7.3662 10.0469 7.40292 10.0711 7.4336L10.0706 7.43296C10.0943 7.46873 10.1822 7.48018 10.2116 7.44075C10.2217 7.42835 10.2329 7.4177 10.2455 7.40848L10.246 7.40817C10.253 7.40117 10.263 7.39688 10.2739 7.39688C10.2796 7.39688 10.2851 7.39815 10.29 7.40022H10.2898C10.2985 7.40562 10.3091 7.40896 10.3206 7.40896C10.3446 7.40896 10.365 7.39465 10.3727 7.37447V7.37415C10.3781 7.36779 10.3836 7.36207 10.3898 7.35698C10.4015 7.35698 10.4131 7.35698 10.4241 7.35984C10.428 7.3608 10.4323 7.36143 10.4369 7.36143C10.4575 7.36143 10.475 7.34999 10.4834 7.33345V7.33314C10.4946 7.31056 10.5184 7.2953 10.5459 7.2953C10.5536 7.2953 10.5611 7.29658 10.5681 7.2988H10.5676C10.5859 7.3015 10.6015 7.30468 10.6165 7.30882L10.6135 7.30818C10.6478 7.31835 10.6842 7.32932 10.7192 7.34077C10.7244 7.34267 10.7304 7.34363 10.7366 7.34363C10.7492 7.34363 10.7605 7.33934 10.7694 7.33218C10.784 7.31819 10.8042 7.30961 10.8265 7.30961C10.8372 7.30961 10.8474 7.31152 10.8567 7.31517H10.8562C10.8605 7.31438 10.8657 7.31406 10.8709 7.31406C10.9134 7.31406 10.9501 7.3387 10.9657 7.37367L10.966 7.37431C10.9737 7.38591 10.9822 7.39593 10.9918 7.40499C11.0129 7.42804 11.0298 7.45506 11.0412 7.48463L11.0419 7.48638C11.0613 7.53645 11.0835 7.57937 11.11 7.61974L11.1082 7.61656C11.1241 7.64438 11.1381 7.67681 11.1487 7.71051L11.1497 7.71417C11.1572 7.7334 11.1614 7.75391 11.1703 7.77203C11.1807 7.79174 11.1867 7.81511 11.1867 7.83975C11.1867 7.8504 11.1855 7.86073 11.1835 7.87058V7.86963C11.1815 7.88648 11.1783 7.90142 11.1743 7.91589L11.1748 7.91366C11.1626 7.94927 11.1555 7.99012 11.1555 8.03256C11.1555 8.03511 11.1555 8.03781 11.1555 8.04035V8.04004C11.1547 8.04671 11.1544 8.05434 11.1544 8.06213C11.1544 8.09551 11.1624 8.12715 11.1768 8.15528L11.1763 8.15401C11.1815 8.16418 11.1845 8.17611 11.1845 8.18882C11.1845 8.19979 11.1822 8.21012 11.178 8.21966V8.21918C11.1733 8.23413 11.1706 8.25114 11.1706 8.26894C11.1706 8.27069 11.1706 8.27244 11.1706 8.27419V8.27387C11.1728 8.30725 11.1887 8.33666 11.213 8.35748C11.2374 8.38117 11.2667 8.40008 11.2994 8.41264L11.3011 8.41328C11.3289 8.42138 11.3528 8.43426 11.3729 8.45127H11.3727C11.385 8.46239 11.4019 8.46939 11.4203 8.46939C11.4245 8.46939 11.4285 8.46907 11.4325 8.46844H11.432C11.4409 8.46748 11.4509 8.46685 11.4613 8.46685C11.4717 8.46685 11.4817 8.46748 11.4918 8.46859H11.4906C11.5203 8.47018 11.5437 8.49339 11.5437 8.52185C11.5437 8.529 11.5422 8.53583 11.5395 8.54219V8.54188C11.5368 8.55268 11.5321 8.56302 11.5293 8.57446C11.5264 8.584 11.5248 8.59497 11.5248 8.60641C11.5248 8.65204 11.5511 8.69177 11.5901 8.71292L11.5907 8.71323C11.6023 8.71991 11.616 8.72659 11.6303 8.73247L11.6326 8.73326C11.6974 8.75933 11.7502 8.80241 11.7858 8.85662L11.7867 8.85789C11.8001 8.88094 11.8223 8.89811 11.849 8.90526H11.8496C11.8808 8.91384 11.9062 8.93292 11.9216 8.95819L11.922 8.95867C11.9486 8.99793 11.9883 9.02734 12.035 9.04165L12.0365 9.04197C12.0814 9.05611 12.1199 9.07837 12.1519 9.10714C12.1753 9.1286 12.2051 9.14386 12.2386 9.1499H12.2396C12.2783 9.1561 12.3121 9.17231 12.3389 9.19568C12.3572 9.21174 12.3808 9.22255 12.4069 9.22541H12.4074C12.4444 9.23065 12.4811 9.23685 12.5174 9.24369C12.5303 9.24528 12.5419 9.24909 12.5522 9.25466H12.5517C12.5897 9.27691 12.6286 9.29901 12.6646 9.32508C12.6914 9.34447 12.7247 9.35719 12.7611 9.35989H12.7617C12.8639 9.36768 12.9498 9.42713 12.9911 9.51042L12.9918 9.51201C12.997 9.5206 13 9.53109 13 9.54206C13 9.55891 12.993 9.57417 12.9814 9.58529C12.9662 9.60103 12.957 9.62217 12.957 9.64538C12.957 9.64713 12.957 9.64888 12.9571 9.65063V9.65031C12.9578 9.65365 12.9581 9.65746 12.9581 9.66128C12.9581 9.69514 12.9308 9.72295 12.896 9.72613H12.8957C12.8927 9.72613 12.8898 9.73074 12.8846 9.73551C12.919 9.76587 12.9062 9.80259 12.899 9.83836C12.8932 9.8657 12.8853 9.89241 12.8784 9.91975C12.8665 9.96489 12.8389 10.0026 12.8016 10.0285L12.8011 10.0288C12.7728 10.0487 12.7498 10.0738 12.7331 10.1026L12.7324 10.1037C12.7177 10.1288 12.6984 10.1498 12.6753 10.1661L12.6748 10.1665C12.6582 10.1771 12.6442 10.1897 12.6323 10.2038L12.6319 10.2041C12.5861 10.2663 12.5204 10.3086 12.4647 10.3607C12.4293 10.3969 12.388 10.4273 12.3419 10.4507L12.3394 10.4518C12.3252 10.4591 12.3136 10.4694 12.3054 10.482V10.4823C12.2915 10.5028 12.2716 10.5187 12.248 10.5276L12.2471 10.5279C12.2227 10.5364 12.2038 10.5543 12.1949 10.5769V10.5775C12.1827 10.6039 12.1623 10.6249 12.1368 10.6381L12.1361 10.6384C12.1147 10.6524 12.0897 10.6662 12.0638 10.6788L12.0599 10.6805C11.9945 10.7085 11.9385 10.7452 11.8908 10.7901C11.8672 10.8109 11.8399 10.8284 11.8101 10.8416L11.8081 10.8424C11.7803 10.8527 11.7589 10.8734 11.7487 10.8993V10.8999C11.7322 10.9412 11.7038 10.9754 11.6673 10.9991L11.6666 10.9996C11.599 11.0466 11.5393 11.0956 11.4839 11.1485C11.4632 11.1703 11.4359 11.1862 11.405 11.1933H11.404C11.3823 11.198 11.3645 11.2116 11.3551 11.2299V11.2304C11.3413 11.2552 11.3258 11.2789 11.3138 11.3043C11.3036 11.3269 11.2858 11.345 11.2637 11.3561L11.2631 11.3564C11.1966 11.389 11.1309 11.4216 11.0638 11.4524C11.0338 11.4658 10.9956 11.4799 10.9566 11.4922L10.9486 11.4944C10.925 11.5001 10.9047 11.5116 10.8886 11.527C10.8813 11.5357 10.8724 11.5429 10.8623 11.5483H10.8618C10.8138 11.5693 10.7651 11.5888 10.7165 11.6084C10.686 11.6208 10.6537 11.6302 10.6242 11.6442C10.5968 11.6586 10.5646 11.6686 10.5305 11.6725H10.5293C10.5025 11.6737 10.4781 11.6825 10.458 11.6966L10.4583 11.6963C10.4374 11.7123 10.4104 11.722 10.3809 11.722C10.3793 11.722 10.3774 11.722 10.3757 11.722H10.3754C10.3448 11.722 10.3171 11.7346 10.2979 11.7545C10.2574 11.7901 10.2145 11.8227 10.173 11.8572C10.1529 11.8735 10.1293 11.8866 10.1035 11.8952L10.102 11.8956C10.0089 11.9309 9.92949 11.9819 9.86418 12.0458H9.86402C9.82701 12.0802 9.78381 12.1086 9.73625 12.1296L9.73341 12.1307C9.71214 12.139 9.68736 12.1438 9.66157 12.1438C9.66073 12.1438 9.65989 12.1438 9.65889 12.1438C9.62004 12.1441 9.58438 12.1562 9.55557 12.1767L9.55608 12.1764C9.51371 12.2099 9.46013 12.2318 9.40152 12.2368H9.39466C9.32885 12.2271 9.26673 12.2504 9.20259 12.2554C9.16341 12.2565 9.12925 12.276 9.10916 12.3051L9.10882 12.3056C9.10028 12.3218 9.08303 12.3326 9.06294 12.3326C9.05591 12.3326 9.04938 12.3313 9.04335 12.329H9.04368C9.02861 12.325 9.01137 12.3226 8.99345 12.3226C8.98022 12.3226 8.96733 12.3239 8.95494 12.3263H8.95611C8.9479 12.3272 8.93836 12.3278 8.92865 12.3278C8.91157 12.3278 8.89482 12.3258 8.87908 12.3218L8.88042 12.3221C8.84241 12.3137 8.80356 12.3078 8.76522 12.3003C8.71163 12.2932 8.66357 12.2752 8.62205 12.2488L8.62322 12.2496C8.60045 12.2347 8.57231 12.2258 8.54201 12.2258C8.53698 12.2258 8.53213 12.2261 8.52727 12.2264H8.52794C8.52442 12.2264 8.52041 12.2266 8.51622 12.2266C8.48943 12.2266 8.46364 12.2228 8.43919 12.2158L8.44103 12.2163C8.42128 12.2112 8.3985 12.2081 8.37506 12.2081C8.33018 12.2081 8.28799 12.219 8.25115 12.238L8.25249 12.2374C8.23357 12.2477 8.21079 12.2539 8.18651 12.2539C8.18216 12.2539 8.1778 12.2538 8.17345 12.2533H8.17395C8.17261 12.2533 8.17111 12.2533 8.16943 12.2533C8.15872 12.2533 8.1485 12.255 8.13896 12.2585H8.13963C8.11116 12.2652 8.08269 12.2724 8.05456 12.2808C8.03832 12.2852 8.02425 12.2914 8.01136 12.2994L8.01203 12.2991C7.96682 12.3271 7.92847 12.3609 7.89699 12.3999L7.89616 12.401C7.85547 12.4582 7.79954 12.5029 7.73356 12.5304L7.73105 12.5313C7.69907 12.5447 7.67194 12.5588 7.64632 12.5749L7.6485 12.5736C7.59759 12.6054 7.55891 12.6513 7.53832 12.7055L7.53765 12.7074C7.52844 12.7327 7.51789 12.7542 7.50566 12.7745L7.50684 12.7726C7.49612 12.7885 7.48356 12.8022 7.46899 12.8138H7.46866C7.44672 12.8325 7.42311 12.8496 7.4 12.8667C7.38996 12.8751 7.37874 12.8828 7.36668 12.8893L7.36568 12.8898C7.29334 12.9224 7.22134 12.9597 7.13962 12.9662C7.07783 12.9683 7.02375 12.9974 6.98942 13.0413L6.98908 13.0417C6.96966 13.0672 6.93935 13.0842 6.90469 13.0862H6.90436C6.86367 13.0924 6.82766 13.1087 6.79836 13.132L6.7987 13.1317C6.77324 13.149 6.7508 13.1667 6.72971 13.1854L6.73004 13.1851C6.71631 13.1956 6.70492 13.2082 6.69605 13.2223L6.69571 13.223C6.66222 13.2794 6.61785 13.3263 6.56494 13.3627L6.5636 13.3635C6.5353 13.3864 6.51052 13.4116 6.48875 13.4395L6.48791 13.4407C6.44002 13.5037 6.36316 13.5442 6.27642 13.5448C6.23875 13.5452 6.20341 13.5541 6.17227 13.5695L6.17361 13.5689C6.15268 13.579 6.13208 13.5897 6.11115 13.6014C6.08888 13.6137 6.06209 13.621 6.03345 13.621H6.03228C5.98456 13.6218 5.94002 13.6337 5.90117 13.6542L5.90251 13.6536C5.86416 13.6687 5.83704 13.7027 5.83385 13.7431V13.7434C5.83369 13.7728 5.81895 13.799 5.79635 13.8159H5.79618C5.78881 13.8222 5.78245 13.8291 5.77692 13.8365L5.77659 13.8369C5.76369 13.8555 5.7441 13.869 5.72133 13.8749H5.72066C5.69387 13.8836 5.67176 13.8993 5.65569 13.9195L5.65535 13.9198C5.59507 13.9804 5.55941 14.0556 5.51369 14.1249C5.50164 14.1503 5.4787 14.1694 5.45056 14.1772H5.44989C5.42913 14.1836 5.41222 14.1967 5.40217 14.2141V14.2146C5.39464 14.2238 5.39028 14.2355 5.39028 14.2481C5.39028 14.2511 5.39062 14.254 5.39095 14.2568V14.2565C5.39497 14.2858 5.39748 14.3155 5.39949 14.3451C5.40251 14.3861 5.40334 14.4271 5.40803 14.4678C5.40904 14.4759 5.40954 14.4854 5.40954 14.495C5.40954 14.5344 5.39999 14.5717 5.38291 14.605L5.38358 14.6035C5.36466 14.6426 5.34206 14.6797 5.32012 14.7172C5.30053 14.7501 5.27056 14.7757 5.23455 14.79L5.23338 14.7905C5.17745 14.8146 5.13559 14.8606 5.11918 14.9164L5.11885 14.9178C5.1155 14.9283 5.11165 14.9389 5.10897 14.9504C5.09875 14.9923 5.07682 15.0284 5.04684 15.0569C5.01821 15.0822 5.00046 15.1181 5.00046 15.1578C5.00046 15.1631 5.0008 15.1683 5.0013 15.1734V15.2119C5.00214 15.2178 5.00264 15.2246 5.00264 15.2314C5.00264 15.2677 4.98924 15.301 4.9668 15.3271V15.3268C4.95944 15.3368 4.95341 15.3486 4.94939 15.3611V15.3619C4.94085 15.3832 4.92076 15.3985 4.89664 15.401H4.89631C4.8809 15.4029 4.86717 15.4056 4.85394 15.4093L4.85578 15.4088C4.84942 15.4112 4.84222 15.4125 4.83452 15.4125C4.82347 15.4125 4.81325 15.4096 4.80438 15.4047H4.80471C4.80002 15.4021 4.79467 15.3999 4.78914 15.3982H4.78864C4.78244 15.395 4.77507 15.3932 4.7672 15.3932C4.74376 15.3932 4.72417 15.4091 4.71998 15.4303V15.4306C4.71764 15.4352 4.71597 15.4406 4.71513 15.4463V15.4467C4.70609 15.4974 4.68683 15.5425 4.65937 15.5821L4.6602 15.5808C4.65401 15.5918 4.64781 15.601 4.64112 15.6099L4.64162 15.6091C4.62621 15.6306 4.60947 15.6511 4.5949 15.6743C4.57782 15.7061 4.54868 15.7302 4.51318 15.7411L4.51218 15.7414C4.48673 15.748 4.4663 15.7644 4.45508 15.7857V15.7862C4.43398 15.8189 4.4087 15.8469 4.37889 15.8701L4.37822 15.8706C4.37035 15.8787 4.36114 15.8854 4.35059 15.8902H4.35009C4.29215 15.9099 4.24728 15.9493 4.19302 15.9763C4.17578 15.9852 4.15568 15.9925 4.13458 15.9971L4.13291 15.9975C4.12839 15.999 4.1232 16 4.11767 16C4.09557 16 4.07731 15.9851 4.0733 15.9652V15.9649C4.06459 15.9456 4.0594 15.9232 4.0594 15.8997C4.0594 15.8898 4.06024 15.8801 4.06208 15.8708V15.8717C4.06442 15.8609 4.06576 15.8485 4.06576 15.8358C4.06576 15.8135 4.06141 15.7924 4.05354 15.7728L4.05404 15.7741C4.04717 15.7536 4.03629 15.736 4.02206 15.7212C3.98572 15.6834 3.94118 15.6531 3.89111 15.6333L3.88877 15.6325C3.86164 15.6249 3.83937 15.6083 3.8253 15.5864L3.82497 15.5859C3.79751 15.5425 3.75632 15.5091 3.70692 15.4913L3.70524 15.4908C3.6957 15.4875 3.68783 15.4823 3.68163 15.4753C3.64295 15.4343 3.5882 15.4076 3.52691 15.4039H3.52624C3.4385 15.3888 3.36013 15.3635 3.28763 15.329L3.29265 15.3313C3.27674 15.3236 3.26351 15.3125 3.2538 15.299V15.2987C3.24057 15.2821 3.22483 15.2685 3.20658 15.258L3.20591 15.2577C3.17543 15.2411 3.14563 15.2228 3.11465 15.2065C3.08568 15.1914 3.06073 15.174 3.03829 15.1542H3.03846C3.02188 15.1395 3.00313 15.127 2.98253 15.1168L2.98119 15.1162C2.94502 15.0998 2.91572 15.0744 2.89596 15.0427L2.89546 15.0419C2.87855 15.014 2.8474 14.9954 2.8114 14.9954C2.81023 14.9954 2.80906 14.9954 2.80772 14.9954H2.80788C2.75832 14.9919 2.71277 14.985 2.66857 14.975L2.6746 14.9761C2.63123 14.9642 2.59455 14.9512 2.55939 14.9358L2.56441 14.9377C2.5403 14.9267 2.512 14.9203 2.4822 14.9203C2.48102 14.9203 2.47968 14.9203 2.47851 14.9203H2.47868C2.47784 14.9203 2.47667 14.9203 2.47567 14.9203C2.46646 14.9203 2.45775 14.9186 2.44988 14.9156H2.45038C2.43447 14.9095 2.41589 14.906 2.39646 14.906C2.38474 14.906 2.37352 14.9073 2.36264 14.9097H2.36364C2.35895 14.9106 2.3536 14.9114 2.34824 14.9114C2.333 14.9114 2.3191 14.9062 2.30838 14.8974L2.30353 14.894C2.27607 14.8712 2.23487 14.88 2.20858 14.8526C2.18481 14.8286 2.1555 14.8099 2.12268 14.7981L2.12118 14.7976C2.09623 14.7871 2.07077 14.7765 2.04499 14.7684C2.01233 14.7596 1.98872 14.7315 1.98872 14.6981C1.98872 14.6975 1.98872 14.6967 1.98872 14.696C1.98839 14.6929 1.98822 14.6889 1.98822 14.6851C1.98822 14.6813 1.98839 14.6773 1.98872 14.6735V14.6739C1.98923 14.6692 1.98956 14.6635 1.98956 14.6577C1.98956 14.6105 1.96964 14.5678 1.93732 14.5366C1.91069 14.5107 1.88909 14.48 1.87402 14.4462L1.87318 14.4443C1.86984 14.4349 1.86498 14.4268 1.85862 14.4198C1.82429 14.3845 1.78996 14.3476 1.7558 14.3147C1.73822 14.3005 1.72482 14.2823 1.71695 14.2616L1.71662 14.2608C1.70875 14.2378 1.70155 14.2146 1.69468 14.1912C1.68045 14.1383 1.6632 14.0928 1.6421 14.0494L1.64428 14.0545C1.6267 14.0193 1.61213 13.9785 1.60309 13.9359L1.60242 13.9324C1.59907 13.9109 1.59706 13.8861 1.59706 13.861C1.59706 13.851 1.5974 13.841 1.5979 13.8311V13.8326C1.59974 13.8179 1.60074 13.8011 1.60074 13.7839C1.60074 13.7796 1.60074 13.7753 1.60058 13.7711V13.7717C1.59991 13.7663 1.59941 13.7599 1.59941 13.7534C1.59941 13.7226 1.60912 13.6938 1.62569 13.6698L1.62536 13.6704C1.63574 13.6531 1.64545 13.6331 1.65299 13.6121L1.65383 13.6095C1.65667 13.6033 1.65835 13.5962 1.65835 13.5887C1.65835 13.5725 1.65064 13.558 1.63842 13.5485C1.62151 13.5355 1.61096 13.5159 1.61096 13.494C1.61096 13.4786 1.61632 13.4643 1.62519 13.4527C1.64261 13.4202 1.66287 13.3878 1.68346 13.3496L1.6843 13.3492Z" fill="#2189c1"/>
<path d="M14.8078 8.76754L15.0087 8.68294L15.2177 8.27728L15.4359 8.20315L15.542 8.08493L15.5596 8.095L15.6903 8.13725L15.7979 8.09285L16.1103 7.84383L16.2766 7.63181L16.4624 7.53645L16.5406 7.31548L16.9684 7.18746L17.3591 6.628L17.7069 6.41392L17.8905 6.08974L18.0594 5.76752L18.3374 5.45007L18.8159 5.27825L18.9914 5.0337L19.4088 5.19664L19.6489 5.42262L19.8192 5.50136L20.0921 5.6273L20.4389 5.64057L20.7652 5.56998L20.839 5.38377L20.8005 5.24221L20.7085 5.23262L20.7011 4.97483L20.79 4.92098L21.0015 4.69939L21.3837 4.6136L21.5854 4.697L21.7227 4.70745L22.3068 4.4742L22.543 4.58043L22.6395 4.55423L22.7076 4.47599L22.7978 4.29916L22.8981 4.2871L23.2312 4.18445L23.3147 3.93201L23.5624 4.01992L23.6072 4.13007L23.7036 4.10387L23.7965 4.17126L23.8928 4.08538L23.992 4.12136L23.961 4.28179L24.3756 4.20376L24.4992 4.27763L24.6337 4.33371L24.7733 4.18835L25.0264 4.22974L25.6013 4.47224L25.6557 4.6724L25.801 4.60322L26.1292 4.71383L26.463 5.00797L26.3566 5.11143L26.589 5.30779L26.5893 5.43033L26.7231 5.59374L26.7602 5.90606L26.8234 5.9186L27.0647 5.8085L27.1834 5.91442L27.396 6.37884L27.3385 6.60619L27.4489 6.68365L27.4522 6.92738L27.2687 7.25187L27.2741 7.32499L27.3325 7.66121L27.1233 8.57117L27.1961 8.67373L27.1629 9.00193L26.9165 9.08405L26.7623 9.18532L26.7782 9.24393L26.9565 9.6225L27.0696 10.2808L27.2893 10.7701L27.0997 10.8965L27.2094 11.0367L27.4553 10.8317L27.4947 10.8556L27.4478 11.0784L27.4383 11.2192L27.6123 11.5866L27.6578 12.0441L27.5989 12.1085L27.4653 11.9896L27.2514 12.0926L27.1352 11.9392L27.0557 11.9757L27.0479 12.1775L27.0316 12.2268L26.92 12.1974L26.8685 12.2263L26.7969 12.4129L26.8935 12.4941L27.0806 12.4581L27.1412 12.3522L27.2338 12.4197L27.16 12.5292L27.2123 12.6225L27.2696 12.6695L27.1246 12.7386L27.0597 12.8308L27.0982 12.9278L26.815 13.0941L26.7693 13.3214L26.4613 13.5229L26.4851 13.7313L26.3397 13.8005L26.3003 13.8858L26.4379 14.0633L26.349 14.1172L26.1247 14.1155L26.0283 14.1566L25.9783 14.4141L25.8535 14.4632L25.83 14.6513L25.6366 14.7186L25.6002 14.9254L25.3929 15.0414L25.3278 15.1973L25.2029 15.2312L25.1087 15.3346L25.1029 15.5331L25.0139 15.5869L24.8282 15.4518L24.4389 15.4023L24.0302 15.392L23.892 15.3221L23.7609 15.28L23.5029 15.4395L23.2969 15.3402L23.0843 15.3205L22.8137 15.3792L22.6734 15.6439L22.2288 15.6094L22.1308 15.7435L21.4061 15.6149L21.1424 15.6987L21.0603 15.6136L20.9803 15.6501L20.7043 15.6328L20.6897 15.5145L20.5083 15.5157L20.4741 15.555L20.4228 15.646L20.4264 15.8897L20.2644 15.9637L20.1807 15.8641L19.8849 15.654L19.7009 15.7013L19.396 15.402L19.1382 15.3316L19.1111 15.2319L18.9884 15.2203L18.9335 15.1278L18.8408 15.1678L18.7656 15.1108L18.6161 14.7693L18.4791 14.7736L18.2234 14.7656L17.9966 14.5349L17.8663 14.4957L17.4959 14.5158L17.1396 14.6423L16.6502 14.6648L16.279 14.3959L16.1102 14.3789L15.4228 14.4406L15.1341 14.2564L14.1193 13.4858L13.8945 13.3171L13.6247 12.914L13.7474 12.5315L13.6825 11.9962L13.6958 11.7041L13.9482 11.4684L14.07 11.1934L14.4226 10.7639L14.6136 10.4674L14.63 10.3102L14.6561 10.1211L14.6105 9.82628L14.6391 9.27124L14.8077 8.76774L14.8078 8.76754Z" fill="#2189c1"/>
<path d="M6.45352 17.6404L6.47547 17.6403L6.47565 17.6622L6.4537 17.6624L6.45352 17.6404ZM9.09702 17.927L9.0972 17.949L9.11916 17.9488L9.09702 17.927ZM6.45117 17.3542L6.47313 17.354L6.47331 17.3759L6.45135 17.3761L6.45117 17.3542ZM5.72992 17.9983L5.75206 18.0201L5.75188 17.9982L5.72992 17.9983ZM5.77314 17.8882L5.7951 17.888L5.77296 17.8662L5.77314 17.8882ZM11.036 20.8166L10.992 20.8389L11.014 20.8387L11.0358 20.8166L11.036 20.8166ZM11.1242 20.8159L11.1462 20.8157L11.1682 20.8263L11.1238 20.7937L11.124 20.8157L11.1242 20.8159ZM9.90117 19.3072L9.92313 19.307L9.92331 19.329L9.90135 19.3291L9.90117 19.3072ZM11.1684 20.8263L11.1901 20.843L11.1901 20.8373L11.1684 20.8263ZM17.6755 19.8376L17.6753 19.8156L17.6535 19.8377L17.6757 19.8595L17.6974 19.8374L17.6755 19.8376ZM18.0997 20.5384L18.1211 20.5163L18.1209 20.4944L18.0772 20.4947L18.0774 20.5167L18.0993 20.5165L18.0995 20.5384L18.0997 20.5384ZM18.6524 20.8643L18.6744 20.8642L18.6745 20.8861L18.6526 20.8863L18.6524 20.8643ZM15.118 19.3522L15.1399 19.352L15.1401 19.374L15.1181 19.3742L15.118 19.3522ZM15.0962 19.3744L15.1181 19.3742L15.1183 19.3961L15.0964 19.3963L15.0962 19.3744ZM5.54098 21.7861L5.5633 21.83L5.58508 21.8079L5.56312 21.808L5.54099 21.7863L5.54098 21.7861ZM7.07424 23.5563L7.0962 23.5562L7.09584 23.5125L7.07406 23.5346L7.07424 23.5561L7.07424 23.5563ZM5.27326 21.348L5.28761 21.3479L5.27308 21.3261L5.27326 21.348ZM5.28761 21.3479L5.31774 21.3918L5.29542 21.3478L5.28761 21.3479ZM24.1768 26.1017L24.1548 26.1019L24.177 26.1237L24.1768 26.1017ZM24.3175 24.4938L24.3172 24.4505L24.3391 24.4504L24.3389 24.4284L24.3822 24.428L24.382 24.4061L24.4253 24.4057L24.4251 24.3838L24.4912 24.3832L24.491 24.3613L24.5145 24.3611L24.5143 24.3391L24.4923 24.3393L24.4921 24.3173L24.471 24.3175L24.4712 24.3395L24.4279 24.3398L24.4058 24.3181L24.3847 24.3182L24.3845 24.2967L24.3626 24.2969L24.3618 24.2103L24.3399 24.2105L24.3393 24.1444L24.3613 24.1442L24.3611 24.1223L24.3392 24.1225L24.339 24.1005L24.317 24.1007L24.3167 24.0574L24.2734 24.0578L24.2513 24.036L24.2511 24.014L24.2291 24.0142L24.2289 23.9922L24.1857 23.9926L24.1855 23.9706L24.1639 23.9708L24.1636 23.9275L24.1416 23.9277L24.1413 23.8844L24.098 23.8848L24.0978 23.8628L24.0759 23.863L24.0757 23.8415L24.0324 23.8418L24.0319 23.7757L24.0099 23.7759L24.0101 23.7979L23.9881 23.7981L23.9879 23.7761L23.9223 23.7766L23.9219 23.7334L23.9 23.7335L23.8998 23.7116L23.8778 23.7118L23.878 23.7337L23.8561 23.7339L23.8559 23.712L23.8339 23.7121L23.8557 23.69L23.8777 23.6898L23.8773 23.6465L23.9206 23.6462L23.9202 23.6029L23.8983 23.6031L23.8981 23.5811L23.8761 23.5813L23.854 23.5595L23.7831 23.5601L23.7609 23.5383L23.739 23.5385L23.7387 23.5096L23.7166 23.4878L23.7164 23.4667L23.6507 23.4672L23.6506 23.4453L23.6286 23.4455L23.6288 23.4674L23.5422 23.4681L23.5421 23.4462L23.476 23.4467L23.4543 23.4249L23.4323 23.4251L23.4321 23.4032L23.4102 23.4033L23.3844 23.3833L23.3625 23.3835L23.3623 23.3615L23.3412 23.3617L23.341 23.3397L23.2749 23.3403L23.2748 23.3183L23.2315 23.3187L23.2313 23.2967L23.211 23.2969L23.1889 23.2751L23.1456 23.2754L23.1021 23.2538L23.0156 23.2545L23.0154 23.2326L22.9288 23.2333L22.9067 23.2115L22.8634 23.2119L22.8636 23.2338L22.8416 23.234L22.8418 23.256L22.732 23.2569L22.7319 23.2349L22.7099 23.2351L22.7097 23.2131L22.6878 23.2133L22.6876 23.1914L22.6215 23.1919L22.6213 23.1704L22.5994 23.1706L22.5995 23.1921L22.5776 23.1923L22.5778 23.2142L22.4912 23.2149L22.491 23.193L22.4691 23.1932L22.4689 23.1716L22.4469 23.1718L22.4473 23.2151L22.404 23.2154L22.3819 23.1937L22.3817 23.1721L22.3597 23.1723L22.3596 23.1503L22.3163 23.1507L22.3159 23.1074L22.2944 23.1076L22.2942 23.0856L22.2723 23.0858L22.2721 23.0639L22.206 23.0644L22.2058 23.0424L22.172 23.0427L22.1717 22.9994L22.1497 22.9996L22.1494 22.9563L22.1061 22.9567L22.0839 22.9353L22.0624 22.9355L22.0621 22.8922L21.9755 22.893L21.9753 22.871L21.9546 22.8712L21.9548 22.8931L21.9329 22.8933L21.9327 22.8713L21.9107 22.8715L21.9105 22.8496L21.8886 22.8497L21.8884 22.8278L21.8664 22.828L21.8443 22.8062L21.8441 22.7842L21.8226 22.7844L21.8228 22.8064L21.8008 22.8066L21.8006 22.7846L21.7787 22.7848L21.7783 22.7415L21.7564 22.7417L21.7565 22.7636L21.7344 22.7419L21.7342 22.7203L21.6681 22.7209L21.668 22.6989L21.646 22.6991L21.6458 22.6771L21.6239 22.6773L21.6235 22.634L21.5802 22.6344L21.5581 22.6126L21.5361 22.6128L21.5363 22.6347L21.5144 22.6349L21.4926 22.6571L21.4265 22.6576L21.4261 22.6143L21.4042 22.6145L21.4044 22.6365L21.3828 22.6366L21.383 22.6586L21.3397 22.6589L21.3401 22.7022L21.3181 22.7024L21.3183 22.7244L21.0762 22.7264L21.0763 22.7479L21.0326 22.7924L20.9881 22.7486L20.9608 22.7488L20.9387 22.7275L20.9176 22.7277L20.8962 22.7494L20.8747 22.7495L20.8749 22.7715L20.8529 22.7717L20.8527 22.7497L20.8316 22.7499L20.8315 22.7284L20.8095 22.7285L20.8093 22.7066L20.7882 22.7068L20.7871 22.5674L20.7649 22.5456L20.7647 22.5237L20.7215 22.524L20.7211 22.4808L20.6992 22.4809L20.6774 22.4592L20.6773 22.4372L20.6553 22.4374L20.6547 22.3698L20.6328 22.37L20.6326 22.348L20.6107 22.3482L20.6108 22.3702L20.5891 22.3923L20.5892 22.4134L20.5231 22.414L20.523 22.392L20.5008 22.3702L20.5003 22.3041L20.4346 22.3047L20.4343 22.2614L20.4556 22.2393L20.4554 22.2173L20.4774 22.2171L20.4771 22.1739L20.4551 22.174L20.4546 22.108L20.4328 22.0862L20.4323 22.0205L20.4102 21.9987L20.4096 21.9327L20.3875 21.9109L20.4094 21.9107L20.4093 21.8887L20.366 21.8891L20.3658 21.8671L20.3225 21.8675L20.3223 21.8455L20.3443 21.8454L20.3441 21.8234L20.3659 21.8017L20.3439 21.8019L20.3438 21.7799L20.3218 21.7801L20.3 21.8022L20.2567 21.8026L20.2566 21.7806L20.2346 21.7808L20.2132 21.8029L19.9926 21.8047L19.9924 21.7828L20.0142 21.7607L20.0135 21.6741L20.0355 21.6739L20.0353 21.652L20.0133 21.6521L20.013 21.6089L19.991 21.609L19.9697 21.6312L19.9695 21.6092L19.9475 21.6094L19.9473 21.5874L19.9254 21.5876L19.9256 21.6096L19.9036 21.6097L19.904 21.653L19.882 21.6532L19.8822 21.6752L19.9041 21.675L19.8824 21.6971L19.8825 21.7191L19.8393 21.7194L19.8175 21.7416L19.8177 21.7635L19.752 21.7641L19.7302 21.7862L19.6147 21.7872L19.6142 21.7211L19.5922 21.7213L19.5921 21.6993L19.5488 21.6996L19.5486 21.6777L19.5275 21.6779L19.5273 21.6559L19.5058 21.6561L19.506 21.678L19.484 21.6782L19.4838 21.6563L19.4619 21.6564L19.4624 21.7225L19.4405 21.7227L19.4406 21.7447L19.3745 21.7452L19.3722 21.4589L19.3502 21.4591L19.3499 21.4158L19.3279 21.416L19.3058 21.3942L19.2843 21.3944L19.2841 21.3724L19.2408 21.3728L19.2406 21.3508L19.2187 21.351L19.1749 21.3955L19.1745 21.3522L19.1526 21.3524L19.1522 21.3091L19.1303 21.3093L19.1301 21.2873L19.0868 21.2877L19.0866 21.2657L19.0434 21.2661L18.9989 21.2223L18.9769 21.2225L18.9548 21.2007L18.9546 21.1744L18.9326 21.1745L18.9324 21.1526L18.9105 21.1528L18.9103 21.1316L18.8883 21.1318L18.8662 21.1105L18.866 21.0889L18.8441 21.0891L18.8439 21.0672L18.8006 21.0675L18.8004 21.0464L18.7785 21.0466L18.7783 21.0246L18.735 21.025L18.7348 21.0039L18.7129 21.004L18.7127 20.9821L18.6682 20.9383L18.6679 20.895L18.6459 20.8952L18.6241 20.9169L18.6243 20.9389L18.6023 20.9391L18.6025 20.961L18.581 20.9612L18.5808 20.9393L18.6022 20.9171L18.6018 20.8738L18.6238 20.8737L18.6231 20.7871L18.6011 20.7873L18.6015 20.8306L18.5799 20.8307L18.5797 20.8088L18.5578 20.809L18.5576 20.787L18.5143 20.7874L18.4922 20.7656L18.492 20.7436L18.4487 20.744L18.4485 20.722L18.3825 20.7226L18.3607 20.7008L18.3606 20.6788L18.3386 20.679L18.3384 20.6575L18.2939 20.6137L18.272 20.6139L18.2718 20.5919L18.2498 20.5921L18.2277 20.5703L18.1411 20.571L18.141 20.5491L18.0977 20.5494L18.0975 20.5275L18.0755 20.5277L18.0748 20.4411L18.0968 20.4409L18.0966 20.419L18.0747 20.4191L18.0734 20.2648L17.9868 20.2655L17.9867 20.2436L17.9647 20.2437L17.9645 20.2218L17.878 20.2225L17.8562 20.2446L17.8342 20.2448L17.8344 20.2668L17.7683 20.2673L17.7681 20.2454L17.7249 20.2457L17.7247 20.2238L17.7027 20.2239L17.7025 20.2024L17.7245 20.2022L17.724 20.1361L17.7459 20.136L17.7452 20.0494L17.7234 20.0715L17.7227 19.985L17.7008 19.9851L17.6999 19.8754L17.6566 19.8757L17.6563 19.8464L17.6346 19.8685L17.6344 19.8466L17.5911 19.8469L17.5913 19.8689L17.5693 19.869L17.569 19.8258L17.547 19.8259L17.5472 19.8471L17.5252 19.8472L17.5249 19.804L17.5029 19.8041L17.5031 19.8261L17.481 19.8043L17.4806 19.761L17.4586 19.7612L17.4588 19.7832L17.4369 19.7834L17.4155 19.8055L17.3936 19.8057L17.3934 19.7837L17.3714 19.7839L17.3711 19.7406L17.393 19.7404L17.3925 19.6708L17.3492 19.6711L17.349 19.6492L17.327 19.6493L17.3272 19.6713L17.3053 19.6715L17.3051 19.6495L17.2185 19.6502L17.2183 19.6283L17.197 19.6504L17.1968 19.6284L17.1535 19.6288L17.1532 19.5855L17.1314 19.6077L17.1316 19.6296L17.0655 19.6302L17.0653 19.6082L17.0433 19.6084L17.0432 19.5864L17.0214 19.6086L17.0219 19.6746L17 19.6748L17.0003 19.7181L16.9347 19.7186L16.9345 19.6967L16.9125 19.6969L16.9124 19.6749L16.8904 19.6751L16.8902 19.6531L16.8683 19.6533L16.8461 19.6315L16.8242 19.6317L16.824 19.6098L16.802 19.6099L16.8018 19.588L16.7799 19.5882L16.7797 19.5662L16.7578 19.5664L16.7579 19.5883L16.7147 19.5887L16.7148 19.6107L16.6929 19.6108L16.6927 19.5889L16.6709 19.611L16.6713 19.6543L16.6493 19.6545L16.6275 19.6766L16.6056 19.6768L16.6058 19.6987L16.4552 19.7L16.4107 19.6562L16.4106 19.6343L16.3886 19.6344L16.3881 19.5684L16.3661 19.5685L16.3657 19.5253L16.3438 19.5254L16.3436 19.5039L16.3003 19.5043L16.2998 19.4382L16.2565 19.4385L16.2563 19.4166L16.2344 19.4168L16.2342 19.3948L16.1909 19.3952L16.1911 19.4171L16.1478 19.4175L16.148 19.4394L16.126 19.4396L16.1259 19.4176L16.1039 19.4178L16.1041 19.4398L16.0608 19.4401L16.061 19.4621L16.0177 19.4624L16.0179 19.4844L15.9959 19.4846L15.9957 19.4626L15.974 19.4848L15.952 19.4849L15.9522 19.5069L15.8834 19.5075L15.8389 19.4637L15.8391 19.4857L15.8171 19.4858L15.8173 19.5078L15.7957 19.508L15.774 19.5297L15.6638 19.5306L15.6639 19.5526L15.642 19.5527L15.6422 19.5747L15.5324 19.5756L15.5102 19.5538L15.4883 19.554L15.4881 19.532L15.4448 19.5324L15.4446 19.5109L15.4227 19.511L15.4225 19.4891L15.4005 19.4893L15.4004 19.4673L15.3571 19.4677L15.3569 19.4457L15.3352 19.4239L15.3354 19.4459L15.2693 19.4464L15.2698 19.5125L15.2265 19.5129L15.226 19.4468L15.2042 19.4689L15.2039 19.4256L15.1819 19.4258L15.1817 19.4039L15.1596 19.3821L15.1598 19.404L15.1378 19.4042L15.138 19.4262L15.0947 19.4265L15.0949 19.4485L15.0729 19.4487L15.0731 19.4706L15.0512 19.4708L15.0513 19.4928L15.0294 19.4929L15.0292 19.471L15.0073 19.4712L15.0071 19.4492L14.9886 19.4679L14.9851 19.4494L14.9632 19.4496L14.963 19.4276L14.941 19.4278L14.9414 19.4711L14.9196 19.4932L14.9198 19.5152L14.8765 19.5155L14.8544 19.4937L14.8324 19.4939L14.8331 19.5805L14.805 19.5807L14.8052 19.6027L14.7619 19.603L14.7621 19.625L14.6756 19.6257L14.6761 19.6918L14.6541 19.692L14.654 19.67L14.6328 19.6702L14.6327 19.6482L14.5894 19.6486L14.5892 19.6266L14.5459 19.627L14.5241 19.6491L14.4144 19.65L14.4142 19.628L14.3922 19.6282L14.3928 19.6943L14.3708 19.6945L14.349 19.7166L14.3057 19.717L14.3056 19.695L14.2395 19.6956L14.24 19.7616L14.2181 19.7618L14.2182 19.7834L14.1085 19.7843L14.1086 19.8062L14.0867 19.8064L14.0869 19.8319L14.0651 19.8541L14.0218 19.8544L14.022 19.8756L13.9787 19.8759L13.9789 19.8979L13.9356 19.8982L13.9358 19.9193L13.9138 19.9195L13.9137 19.8976L13.8917 19.8977L13.8919 19.9197L13.8486 19.92L13.8492 19.9861L13.8711 19.986L13.8713 20.0075L13.8495 20.0296L13.8276 20.0298L13.8279 20.0731L13.8059 20.0733L13.7622 20.1178L13.7189 20.1181L13.7187 20.0961L13.6968 20.0963L13.6969 20.1183L13.675 20.1185L13.6532 20.1406L13.6536 20.1839L13.6316 20.1841L13.6318 20.206L13.5885 20.2064L13.5883 20.1844L13.5666 20.2066L13.5671 20.2722L13.5451 20.2724L13.5234 20.2945L13.5018 20.2947L13.502 20.3167L13.2598 20.3187L13.1943 20.3853L13.151 20.3856L13.1292 20.4078L13.1071 20.386L13.0851 20.3862L13.0853 20.4081L13.0197 20.4087L13.0414 20.3865L12.9982 20.3869L12.9983 20.4088L12.9764 20.409L12.9762 20.3871L12.9544 20.4092L12.9325 20.4094L12.9327 20.4313L12.9107 20.4315L12.9109 20.4535L12.834 20.4541L12.8342 20.4761L12.8124 20.4978L12.7691 20.4981L12.7693 20.5201L12.7474 20.5203L12.7475 20.5422L12.6373 20.5431L12.6156 20.5653L12.5936 20.5655L12.5719 20.5437L12.5058 20.5442L12.5056 20.5223L12.4835 20.5005L12.4615 20.5007L12.4394 20.4793L12.4396 20.5008L12.3735 20.5014L12.3737 20.5233L12.3304 20.5237L12.3306 20.5457L12.308 20.5458L12.2642 20.5903L12.2423 20.5905L12.2205 20.6126L12.2207 20.6346L12.1987 20.6348L12.1989 20.6567L12.1771 20.6789L12.1552 20.6791L12.1334 20.7012L12.0677 20.7017L12.0679 20.7233L12.0459 20.7234L12.0461 20.7454L12.0242 20.7456L12.0243 20.7675L11.9811 20.7679L11.9812 20.7899L11.938 20.7902L11.9381 20.8122L11.8725 20.8127L11.8727 20.8347L11.8507 20.8348L11.8505 20.8129L11.8286 20.8131L11.8287 20.835L11.7855 20.8354L11.7858 20.8787L11.7197 20.8792L11.7199 20.9012L11.588 20.9022L11.5445 20.8806L11.4579 20.8813L11.4581 20.9033L11.436 20.8815L11.4362 20.9035L11.4146 20.9037L11.4145 20.8817L11.3927 20.9038L11.3705 20.8821L11.3486 20.8822L11.3051 20.8606L11.2308 20.8613L11.2087 20.845L11.2088 20.8614L11.231 20.8832L11.3179 20.9258L11.3181 20.9477L11.2961 20.9479L11.2745 20.9914L11.2309 20.9485L11.2089 20.9486L11.2091 20.9702L11.2526 20.9918L11.2308 21.0139L11.2088 21.0141L11.209 21.036L11.1659 21.0584L11.1465 21.0585L11.1034 21.0808L11.0598 21.0379L11.0163 21.0163L10.9501 20.9512L10.9499 20.9292L10.9714 20.929L10.9932 20.9069L11.0146 20.8406L10.9284 20.8846L10.9061 20.8415L10.9059 20.8196L10.8838 20.7978L10.9056 20.7757L10.9054 20.7537L10.8834 20.7539L10.8827 20.6673L10.8608 20.6675L10.8606 20.6455L10.8385 20.6238L10.8383 20.6018L10.8161 20.58L10.816 20.5581L10.7938 20.5363L10.7719 20.5365L10.7717 20.5145L10.7497 20.5147L10.7499 20.5367L10.6842 20.5372L10.6621 20.5154L10.64 20.4941L10.6398 20.4721L10.6178 20.4723L10.6175 20.429L10.5955 20.4292L10.5952 20.3859L10.573 20.3641L10.595 20.364L10.5944 20.2979L10.5725 20.2981L10.5714 20.1684L10.5495 20.1686L10.5489 20.1025L10.527 20.1027L10.5268 20.0759L10.5048 20.0761L10.5046 20.0541L10.4829 20.0323L10.4827 20.0108L10.4608 20.011L10.4602 19.947L10.4383 19.9472L10.4381 19.9252L10.4161 19.9254L10.416 19.9043L10.3499 19.9048L10.3497 19.8829L10.3064 19.8832L10.2843 19.8615L10.241 19.8618L10.2189 19.84L10.1754 19.8184L10.1752 19.7969L10.1533 19.7971L10.1526 19.7105L10.1306 19.7107L10.1085 19.6889L10.1079 19.6228L10.1299 19.6227L10.1295 19.5794L10.1076 19.5796L10.107 19.5139L10.1288 19.4918L10.1069 19.4919L10.1067 19.47L10.0847 19.4702L10.0626 19.4484L10.0406 19.4486L10.0404 19.4266L10.0187 19.4048L9.97527 19.3832L9.90265 19.3838L9.90247 19.3619L9.92425 19.3401L9.90229 19.3403L9.90175 19.2742L9.88021 19.2744L9.88003 19.2525L9.85808 19.2526L9.85772 19.2094L9.83661 19.2095L9.83643 19.1876L9.81447 19.1878L9.79233 19.166L9.81429 19.1658L9.81394 19.1225L9.79282 19.1227L9.77111 19.1013L9.77093 19.0794L9.72765 19.0797L9.72747 19.0578L9.70551 19.058L9.68338 19.0362L9.66142 19.0364L9.66124 19.0144L9.6391 18.9926L9.66106 18.9924L9.6607 18.9492L9.63875 18.9493L9.63839 18.9061L9.61643 18.9062L9.61547 18.7886L9.63743 18.7885L9.63725 18.7665L9.61529 18.7667L9.61512 18.7456L9.59298 18.7238L9.59281 18.7027L9.61476 18.7025L9.61422 18.6368L9.6575 18.6365L9.67928 18.6144L9.6791 18.5924L9.65714 18.5926L9.63501 18.5708L9.59173 18.5712L9.59155 18.5492L9.63483 18.5488L9.63465 18.5269L9.61269 18.5271L9.61198 18.4405L9.63376 18.4188L9.59048 18.4191L9.5903 18.3972L9.56852 18.4193L9.54699 18.4195L9.54716 18.441L9.37066 18.4425L9.34853 18.4211L9.34835 18.3992L9.32639 18.3994L9.32585 18.3333L9.30413 18.3115L9.26085 18.3118L9.26067 18.2899L9.23872 18.2901L9.23817 18.224L9.21622 18.2242L9.21586 18.1809L9.19391 18.1811L9.19373 18.1591L9.17177 18.1593L9.17068 18.0269L9.1274 18.0273L9.12722 18.0053L9.149 17.9832L9.12704 17.9834L9.12686 17.9618L9.10491 17.962L9.10473 17.94L9.06145 17.9404L9.06163 17.9624L9.03967 17.9625L9.04002 18.0058L9.01807 18.006L9.01825 18.028L8.99629 18.0281L8.99647 18.0501L8.97469 18.0722L8.93141 18.0726L8.93123 18.0506L8.90928 18.0508L8.9091 18.0289L8.88714 18.029L8.88643 17.9425L8.86447 17.9426L8.86429 17.9207L8.84276 17.9209L8.84221 17.8548L8.82026 17.855L8.81972 17.7889L8.84167 17.7887L8.84149 17.7667L8.79821 17.7671L8.79786 17.7238L8.75458 17.7242L8.75422 17.6809L8.73226 17.6811L8.73208 17.6591L8.6888 17.6595L8.68856 17.6305L8.66679 17.6527L8.64483 17.6529L8.64501 17.6748L8.53523 17.6757L8.51309 17.6539L8.49113 17.6541L8.49078 17.6108L8.46882 17.611L8.46864 17.5891L8.44668 17.5892L8.4465 17.5673L8.42436 17.5455L8.40241 17.5457L8.40223 17.5237L8.38069 17.5239L8.38053 17.5036L8.31444 17.5042L8.29266 17.5259L8.27053 17.5045L8.24875 17.5263L8.20547 17.5266L8.20565 17.5482L8.11908 17.5489L8.1189 17.5269L8.09695 17.5271L8.09677 17.506L8.05349 17.5063L8.05331 17.4844L8.03136 17.4846L8.03118 17.4634L8.00922 17.4636L8.00868 17.3975L7.93078 17.3982L7.93022 17.3304L7.90869 17.3306L7.90717 17.1452L7.88521 17.1454L7.88539 17.1674L7.86343 17.1675L7.86361 17.1895L7.84165 17.1897L7.84147 17.1677L7.81952 17.1679L7.8197 17.1898L7.77642 17.1902L7.77606 17.1471L7.57718 17.1488L7.577 17.1268L7.51092 17.1274L7.5111 17.1493L7.48851 17.1495L7.48886 17.1928L7.46733 17.193L7.46751 17.2149L7.44616 17.237L7.44634 17.259L7.42438 17.2592L7.4026 17.2809L7.40278 17.3029L7.38082 17.303L7.381 17.325L7.36073 17.3252L7.36144 17.4117L7.33967 17.4339L7.31771 17.434L7.31753 17.4121L7.29557 17.4123L7.29539 17.3903L7.27343 17.3905L7.27325 17.3685L7.22997 17.3689L7.22979 17.3469L7.18651 17.3473L7.16438 17.3255L7.14242 17.3257L7.1426 17.3476L7.05604 17.3483L7.05622 17.3703L7.03444 17.3924L6.85372 17.3939L6.83158 17.3721L6.80962 17.3723L6.78749 17.3505L6.7873 17.3286L6.76577 17.3288L6.76595 17.3507L6.74399 17.3509L6.74381 17.3289L6.72204 17.3511L6.72186 17.3291L6.61165 17.33L6.61183 17.352L6.56855 17.3523L6.54641 17.3306L6.52488 17.3307L6.52523 17.374L6.50327 17.3742L6.4815 17.3963L6.50345 17.3962L6.48168 17.4183L6.50363 17.4181L6.48186 17.4403L6.48207 17.4666L6.50403 17.4665L6.50421 17.4884L6.48141 17.4886L6.48158 17.5097L6.50354 17.5095L6.50372 17.5311L6.52567 17.5309L6.52603 17.5742L6.54756 17.574L6.5697 17.5958L6.56988 17.6177L6.59184 17.6176L6.59219 17.6608L6.57042 17.683L6.54846 17.6832L6.54828 17.6612L6.505 17.6616L6.50518 17.6835L6.48259 17.6837L6.48294 17.727L6.35057 17.7281L6.35074 17.7496L6.3727 17.7494L6.37288 17.7714L6.35092 17.7716L6.3511 17.7935L6.32767 17.7937L6.32802 17.837L6.30607 17.8372L6.28471 17.8593L6.28489 17.8813L6.26293 17.8814L6.26311 17.9034L6.21983 17.9037L6.22001 17.9257L6.15604 17.9262L6.15586 17.9043L6.13373 17.8825L6.13354 17.8605L6.11159 17.8607L6.11123 17.8174L6.08928 17.8176L6.08999 17.9042L6.06845 17.9044L6.06863 17.9263L6.00086 17.9269L6.00104 17.9488L5.89083 17.9497L5.89065 17.9278L5.8687 17.928L5.86851 17.906L5.84656 17.9062L5.84638 17.8842L5.82484 17.8844L5.8252 17.9277L5.80342 17.9498L5.8036 17.9718L5.82573 17.9931L5.82591 18.0151L5.78263 18.0154L5.78281 18.0374L5.82609 18.037L5.82645 18.0803L5.80467 18.1025L5.78272 18.1026L5.7829 18.1246L5.80485 18.1244L5.80503 18.1464L5.82699 18.1462L5.82735 18.1895L5.80557 18.2112L5.78361 18.2114L5.73984 18.2559L5.74002 18.2778L5.78331 18.2775L5.78366 18.3207L5.76255 18.3209L5.76237 18.299L5.74041 18.2991L5.74112 18.3857L5.69784 18.3861L5.69802 18.408L5.67606 18.4082L5.67624 18.4301L5.65429 18.4303L5.65446 18.4519L5.67642 18.4517L5.67678 18.495L5.65482 18.4951L5.655 18.5171L5.61172 18.5175L5.6119 18.5394L5.63343 18.5392L5.63361 18.5612L5.65557 18.561L5.65575 18.583L5.63379 18.5831L5.63397 18.6051L5.61262 18.6272L5.59066 18.6274L5.56888 18.6496L5.59084 18.6494L5.59102 18.6709L5.56906 18.6711L5.56924 18.693L5.54728 18.6932L5.54755 18.7262L5.52412 18.7264L5.52447 18.7696L5.50252 18.7698L5.50287 18.8131L5.48091 18.8133L5.48109 18.8352L5.45949 18.8787L5.46039 18.9885L5.43844 18.9887L5.43879 19.0319L5.41683 19.0321L5.39506 19.0543L5.39524 19.0762L5.37388 19.0983L5.37478 19.2081L5.35283 19.2083L5.35318 19.2516L5.33122 19.2518L5.33177 19.3179L5.30999 19.34L5.31034 19.3833L5.28839 19.3835L5.28857 19.4054L5.26661 19.4056L5.26679 19.4276L5.24483 19.4277L5.24501 19.4497L5.22324 19.4718L5.22342 19.4938L5.20146 19.494L5.20164 19.5159L5.17986 19.5381L5.18004 19.56L5.15851 19.5602L5.16215 20.0038L5.13829 20.004L5.139 20.0905L5.11704 20.0907L5.1174 20.134L5.04562 20.1346L5.0458 20.1565L5.02468 20.1567L5.02504 20.2L5.04681 20.1778L5.06895 20.1996L5.06966 20.2862L5.04788 20.3079L5.04859 20.3945L5.02663 20.3946L5.02734 20.4812L5.04948 20.503L5.04966 20.5249L5.07077 20.5248L5.07095 20.5463L5.09309 20.5681L5.1142 20.5679L5.11438 20.5899L5.13634 20.5897L5.15805 20.6115L5.18001 20.6113L5.18019 20.6332L5.22347 20.6329L5.22365 20.6548L5.24561 20.6547L5.24579 20.6766L5.26775 20.6764L5.2681 20.7197L5.29024 20.7415L5.29041 20.763L5.31255 20.7848L5.31273 20.8068L5.33469 20.8066L5.33504 20.8499L5.357 20.8497L5.35953 21.1579L5.33757 21.1581L5.33793 21.2014L5.35989 21.2012L5.36086 21.3201L5.33908 21.3422L5.33926 21.3642L5.31731 21.3643L5.31766 21.4076L5.2957 21.4078L5.29624 21.4735L5.3182 21.4733L5.34034 21.4951L5.36229 21.4949L5.36247 21.5168L5.38401 21.5167L5.38419 21.5386L5.40615 21.5384L5.40633 21.5604L5.44961 21.56L5.44979 21.582L5.47192 21.6038L5.4721 21.6257L5.49406 21.6256L5.49424 21.6475L5.5162 21.6473L5.51638 21.6693L5.53851 21.6906L5.56065 21.7124L5.53869 21.7126L5.53905 21.7559L5.56101 21.7557L5.56119 21.7777L5.58332 21.7994L5.58368 21.8427L5.60563 21.8425L5.60581 21.8645L5.62735 21.8643L5.62753 21.8863L5.64949 21.8861L5.64967 21.9081L5.67162 21.9079L5.6718 21.9294L5.69376 21.9292L5.69411 21.9725L5.71607 21.9723L5.71625 21.9943L5.73821 21.9941L5.73839 22.0161L5.76034 22.0159L5.78248 22.0377L5.78302 22.1037L5.80498 22.1036L5.80516 22.1255L5.84844 22.1252L5.84862 22.1467L5.87058 22.1465L5.9372 22.2121L5.95916 22.2119L5.95934 22.2338L5.98129 22.2337L5.98147 22.2556L6.00343 22.2554L6.00361 22.2774L6.02575 22.2992L6.04771 22.299L6.04789 22.3209L6.06984 22.3208L6.07008 22.3493L6.09161 22.3491L6.09179 22.371L6.11375 22.3709L6.11393 22.3924L6.13588 22.3922L6.13606 22.4142L6.16372 22.4139L6.16389 22.4346L6.18603 22.4564L6.20714 22.4562L6.2075 22.4995L6.22945 22.4993L6.22981 22.5426L6.25092 22.5425L6.2511 22.5644L6.27324 22.5862L6.29435 22.586L6.2947 22.6293L6.31642 22.6511L6.33856 22.6729L6.33874 22.6948L6.36087 22.7166L6.36105 22.7385L6.38301 22.7384L6.38319 22.7603L6.40533 22.7821L6.42729 22.7819L6.42747 22.8039L6.44942 22.8037L6.47156 22.8255L6.51484 22.8251L6.5583 22.8463L6.58026 22.8461L6.62474 22.8899L6.6467 22.8897L6.64688 22.9117L6.66884 22.9115L6.66902 22.9334L6.69097 22.9333L6.69115 22.9552L6.73444 22.9549L6.73462 22.9768L6.75657 22.9766L6.75675 22.9986L6.77889 23.0204L6.80043 23.0202L6.80061 23.0421L6.82256 23.042L6.82274 23.0635L6.84488 23.0853L6.84506 23.1072L6.86701 23.1071L6.86719 23.129L6.88933 23.1508L6.88969 23.1941L6.91164 23.1939L6.91219 23.26L6.93432 23.2817L6.93486 23.3474L6.957 23.3692L6.95718 23.3911L6.97914 23.391L6.97932 23.4129L7.00145 23.4347L7.02299 23.4345L7.02317 23.4565L7.04512 23.4563L7.04531 23.4783L7.06726 23.4781L7.06749 23.5053L7.11077 23.505L7.11094 23.5265L7.1329 23.5263L7.13272 23.5048L7.15468 23.5046L7.15486 23.5261L7.17681 23.5259L7.17699 23.5475L7.22027 23.5471L7.22045 23.5691L7.24181 23.547L7.26376 23.5468L7.26358 23.5248L7.30686 23.5245L7.30669 23.5033L7.32865 23.5032L7.35043 23.481L7.48006 23.48L7.50958 23.5017L7.57567 23.5011L7.57584 23.5227L7.5978 23.5225L7.61994 23.5443L7.6634 23.5659L7.68535 23.5657L7.70749 23.5875L7.72903 23.5873L7.72921 23.6092L7.75116 23.6091L7.75133 23.6289L7.77328 23.6287L7.79542 23.6505L7.81738 23.6503L7.81755 23.6714L7.83951 23.6713L7.83969 23.6932L7.86183 23.715L7.88378 23.7148L7.88396 23.7368L7.90592 23.7366L7.9061 23.7581L7.92805 23.758L7.94977 23.7797L7.97191 23.8015L7.99386 23.8013L7.99404 23.8233L8.03732 23.8229L8.08181 23.8667L8.10377 23.8665L8.12591 23.8883L8.16919 23.8879L8.16937 23.9099L8.27915 23.909L8.30129 23.9308L8.43092 23.9297L8.45306 23.9515L8.63547 23.95L8.65718 23.9713L8.67872 23.9712L8.6789 23.9931L8.70085 23.9929L8.72299 24.0147L8.76627 24.0144L8.76645 24.0363L8.78841 24.0361L8.78859 24.0581L8.81055 24.0579L8.81073 24.0799L8.87639 24.0793L8.87657 24.1013L8.91985 24.1009L8.9202 24.1442L8.98629 24.1437L8.98647 24.1656L9.00842 24.1655L9.0086 24.1874L9.03056 24.1872L9.03038 24.1653L9.05234 24.1651L9.05269 24.2084L9.09597 24.208L9.09615 24.23L9.11769 24.2298L9.11787 24.2518L9.13982 24.2516L9.14 24.2735L9.18329 24.2732L9.18347 24.2951L9.20542 24.295L9.2272 24.2728L9.24934 24.2946L9.24952 24.3166L9.27147 24.3164L9.29361 24.3382L9.31557 24.338L9.31592 24.3813L9.33746 24.3811L9.33764 24.403L9.3596 24.4029L9.35977 24.4244L9.38173 24.4242L9.40387 24.446L9.42582 24.4458L9.426 24.4678L9.44796 24.4676L9.44778 24.4456L9.46974 24.4454L9.46956 24.4235L9.57934 24.4226L9.57952 24.4445L9.60148 24.4444L9.6013 24.4224L9.62326 24.4222L9.64504 24.4005L9.64486 24.3786L9.73142 24.3778L9.73124 24.3559L9.75302 24.3337L9.77497 24.3336L9.77533 24.3768L9.81861 24.3765L9.81807 24.3104L9.84657 24.3102L9.84639 24.2882L9.86835 24.288L9.86817 24.2661L9.88928 24.2659L9.8891 24.244L9.93238 24.2436L9.93202 24.2003L9.95398 24.2001L9.9538 24.1786L9.97558 24.1565L9.97523 24.1132L10.0185 24.1128L10.0183 24.0909L9.99637 24.0911L9.99601 24.0478L10.018 24.0476L10.0178 24.0256L10.0393 24.0255L10.0388 23.9594L10.0821 23.959L10.0819 23.9375L10.1252 23.9371L10.125 23.9152L10.1469 23.915L10.1471 23.937L10.1691 23.9368L10.1689 23.9148L10.1909 23.9146L10.1907 23.8927L10.2125 23.8705L10.2344 23.8704L10.2342 23.8484L10.2556 23.8263L10.2777 23.848L10.2775 23.8261L10.2995 23.8259L10.3213 23.8038L10.4315 23.8029L10.4313 23.7809L10.5633 23.7798L10.5854 23.8016L10.6515 23.8011L10.6517 23.823L10.7836 23.8219L10.8271 23.8435L10.8492 23.8653L10.8925 23.865L10.9146 23.8867L10.9366 23.8866L10.9583 23.9083L10.9803 23.9082L11.0024 23.9299L11.0244 23.9298L11.0245 23.9513L11.0678 23.9509L11.068 23.9729L11.1113 23.9725L11.1334 23.9943L11.1554 23.9941L11.1771 24.0159L11.199 24.0157L11.1992 24.0377L11.226 24.0375L11.2262 24.0594L11.2483 24.0812L11.2703 24.081L11.2705 24.103L11.2924 24.1028L11.2926 24.1248L11.3146 24.1246L11.3367 24.1464L11.3587 24.1462L11.3589 24.1681L11.3808 24.168L11.381 24.1895L11.4029 24.1893L11.4031 24.2113L11.4247 24.2111L11.4248 24.233L11.4468 24.2329L11.447 24.2548L11.4691 24.2766L11.4698 24.3632L11.4918 24.363L11.4927 24.4728L11.5146 24.4726L11.5152 24.5387L11.5373 24.5604L11.538 24.647L11.5161 24.6472L11.5164 24.6905L11.5384 24.6903L11.5166 24.7124L11.5168 24.7344L11.5387 24.7342L11.5391 24.7775L11.5171 24.7777L11.5195 25.0639L11.5414 25.0638L11.5418 25.107L11.5638 25.1069L11.5639 25.1288L11.5861 25.1506L11.5866 25.2167L11.5647 25.2169L11.5648 25.2388L11.5868 25.2386L11.5872 25.2819L11.6095 25.325L11.6107 25.4794L11.6327 25.4792L11.6332 25.5453L11.6548 25.5451L11.6551 25.5884L11.7217 25.6539L11.7219 25.6759L11.7439 25.6757L11.766 25.6975L11.788 25.6973L11.7882 25.7192L11.8101 25.7191L11.7883 25.7412L11.7885 25.7631L11.8107 25.7845L11.8108 25.8065L11.8328 25.8063L11.8331 25.8496L11.8551 25.8494L11.8557 25.9264L11.8777 25.9263L11.8786 26.036L11.9001 26.0359L11.9012 26.1682L11.9234 26.19L11.9235 26.212L11.9016 26.2122L11.9018 26.2341L11.9237 26.2339L11.9244 26.3205L11.9026 26.3426L11.9034 26.4292L11.9253 26.429L11.9259 26.4947L11.948 26.5165L11.9485 26.5825L11.9705 26.5824L11.9721 26.7804L11.9941 26.7802L11.9948 26.8668L11.9728 26.867L11.9734 26.933L11.9953 26.9329L11.9955 26.9544L12.0175 26.9542L12.0184 27.0644L11.9964 27.0646L11.9966 27.0866L11.9746 27.0867L11.975 27.13L11.9969 27.1298L11.9971 27.1518L11.9752 27.152L11.9754 27.1788L11.9973 27.1786L11.9975 27.1989L12.0195 27.1987L12.0198 27.242L11.998 27.2641L11.9987 27.3507L12.0207 27.3505L12.0212 27.4162L12.0434 27.4379L12.0214 27.4381L12.0218 27.4814L12.0437 27.4812L12.0441 27.5245L12.066 27.5243L12.0666 27.5904L12.0885 27.5902L12.0891 27.6559L12.0671 27.6561L12.068 27.7663L12.0248 27.7666L12.0249 27.7886L12.0469 27.7884L12.0471 27.8104L12.0251 27.8105L12.0472 27.8323L12.0905 27.832L12.0907 27.8539L12.1128 27.8753L12.0911 27.8974L12.0914 27.9407L12.0693 27.9189L12.0696 27.9622L12.0477 27.9624L12.0486 28.0726L12.0268 28.0947L12.0049 28.0949L11.9831 28.1166L11.9611 28.1168L11.962 28.227L11.9401 28.2272L11.9402 28.2491L11.9185 28.2713L11.8528 28.2718L11.853 28.2938L11.8097 28.2941L11.8101 28.3374L11.7881 28.3376L11.7885 28.3809L11.8317 28.3805L11.8321 28.4238L11.8754 28.4234L11.8975 28.4452L11.919 28.445L11.9193 28.4752L11.9413 28.475L11.9857 28.5188L11.9859 28.5408L12.0079 28.5406L12.0081 28.5625L12.03 28.5624L12.0306 28.628L12.0525 28.6278L12.0527 28.6498L12.0746 28.6496L12.075 28.6929L12.1183 28.6925L12.1185 28.7145L12.14 28.7143L12.1404 28.7576L12.1623 28.7574L12.1625 28.7794L12.1846 28.8007L12.1627 28.8009L12.1628 28.8229L12.1848 28.8227L12.185 28.8447L12.2069 28.8445L12.2071 28.8664L12.2291 28.8662L12.2293 28.8882L12.2075 28.9103L12.2078 28.9536L12.2298 28.9534L12.2307 29.0632L12.1874 29.0636L12.1656 29.0857L12.1437 29.0859L12.1442 29.152L12.1662 29.1518L12.1664 29.1738L12.1444 29.1739L12.1665 29.1957L12.1446 29.1959L12.1448 29.2179L12.1232 29.218L12.1236 29.2613L12.1451 29.2611L12.1673 29.2829L12.2333 29.2824L12.2339 29.3485L12.2607 29.3482L12.2389 29.3704L12.2609 29.3702L12.2612 29.4135L12.2832 29.4133L12.2834 29.4353L12.3045 29.4351L12.3047 29.457L12.3479 29.4567L12.3481 29.4786L12.4347 29.4779L12.435 29.5212L12.5011 29.5207L12.5009 29.4987L12.5229 29.4985L12.5231 29.5205L12.5452 29.5423L12.5672 29.5421L12.5668 29.4988L12.5888 29.4986L12.5886 29.4771L12.6106 29.4769L12.6104 29.4549L12.6537 29.4546L12.6533 29.4113L12.6753 29.4111L12.6531 29.3894L12.6529 29.3674L12.6749 29.3672L12.6751 29.3892L12.697 29.389L12.6972 29.411L12.7192 29.4108L12.7193 29.4327L12.7413 29.4325L12.7415 29.4545L12.8076 29.454L12.8077 29.4759L12.8297 29.4757L12.8299 29.4973L12.8514 29.4971L12.8516 29.5191L12.8736 29.5189L12.8741 29.5894L12.8961 29.5892L12.897 29.6994L12.875 29.6996L12.8756 29.7623L12.8977 29.7841L12.8982 29.8502L12.9202 29.85L12.9204 29.8719L12.9421 29.8498L12.9643 29.8716L13.0076 29.8712L13.0074 29.8493L13.1613 29.848L13.1615 29.87L13.1834 29.8698L13.1836 29.8917L13.1617 29.8919L13.1838 29.9137L13.1841 29.957L13.2061 29.9568L13.2059 29.9353L13.2279 29.9351L13.2061 29.9568L13.2281 29.9566L13.2282 29.9786L13.2502 29.9784L13.2498 29.9351L13.2931 29.9348L13.2928 29.8915L13.336 29.8911L13.3362 29.9131L13.3582 29.9129L13.3584 29.9349L13.4449 29.9341L13.4671 29.9555L13.4669 29.934L13.4888 29.9338L13.489 29.9553L13.5608 29.9547L13.5826 29.933L13.5828 29.9546L13.626 29.9542L13.6259 29.9327L13.6691 29.9323L13.669 29.9103L13.7122 29.91L13.7126 29.9533L13.7346 29.9531L13.7347 29.9751L13.778 29.9747L13.7782 29.9967L13.8 29.9745L13.8221 29.9963L13.8219 29.9743L13.8439 29.9742L13.8442 30.0174L13.8662 30.0173L13.8664 30.0392L13.8883 30.039L13.9105 30.0608L13.9538 30.0605L13.9539 30.0824L13.9759 30.0822L13.9755 30.039L13.9977 30.0607L14.041 30.0604L14.0408 30.0384L14.1069 30.0379L14.107 30.0598L14.129 30.0597L14.1288 30.0377L14.1508 30.0375L14.1506 30.0156L14.1725 30.0154L14.1943 29.9932L14.2809 29.9925L14.2807 29.9706L14.3909 29.9697L14.3907 29.9477L14.4127 29.9475L14.4125 29.926L14.4345 29.9258L14.4343 29.9039L14.4776 29.9035L14.4774 29.8815L14.4993 29.8814L14.4995 29.9033L14.5215 29.9031L14.5213 29.8812L14.5433 29.881L14.5434 29.903L14.5652 29.8808L14.5654 29.9028L14.5874 29.9026L14.587 29.8593L14.609 29.8591L14.6086 29.8159L14.6821 29.8153L14.6819 29.7933L14.7034 29.7931L14.7036 29.8151L14.7902 29.8144L14.79 29.7924L14.8115 29.7922L14.8117 29.8142L14.8337 29.814L14.8338 29.836L14.855 29.8358L14.8553 29.8791L14.8773 29.8789L14.8774 29.9009L14.8986 29.9007L14.8984 29.8787L14.9417 29.8784L14.9415 29.8564L14.9634 29.8562L14.9636 29.8782L15.0069 29.8778L15.0064 29.8118L15.0283 29.8116L15.0285 29.8335L15.0505 29.8334L15.0501 29.7901L15.0934 29.7897L15.0936 29.8117L15.1153 29.7895L15.1152 29.7676L15.1584 29.7672L15.1586 29.7892L15.1806 29.789L15.1802 29.7457L15.2024 29.7675L15.2025 29.7895L15.2458 29.7891L15.2676 29.767L15.3778 29.7661L15.3992 29.7439L15.4211 29.7437L15.4433 29.7655L15.5298 29.7648L15.552 29.7866L15.5952 29.7862L15.5951 29.7643L15.6166 29.7641L15.6168 29.7861L15.6387 29.7859L15.6385 29.7639L15.6605 29.7637L15.6826 29.7855L15.7259 29.7852L15.7261 29.8071L15.7481 29.8069L15.7479 29.785L15.7912 29.7846L15.8129 29.7625L15.8131 29.7844L15.8351 29.7843L15.8353 29.8062L15.8785 29.8059L15.8784 29.7839L15.9003 29.7837L15.9005 29.8057L15.9438 29.8053L15.9655 29.7832L16.0088 29.7828L16.0086 29.7609L16.0519 29.7605L16.0517 29.7354L16.1174 29.7349L16.1392 29.7127L16.2052 29.7122L16.2051 29.6911L16.227 29.6909L16.2488 29.6692L16.2708 29.669L16.2706 29.6475L16.2925 29.6473L16.3139 29.6251L16.3359 29.625L16.3355 29.5817L16.3575 29.5815L16.3573 29.5604L16.3792 29.5602L16.3789 29.5169L16.4222 29.5166L16.422 29.4946L16.4439 29.4944L16.4657 29.4723L16.5755 29.4714L16.5753 29.4499L16.6186 29.4495L16.6404 29.4274L16.6623 29.4272L16.6622 29.4052L16.6843 29.427L16.7063 29.4268L16.728 29.4047L16.75 29.4045L16.7498 29.3826L16.7931 29.3822L16.7929 29.3602L16.8149 29.3601L16.8147 29.3381L16.858 29.3378L16.8578 29.3158L16.9239 29.3153L16.9241 29.3372L16.946 29.337L16.9678 29.3149L16.9893 29.3147L16.9891 29.2928L17.0552 29.2922L17.0549 29.2489L17.0981 29.2486L17.098 29.2266L17.1383 29.2263L17.1381 29.2048L17.1814 29.2044L17.1812 29.1825L17.2032 29.1823L17.225 29.1601L17.2465 29.16L17.2463 29.138L17.2896 29.1376L17.2894 29.1157L17.2668 29.1159L17.2886 29.0937L17.3547 29.0932L17.3549 29.1152L17.3981 29.1148L17.3978 29.0715L17.4197 29.0713L17.4196 29.0494L17.4415 29.0492L17.4413 29.0272L17.4629 29.0271L17.4846 29.0049L17.5279 29.0046L17.5278 28.983L17.571 28.9827L17.5707 28.9394L17.614 28.939L17.6141 28.961L17.6361 28.9608L17.6359 28.9389L17.6579 28.9387L17.68 28.9605L17.6798 28.9385L17.7014 28.9383L17.7231 28.9162L17.723 28.8942L17.7449 28.8941L17.7671 28.9158L17.789 28.9157L17.7888 28.8937L17.8108 28.8935L17.8326 28.8714L17.8545 28.8712L17.8543 28.8492L17.8763 28.8491L17.8761 28.8271L17.9194 28.8267L17.9192 28.8048L17.9625 28.8044L17.9623 28.7825L17.9843 28.7823L17.9839 28.739L18.0277 28.6945L18.0938 28.694L18.0936 28.672L18.1155 28.6719L18.1154 28.6499L18.1375 28.6717L18.1371 28.6284L18.1804 28.628L18.1802 28.6061L18.2463 28.6055L18.2462 28.5836L18.2894 28.5832L18.2893 28.5613L18.3325 28.5609L18.3324 28.539L18.398 28.5384L18.3978 28.5169L18.4276 28.5166L18.4497 28.538L18.5141 28.5375L18.514 28.5159L18.5359 28.5157L18.5357 28.4938L18.5577 28.4936L18.5574 28.4643L18.6007 28.4639L18.6221 28.4418L18.644 28.4416L18.6442 28.4636L18.6662 28.4634L18.688 28.4412L18.7312 28.4409L18.753 28.4187L18.9511 28.4171L18.9512 28.4391L18.9732 28.4389L18.9734 28.4609L19.1494 28.4594L19.1493 28.4375L19.1925 28.4371L19.2147 28.4589L19.215 28.5022L19.237 28.502L19.2372 28.5235L19.2152 28.5237L19.2154 28.5456L19.2374 28.5455L19.2375 28.5674L19.2595 28.5672L19.2597 28.5892L19.3695 28.5883L19.3696 28.6103L19.4357 28.6097L19.4355 28.5878L19.4134 28.566L19.4354 28.5658L19.4352 28.5438L19.4571 28.5437L19.4573 28.5656L19.4791 28.5435L19.501 28.5433L19.5009 28.5213L19.5441 28.521L19.5663 28.5428L19.5668 28.6088L19.6378 28.6083L19.6374 28.565L19.6594 28.5648L19.6811 28.5427L19.7031 28.5425L19.7249 28.5204L19.7468 28.5202L19.7686 28.4985L19.7902 28.4983L19.8119 28.4761L19.8339 28.476L19.8337 28.454L19.988 28.4527L20.0098 28.4745L20.053 28.4742L20.0748 28.452L20.1181 28.4517L20.1184 28.495L20.1404 28.4948L20.1408 28.5381L20.1627 28.5379L20.1849 28.5597L20.185 28.5816L20.207 28.5814L20.2073 28.6247L20.2293 28.6245L20.2297 28.6678L20.2512 28.6676L20.251 28.6457L20.273 28.6455L20.2728 28.6235L20.2508 28.6237L20.2505 28.5804L20.2724 28.5803L20.2942 28.5581L20.3162 28.5579L20.3164 28.5799L20.3383 28.5797L20.3385 28.6017L20.3606 28.6235L20.3604 28.6015L20.3822 28.5794L20.3817 28.5133L20.425 28.5129L20.4248 28.4914L20.4681 28.491L20.4902 28.5124L20.5768 28.5117L20.5761 28.4251L20.598 28.4249L20.5978 28.4047L20.6198 28.4045L20.6196 28.3825L20.6416 28.3823L20.6412 28.3391L20.663 28.3169L20.685 28.3167L20.7063 28.2946L20.7496 28.2943L20.7498 28.3173L20.8159 28.3167L20.8157 28.2948L20.8433 28.2945L20.8432 28.2734L20.8651 28.2733L20.8869 28.2515L20.9087 28.2294L20.9302 28.2292L20.93 28.2073L20.952 28.2071L20.9958 28.1626L20.9956 28.1406L21.0175 28.1405L21.0166 28.0307L21.0599 28.0303L21.0601 28.0519L21.0819 28.0301L21.0817 28.0082L21.1036 28.008L21.1035 27.986L21.1467 27.9857L21.1469 28.0077L21.2567 28.0067L21.2565 27.9848L21.2998 27.9844L21.2996 27.9625L21.3862 27.9618L21.3864 27.9837L21.4729 27.983L21.4726 27.9397L21.5387 27.9392L21.5385 27.9172L21.5818 27.9169L21.5816 27.8949L21.6035 27.8947L21.6037 27.9167L21.6253 27.9165L21.6251 27.8946L21.647 27.8944L21.6469 27.8724L21.6688 27.8723L21.6686 27.8503L21.6904 27.8282L21.7124 27.828L21.7122 27.806L21.734 27.7843L21.7772 27.7839L21.7771 27.762L21.799 27.7618L21.7988 27.7399L21.8206 27.7177L21.842 27.6956L21.9285 27.6949L21.9507 27.7167L21.994 27.7163L21.9941 27.7383L22.0161 27.7381L22.0164 27.7814L22.0597 27.781L22.0599 27.8025L22.0813 27.7808L22.1032 27.7806L22.1034 27.8022L22.2577 27.8009L22.2579 27.8229L22.2797 27.8007L22.2793 27.7574L22.4332 27.7562L22.4331 27.7342L22.455 27.7341L22.4552 27.756L22.4772 27.7558L22.4768 27.7125L22.4986 27.6904L22.5419 27.6901L22.5417 27.6681L22.6519 27.6672L22.674 27.689L22.6737 27.6457L22.7169 27.6453L22.7168 27.6234L22.7387 27.6232L22.7385 27.6012L22.7605 27.6011L22.7603 27.5791L22.7384 27.5793L22.738 27.536L22.7161 27.5362L22.7159 27.5142L22.7378 27.514L22.7376 27.4921L22.7157 27.4923L22.7153 27.449L22.7586 27.4486L22.7588 27.4706L22.8021 27.4702L22.8019 27.4483L22.8239 27.4481L22.8235 27.4048L22.8456 27.4266L22.8453 27.3833L22.8672 27.3831L22.8671 27.3612L22.889 27.361L22.8669 27.3392L22.8658 27.2073L22.8878 27.2071L22.8875 27.1773L22.9093 27.1552L22.9091 27.1341L22.9524 27.1337L22.9742 27.1116L22.9957 27.1114L22.9955 27.0903L23.0175 27.0901L23.0173 27.0681L23.0393 27.068L23.0387 27.0019L23.082 27.0015L23.1038 26.9794L23.1257 26.9792L23.1254 26.9359L23.1687 26.9356L23.1683 26.8923L23.2072 26.892L23.2289 26.8698L23.2286 26.8266L23.2719 26.8262L23.2717 26.8042L23.315 26.8039L23.3367 26.7818L23.3587 26.7816L23.3589 26.8035L23.4022 26.8032L23.4239 26.781L23.4459 26.7809L23.4457 26.7589L23.4671 26.7368L23.4888 26.7146L23.5549 26.7141L23.5551 26.736L23.6212 26.7355L23.6214 26.7575L23.6433 26.7573L23.6431 26.7353L23.6651 26.7351L23.6649 26.7132L23.6869 26.713L23.6867 26.691L23.73 26.6907L23.7298 26.6687L23.7518 26.6686L23.7514 26.6253L23.7947 26.6249L23.7945 26.603L23.7725 26.6031L23.7724 26.5812L23.7943 26.581L23.7945 26.603L23.8165 26.6028L23.8163 26.5808L23.8382 26.5806L23.8381 26.5587L23.8161 26.5589L23.8379 26.5367L23.8381 26.5587L23.86 26.5585L23.8595 26.4924L23.8812 26.4703L23.9032 26.4701L23.903 26.4482L23.9246 26.448L23.9244 26.426L23.9463 26.4258L23.946 26.3826L24.0121 26.382L24.0117 26.3387L23.9896 26.317L24.0115 26.3168L24.0112 26.2735L24.033 26.2514L24.011 26.2515L24.0108 26.2296L24.0328 26.2294L24.0322 26.1633L24.054 26.1416L24.076 26.1414L24.0758 26.1195L24.0977 26.1193L24.0979 26.1412L24.1199 26.1411L24.1195 26.0978L24.1413 26.0756L24.1193 26.0758L24.119 26.0325L24.1409 26.0324L24.1411 26.0543L24.2068 26.0538L24.2066 26.0318L24.1846 26.032L24.2064 26.0099L24.1845 26.01L24.1843 25.9881L24.2276 25.9877L24.2497 26.0095L24.2717 26.0093L24.2689 25.6722L24.2909 25.672L24.2907 25.65L24.334 25.6497L24.3341 25.6716L24.3622 25.6714L24.3619 25.6281L24.3834 25.6279L24.3832 25.606L24.3617 25.6062L24.3615 25.5842L24.383 25.584L24.3829 25.5621L24.3613 25.5622L24.3611 25.5403L24.3827 25.5401L24.382 25.4536L24.4035 25.4534L24.4033 25.4314L24.3814 25.4316L24.3812 25.4096L24.3379 25.41L24.3377 25.388L24.3156 25.3663L24.3375 25.3661L24.3374 25.3441L24.3154 25.3443L24.3152 25.3223L24.3372 25.3222L24.337 25.3002L24.315 25.3004L24.3149 25.2784L24.3805 25.2779L24.3796 25.1681L24.4014 25.146L24.3794 25.1462L24.3791 25.1029L24.4006 25.1027L24.3999 25.0161L24.378 25.0163L24.3778 24.9948L24.3997 24.9946L24.3776 24.9728L24.3771 24.9067L24.399 24.9066L24.3988 24.8846L24.3769 24.8848L24.3767 24.8628L24.3987 24.8626L24.3985 24.8407L24.3765 24.8409L24.3763 24.8189L24.3983 24.8187L24.3979 24.7755L24.376 24.7756L24.3758 24.7476L24.3977 24.7474L24.3975 24.7254L24.4408 24.7251L24.4406 24.7039L24.4187 24.7041L24.4405 24.682L24.4837 24.6816L24.4832 24.6172L24.4613 24.6174L24.4611 24.5955L24.44 24.5956L24.4401 24.6176L24.4182 24.6178L24.3964 24.6399L24.3531 24.6403L24.3528 24.597L24.3308 24.5972L24.3306 24.5752L24.3087 24.5754L24.3083 24.5321L24.2864 24.5323L24.286 24.489L24.2851 24.4852L24.3175 24.4938ZM22.867 27.4773L22.845 27.4775L22.8671 27.4993L22.867 27.4773ZM11.8249 28.4483L11.8469 28.4482L11.847 28.4701L11.8251 28.4703L11.8249 28.4483ZM18.2979 28.6374L18.2758 28.6156L18.2759 28.6376L18.2979 28.6374Z" fill="#2189c1"/>
</g>
<defs>
<clipPath id="clip0_21_24">
<rect width="28.539" height="31.0206" fill="white"/>
</clipPath>
</defs>
</svg>
