<svg id="Layer_1" data-name="Layer 1" xmlns="http://www.w3.org/2000/svg" viewBox="0 0 34.43 26.28"><defs><style>.cls-1{fill:#fff;}</style></defs><path class="cls-1" d="M1.28,3.55a1.5,1.5,0,0,0,.36-3ZM6.35,1.13a1.5,1.5,0,0,0-.39,3Zm.53,3.11A1.52,1.52,0,0,0,8.58,3,1.49,1.49,0,0,0,7.31,1.27Zm5.2-2.1a1.5,1.5,0,0,0-.69,2.92Zm.19,3.14A1.5,1.5,0,0,0,13,2.38Zm5.51-1.1a1.5,1.5,0,0,0-1.44,2.63ZM17,7.23A1.5,1.5,0,1,0,18.7,4.74Zm5,2.2a1.5,1.5,0,1,0-3,.54Zm-2.9,1.2a1.5,1.5,0,0,0,3,0Zm1.4,5.19a1.5,1.5,0,0,0-2.61-1.48Zm-3.14-.58a1.5,1.5,0,1,0,2.6,1.5Zm1,6a1.5,1.5,0,1,0-3,0Zm-2.84,1.42A1.5,1.5,0,0,0,18.49,22Zm5.87,1.11a1.5,1.5,0,0,0-.29,3Zm1,3a1.5,1.5,0,1,0,0-3Zm5-3.85a1.5,1.5,0,0,0,.87,2.88Zm2,2.52a1.5,1.5,0,0,0-1-2.84Zm3.87-5a1.5,1.5,0,1,0,1.45,2.63ZM.81,3.49l.47.06.36-3L1.19.51ZM6,4.11l.92.13.43-3-1-.14Zm5.43.95.88.22L13,2.38l-1-.24Zm4.95,1.75.7.42L18.7,4.74c-.29-.2-.6-.38-.92-.56ZM19.09,10a3.45,3.45,0,0,1,.06.66h3a6.81,6.81,0,0,0-.1-1.21Zm-1.15,4.37-.22.38,2.56,1.56.27-.46Zm-.22.38-.31.52,2.6,1.5.27-.46Zm-2.31,6.45a6.43,6.43,0,0,0,.16,1.47L18.49,22a3.13,3.13,0,0,1-.08-.73Zm5.74,5.57c.41,0,.83.05,1.26.05v-3c-.34,0-.66,0-1,0Zm7.16-.92,1.11-.36-1-2.84-1,.32Zm6.43-2.73.5-.29-1.48-2.6-.47.26Z" transform="translate(-0.81 -0.51)"/></svg>