<svg width="28" height="28" viewBox="0 0 28 28" fill="none" xmlns="http://www.w3.org/2000/svg">
<path d="M14.0319 0H13.9681C6.25374 0 0 6.25373 0 13.9681V14.0319C0 21.7462 6.25374 28 13.9681 28H14.0319C21.7463 28 28 21.7462 28 14.0319V13.9681C28 6.25373 21.7463 0 14.0319 0Z" fill="#34E0A1"/>
<path d="M22.0319 11.5575L23.6009 9.85653H20.1209C18.3164 8.62829 16.1828 7.97403 13.9999 7.97953C11.7269 7.97953 9.6289 8.67153 7.8899 9.85653H4.3999L5.9699 11.5575C5.4765 12.0043 5.08222 12.5495 4.81249 13.1581C4.54276 13.7666 4.40357 14.4249 4.4039 15.0905C4.4039 17.7305 6.5519 19.8705 9.2009 19.8705C10.4094 19.8723 11.5739 19.4172 12.4609 18.5965L13.9999 20.2645L15.5369 18.5975C16.3929 19.3885 17.5369 19.8705 18.7959 19.8705C21.4449 19.8705 23.5959 17.7305 23.5959 15.0905C23.5972 14.4249 23.4586 13.7665 23.1892 13.1579C22.9198 12.5493 22.5255 12.0041 22.0319 11.5575ZM9.2029 18.3255C8.77734 18.3263 8.35578 18.2433 7.96232 18.0811C7.56886 17.9189 7.2112 17.6809 6.90976 17.3804C6.60833 17.08 6.36903 16.7232 6.20554 16.3303C6.04205 15.9374 5.95756 15.5161 5.9569 15.0905C5.95756 14.665 6.04205 14.2437 6.20554 13.8508C6.36903 13.4579 6.60833 13.101 6.90976 12.8006C7.2112 12.5002 7.56886 12.2621 7.96232 12.1C8.35578 11.9378 8.77734 11.8547 9.2029 11.8555C9.62847 11.8547 10.05 11.9378 10.4435 12.1C10.8369 12.2621 11.1946 12.5002 11.496 12.8006C11.7975 13.101 12.0368 13.4579 12.2003 13.8508C12.3638 14.2437 12.4482 14.665 12.4489 15.0905C12.4482 15.5161 12.3638 15.9374 12.2003 16.3303C12.0368 16.7232 11.7975 17.08 11.496 17.3804C11.1946 17.6809 10.8369 17.9189 10.4435 18.0811C10.05 18.2433 9.62847 18.3263 9.2029 18.3255ZM14.0009 14.9965C14.0009 12.8685 12.4479 11.0405 10.3979 10.2605C11.5391 9.78481 12.7635 9.54042 13.9999 9.54153C15.2769 9.54153 16.4939 9.79853 17.6029 10.2605C15.5539 11.0425 14.0009 12.8685 14.0009 14.9965ZM18.7969 18.3265C18.3713 18.3273 17.9496 18.2442 17.5561 18.082C17.1626 17.9198 16.8049 17.6816 16.5034 17.3811C16.202 17.0806 15.9627 16.7236 15.7993 16.3306C15.6358 15.9376 15.5514 15.5162 15.5509 15.0905C15.5516 14.665 15.636 14.2437 15.7995 13.8508C15.963 13.4579 16.2023 13.101 16.5038 12.8006C16.8052 12.5002 17.1629 12.2621 17.5563 12.1C17.9498 11.9378 18.3713 11.8547 18.7969 11.8555C19.2225 11.8547 19.644 11.9378 20.0375 12.1C20.4309 12.2621 20.7886 12.5002 21.09 12.8006C21.3915 13.101 21.6308 13.4579 21.7943 13.8508C21.9578 14.2437 22.0422 14.665 22.0429 15.0905C22.0422 15.5161 21.9578 15.9374 21.7943 16.3303C21.6308 16.7232 21.3915 17.08 21.09 17.3804C20.7886 17.6809 20.4309 17.9189 20.0375 18.0811C19.644 18.2433 19.2225 18.3273 18.7969 18.3265ZM18.7969 13.3935C17.8569 13.3935 17.0959 14.1525 17.0959 15.0895C17.0959 16.0265 17.8569 16.7855 18.7969 16.7855C19.2474 16.7861 19.6797 16.6077 19.9989 16.2897C20.318 15.9717 20.4978 15.54 20.4989 15.0895C20.4978 14.639 20.318 14.2073 19.9989 13.8893C19.6797 13.5713 19.2474 13.393 18.7969 13.3935ZM10.9049 15.0905C10.9049 16.0275 10.1429 16.7865 9.2029 16.7865C8.2629 16.7865 7.5019 16.0275 7.5019 15.0905C7.5019 14.1545 8.2629 13.3955 9.2029 13.3955C9.42601 13.3949 9.64705 13.4382 9.85339 13.5231C10.0597 13.6079 10.2473 13.7327 10.4054 13.8901C10.5635 14.0475 10.689 14.2346 10.7747 14.4406C10.8604 14.6466 10.9046 14.8674 10.9049 15.0905Z" fill="black"/>
</svg>
