<svg width="28" height="28" viewBox="0 0 28 28" fill="none" xmlns="http://www.w3.org/2000/svg">
<path d="M14.0319 0H13.9681C6.25374 0 0 6.25373 0 13.9681V14.0319C0 21.7462 6.25374 28 13.9681 28H14.0319C21.7463 28 28 21.7462 28 14.0319V13.9681C28 6.25373 21.7463 0 14.0319 0Z" fill="#FF0000"/>
<g clip-path="url(#clip0_68_228)">
<path d="M9.51687 5.82021C10.4315 5.10584 12.1899 4.90221 12.9132 5.04171C13.6377 5.18009 14.0157 5.58171 14.0202 6.07221L14.0619 12.3126C14.0652 12.8031 13.8087 13.2531 13.4915 13.3138C13.1731 13.3735 12.704 13.0821 12.4452 12.6647L9.14562 7.31309C8.89025 6.89571 8.375 6.71121 9.51687 5.82021ZM8.42112 17.689L11.7432 16.5223C12.2056 16.3592 12.6207 15.9058 12.6669 15.5121C12.7119 15.1183 12.3755 14.6503 11.9187 14.4715L8.40987 13.0911C7.95312 12.9111 7.4255 13.3363 7.28712 14.0316C7.28712 14.0316 7.20387 16.4537 7.28712 16.9543C7.3715 17.4561 7.95762 17.8532 8.42112 17.689ZM14.216 18.2728C14.225 17.7812 13.9617 17.3571 13.6287 17.3267C13.2957 17.2963 12.767 17.5776 12.4509 17.9522L10.1334 20.7107C9.81837 21.0853 9.97475 21.9651 10.4349 22.1327L12.8581 22.9675C13.3194 23.134 14.1316 22.6412 14.1406 22.1507L14.216 18.2728ZM19.9749 17.6305L17.069 16.8013C16.5976 16.6663 16.0632 16.6798 15.8821 16.8317C15.701 16.9813 15.746 17.4572 15.9834 17.887L17.8171 21.2181C18.0534 21.6467 19.0029 21.5736 19.2639 21.1573C19.2639 21.1573 20.3686 19.5396 20.5722 18.9321C20.7759 18.3235 20.4462 17.7643 19.9749 17.6305ZM20.6825 12.946C20.552 12.5241 19.643 11.2821 19.1514 10.8591C18.6597 10.435 18.0972 10.4878 17.7811 10.8602L15.908 13.0753C15.5907 13.4477 15.5052 14.0395 15.7167 14.386C15.9282 14.7336 16.4919 14.9305 16.9711 14.8236L20.21 14.2273C20.795 14.0878 20.8164 13.3678 20.6825 12.946Z" fill="white"/>
</g>
<defs>
<clipPath id="clip0_68_228">
<rect width="18" height="18" fill="white" transform="translate(5 5)"/>
</clipPath>
</defs>
</svg>
