<svg id="Layer_1" data-name="Layer 1" xmlns="http://www.w3.org/2000/svg" viewBox="0 0 362.09 639.38"><defs><style>.cls-1{fill:#f8991d;}</style></defs><path class="cls-1" d="M634.49,180.31h-269A46.54,46.54,0,0,0,319,226.91V773.15a46.54,46.54,0,0,0,46.52,46.54h269a46.59,46.59,0,0,0,46.56-46.54V226.91A46.61,46.61,0,0,0,634.49,180.31Zm11.67,518H353.84V258.91H646.16ZM562.35,227.59H437.63V214H562.37l0,13.6Zm53.38-6.21a11.93,11.93,0,1,1-11.93-11.91A11.93,11.93,0,0,1,615.73,221.38Zm-59,548.67H443.18V735.1H556.76Z" transform="translate(-318.95 -180.31)"/></svg>