<svg id="Layer_1" data-name="Layer 1" xmlns="http://www.w3.org/2000/svg" viewBox="0 0 922.5 598.01"><defs><style>.cls-1{fill:#3d3c3b;}</style></defs><path class="cls-1" d="M282.08,411.11A128.14,128.14,0,1,0,410.21,539.24,128.28,128.28,0,0,0,282.08,411.11Zm0,202.4a74.27,74.27,0,1,1,74.27-74.27A74.35,74.35,0,0,1,282.08,613.51Z" transform="translate(-38.75 -201)"/><path class="cls-1" d="M714.87,411.11c-70.66,0-128.15,57.48-128.15,128.13A128.29,128.29,0,0,0,714.87,667.38C785.51,667.38,843,609.9,843,539.24A128.28,128.28,0,0,0,714.87,411.11Zm0,202.4a74.27,74.27,0,1,1,74.26-74.27A74.35,74.35,0,0,1,714.87,613.51Z" transform="translate(-38.75 -201)"/><path class="cls-1" d="M961.25,295.91H755C693.59,236.3,598.76,201,498.47,201c-96.19,0-193.21,36.14-256.37,94.91H40.45l55,87.44A242.22,242.22,0,0,0,38.75,539.24c0,134.18,109.16,243.33,243.33,243.33a242.63,242.63,0,0,0,176.39-75.89l40,92.32,40-92.32a242.67,242.67,0,0,0,176.4,75.89c134.16,0,243.32-109.15,243.32-243.33a242.15,242.15,0,0,0-54-152.61Zm-289.6,3.85C596.12,313.35,532.59,361.92,498.47,428c-33.88-65.66-96.77-114-171.61-128,49.34-28.6,110.49-45.19,171.61-45.19C562.47,254.87,623.43,271.09,671.65,299.76ZM282.08,728.7c-104.47,0-189.45-85-189.45-189.46s85-189.45,189.45-189.45,189.45,85,189.45,189.45S386.55,728.7,282.08,728.7Zm432.79,0c-104.47,0-189.46-85-189.46-189.46s85-189.45,189.46-189.45,189.45,85,189.45,189.45S819.33,728.7,714.87,728.7Z" transform="translate(-38.75 -201)"/><path class="cls-1" d="M282.08,511a28.24,28.24,0,1,0,28.24,28.24A28.27,28.27,0,0,0,282.08,511Z" transform="translate(-38.75 -201)"/><path class="cls-1" d="M716.14,511a28.24,28.24,0,1,0,28.24,28.24A28.27,28.27,0,0,0,716.14,511Z" transform="translate(-38.75 -201)"/></svg>