<svg width="28" height="28" viewBox="0 0 28 28" fill="none" xmlns="http://www.w3.org/2000/svg">
<path d="M14.0319 0H13.9681C6.25374 0 0 6.25374 0 13.9681V14.0319C0 21.7463 6.25374 28 13.9681 28H14.0319C21.7463 28 28 21.7463 28 14.0319V13.9681C28 6.25374 21.7463 0 14.0319 0Z" fill="#2188F7"/>
<path d="M22.176 8.93164C21.7924 9.31912 21.2607 9.55946 20.6712 9.55946C20.5956 9.55946 20.5221 9.55554 20.4485 9.54769C21.0636 9.17884 21.5383 8.60105 21.7748 7.9124C21.7748 7.9124 21.7757 7.9124 21.7757 7.91142C21.8091 7.81921 21.8366 7.72602 21.8581 7.62988C21.3716 8.1498 20.7065 8.50197 19.96 8.58633C19.8452 8.60007 19.7284 8.60693 19.6117 8.60693C19.5744 8.60693 19.5381 8.60595 19.5028 8.60399C19.2507 8.33913 18.9496 8.11939 18.616 7.95851C18.2442 7.77703 17.8283 7.6701 17.3898 7.65637C17.3535 7.65441 17.3182 7.65343 17.2809 7.65343C16.9091 7.65343 16.552 7.71915 16.2224 7.84079C16.1381 7.8712 16.0557 7.90554 15.9752 7.94478C14.9305 8.43428 14.2075 9.49668 14.2075 10.7268C14.2075 10.9789 14.2379 11.2252 14.2958 11.4596C13.976 11.4469 13.6591 11.4165 13.3482 11.3694C13.2481 11.3537 13.149 11.336 13.05 11.3174C12.2573 11.1702 11.501 10.9171 10.7986 10.5718C10.1698 10.2648 9.58418 9.88515 9.05052 9.44371C8.60222 9.07388 8.19217 8.66187 7.82529 8.21062C7.80959 8.19198 7.79389 8.17138 7.77819 8.15274C7.75661 8.18511 7.73699 8.21847 7.71933 8.2528C7.4633 8.70111 7.31812 9.21906 7.31812 9.77233C7.31812 9.78901 7.31812 9.80765 7.3191 9.82433C7.32499 10.2383 7.41327 10.6326 7.57022 10.9917C7.63693 11.1506 7.71836 11.3007 7.81155 11.4439C8.08622 11.8667 8.46096 12.2189 8.90436 12.4622C8.92496 12.4749 8.94457 12.4857 8.96615 12.4955C8.93476 12.5014 8.90141 12.5073 8.86903 12.5102C8.7778 12.522 8.68461 12.5279 8.59044 12.5279C8.11859 12.5279 7.6801 12.3807 7.32106 12.1296C7.3191 12.1561 7.3191 12.1826 7.3191 12.2101C7.3191 13.088 7.68697 13.8797 8.27653 14.4379C8.73563 14.8754 9.32912 15.1706 9.98833 15.256C9.75094 15.3433 9.4949 15.3894 9.22709 15.3894C8.93771 15.3894 8.66107 15.3345 8.40798 15.2334C8.78566 16.4606 9.91084 17.3602 11.2528 17.4014C10.4337 18.2529 9.28204 18.7816 8.00873 18.7816C7.21708 18.7816 6.47251 18.5766 5.82703 18.2185C7.37795 19.5605 9.39975 20.3708 11.6119 20.3708C16.5001 20.3708 20.4622 16.4086 20.4622 11.5204C20.4622 11.2516 20.4504 10.9848 20.4259 10.7219C21.2342 10.4031 21.8758 9.74977 22.1789 8.93164H22.176Z" fill="white"/>
</svg>
