<svg width="28" height="28" viewBox="0 0 28 28" fill="none" xmlns="http://www.w3.org/2000/svg">
<path d="M14.0319 0H13.9681C6.25374 0 0 6.25373 0 13.9681V14.0319C0 21.7463 6.25374 28 13.9681 28H14.0319C21.7463 28 28 21.7463 28 14.0319V13.9681C28 6.25373 21.7463 0 14.0319 0Z" fill="#5D5D5D"/>
<path d="M22.1759 8.93164C21.7923 9.31913 21.2606 9.55947 20.671 9.55947C20.5955 9.55947 20.5219 9.55554 20.4484 9.5477C21.0634 9.17885 21.5382 8.60105 21.7746 7.9124C21.7746 7.9124 21.7756 7.9124 21.7756 7.91142C21.809 7.81921 21.8364 7.72602 21.858 7.62988C21.3715 8.1498 20.7064 8.50197 19.9598 8.58633C19.8451 8.60007 19.7283 8.60694 19.6116 8.60694C19.5743 8.60694 19.538 8.60596 19.5027 8.604C19.2506 8.33913 18.9494 8.11939 18.6159 7.95851C18.2441 7.77703 17.8282 7.6701 17.3897 7.65637C17.3534 7.65441 17.3181 7.65343 17.2808 7.65343C16.909 7.65343 16.5519 7.71915 16.2223 7.8408C16.138 7.87121 16.0556 7.90555 15.9751 7.94478C14.9304 8.43429 14.2074 9.49669 14.2074 10.7268C14.2074 10.9789 14.2378 11.2252 14.2957 11.4596C13.9759 11.4469 13.659 11.4165 13.3481 11.3694C13.248 11.3537 13.1489 11.336 13.0498 11.3174C12.2572 11.1702 11.5009 10.9171 10.7985 10.5718C10.1697 10.2648 9.58405 9.88515 9.0504 9.44371C8.6021 9.07388 8.19205 8.66187 7.82516 8.21063C7.80947 8.19199 7.79376 8.17139 7.77807 8.15275C7.75649 8.18512 7.73687 8.21847 7.71921 8.2528C7.46318 8.70111 7.318 9.21907 7.318 9.77234C7.318 9.78902 7.318 9.80765 7.31898 9.82433C7.32486 10.2383 7.41314 10.6327 7.5701 10.9917C7.63681 11.1506 7.71824 11.3007 7.81143 11.4439C8.0861 11.8667 8.46084 12.2189 8.90424 12.4622C8.92484 12.4749 8.94445 12.4857 8.96603 12.4955C8.93464 12.5014 8.90128 12.5073 8.86891 12.5102C8.77768 12.522 8.68449 12.5279 8.59032 12.5279C8.11847 12.5279 7.67998 12.3808 7.32094 12.1296C7.31898 12.1561 7.31898 12.1826 7.31898 12.2101C7.31898 13.088 7.68684 13.8797 8.27641 14.4379C8.73551 14.8754 9.32899 15.1706 9.98821 15.256C9.75081 15.3433 9.49478 15.3894 9.22697 15.3894C8.93758 15.3894 8.66095 15.3345 8.40786 15.2334C8.78553 16.4606 9.91071 17.3602 11.2527 17.4014C10.4336 18.2529 9.28191 18.7816 8.00861 18.7816C7.21696 18.7816 6.47239 18.5766 5.8269 18.2185C7.37783 19.5605 9.39963 20.3708 11.6117 20.3708C16.4999 20.3708 20.4621 16.4086 20.4621 11.5204C20.4621 11.2517 20.4503 10.9848 20.4258 10.7219C21.2341 10.4031 21.8757 9.74977 22.1788 8.93164H22.1759Z" fill="white"/>
</svg>
