<svg id="Layer_1" data-name="Layer 1" xmlns="http://www.w3.org/2000/svg" viewBox="0 0 733.41 595.9"><defs><style>.cls-1{fill:#3d3c3b;}</style></defs><path class="cls-1" d="M866.71,272.6a313.68,313.68,0,0,1-86.64,23.74,149.53,149.53,0,0,0,66.15-83.1,300.61,300.61,0,0,1-95.35,36.39A150.67,150.67,0,0,0,641,202.05c-83.24,0-150.25,67.57-150.25,150.4a154.53,154.53,0,0,0,3.48,34.28c-125-6.09-235.61-66-309.91-157.27a150.41,150.41,0,0,0,46.2,201,148.49,148.49,0,0,1-67.93-18.52v1.65c0,73.07,52.12,133.76,120.46,147.74a150.29,150.29,0,0,1-39.42,5c-9.62,0-19.34-.55-28.46-2.57C234.69,623.21,290,667,355.7,668.41a302.08,302.08,0,0,1-186.42,64.13,280.43,280.43,0,0,1-36-2.07C199.9,773.43,278.83,798,364,798c276.68,0,428-229.19,428-427.86,0-6.64-.23-13.06-.55-19.43C821.19,329.48,846.26,303,866.71,272.6Z" transform="translate(-133.29 -202.05)"/></svg>