<svg id="Layer_1" data-name="Layer 1" xmlns="http://www.w3.org/2000/svg" viewBox="0 0 592.91 731.03"><defs><style>.cls-1{fill:#3d3c3b;}</style></defs><path class="cls-1" d="M476.28,614.83c-13.54,0-28.17,8.06-43.49,23.95l-91.92,95.41c-16.28,16.91-23.05,36.75-19.06,55.87s18.12,34.61,39.82,43.58l62.31,25.81a74.94,74.94,0,0,0,28.64,6.07h0c32.5,0,55.67-25.38,56.35-61.72l2.47-132.46c.4-21.89-4.17-37.86-13.6-47.47A29.57,29.57,0,0,0,476.28,614.83Z" transform="translate(-203.54 -134.48)"/><path class="cls-1" d="M471.63,134.48a80.65,80.65,0,0,0-18.94,2.34l-88.84,21.49c-22.64,5.47-39.5,18.78-47.5,37.48s-5.94,40.09,5.76,60.23L451.82,479.31c13,22.37,26.22,33.81,39.3,34h.31a21.52,21.52,0,0,0,4.39-.45c15.18-3.18,23.67-20.1,25.24-50.29l13.39-257.9c1.06-20.31-5.1-38.59-17.33-51.47-11.45-12.07-27.6-18.72-45.49-18.72Z" transform="translate(-203.54 -134.48)"/><path class="cls-1" d="M734.78,639.63l-125.2-43.28c-11.15-3.85-21.27-5.8-30.08-5.8-18.52,0-27.43,8.36-31.64,15.37-8,13.24-5.72,32.3,6.45,55.14L616.65,778c12.1,22.69,31.36,35.7,52.85,35.7h0c17.45,0,34.54-8.77,48.14-24.7l43.82-51.3c15.24-17.86,20.81-38.07,15.68-56.91S757,647.29,734.78,639.63Z" transform="translate(-203.54 -134.48)"/><path class="cls-1" d="M785.18,436.54,749.93,379c-12.68-20.69-31.56-32.56-51.78-32.56-18.58,0-36.23,9.81-49.69,27.63L568.61,479.8c-9.39,12.43-23.7,36.17-14.06,55.54,3.51,7,13.26,18.87,39.11,18.87h0a112.38,112.38,0,0,0,19.41-1.85l130.44-23.17c23.11-4.11,40.25-16.18,48.27-34s5.67-38.64-6.6-58.65Z" transform="translate(-203.54 -134.48)"/><path class="cls-1" d="M454.07,562c1.34-17-12-33.19-37.66-45.65L297.27,458.39c-10.75-5.24-21.49-7.89-31.92-7.89-30.9,0-53.51,23.45-56.25,58.35l-5.29,67.24c-1.57,20,3.81,37.76,15.15,50,10.23,11.07,24.89,17.17,41.28,17.17A78.52,78.52,0,0,0,283,639.73l126.74-38.58C437,592.85,452.73,578.94,454.07,562Z" transform="translate(-203.54 -134.48)"/></svg>